STARTFONT 2.1
FONT -baekmuk-batang-bold-r-normal--18-180-75-75-m-180-ksx1001.1997-0
SIZE 18 75 75
FONTBOUNDINGBOX 18 18 0 -4
STARTPROPERTIES 18
FOUNDRY "baekmuk"
FAMILY_NAME "batang"
WEIGHT_NAME "bold"
SLANT "r"
SETWIDTH_NAME "normal"
ADD_STYLE_NAME ""
PIXEL_SIZE 18
POINT_SIZE 180
RESOLUTION_X 75
RESOLUTION_Y 75
SPACING "m"
AVERAGE_WIDTH 180
CHARSET_REGISTRY "ksx1001.1997"
CHARSET_ENCODING "0"
DEFAULT_CHAR 8481
FONT_ASCENT 14
FONT_DESCENT 4
COPYRIGHT "(c)Hwan Design Inc. and Mizi Research Inc."
ENDPROPERTIES
CHARS 8928
STARTCHAR C020440
ENCODING 8480
SWIDTH 1800 0
DWIDTH 18 0
BBX 0 0 0 0
BITMAP
ENDCHAR
STARTCHAR C020441
ENCODING 8481
SWIDTH 1800 0
DWIDTH 18 0
BBX 0 0 0 0
BITMAP
ENDCHAR
STARTCHAR C020442
ENCODING 8482
SWIDTH 1800 0
DWIDTH 18 0
BBX 4 3 13 11
BITMAP
C0
70
30
ENDCHAR
STARTCHAR C020443
ENCODING 8483
SWIDTH 1800 0
DWIDTH 18 0
BBX 5 4 12 10
BITMAP
70
D8
D8
70
ENDCHAR
STARTCHAR C020444
ENCODING 8484
SWIDTH 1800 0
DWIDTH 18 0
BBX 4 3 8 4
BITMAP
60
F0
F0
ENDCHAR
STARTCHAR C020445
ENCODING 8485
SWIDTH 1800 0
DWIDTH 18 0
BBX 10 2 4 4
BITMAP
E0C0
E0C0
ENDCHAR
STARTCHAR C020446
ENCODING 8486
SWIDTH 1800 0
DWIDTH 18 0
BBX 15 2 2 4
BITMAP
C186
C186
ENDCHAR
STARTCHAR C020447
ENCODING 8487
SWIDTH 1800 0
DWIDTH 18 0
BBX 9 2 5 4
BITMAP
C180
C180
ENDCHAR
STARTCHAR C020450
ENCODING 8488
SWIDTH 1800 0
DWIDTH 18 0
BBX 6 6 6 2
BITMAP
7C
6C
6C
78
D8
C0
ENDCHAR
STARTCHAR C020451
ENCODING 8489
SWIDTH 1800 0
DWIDTH 18 0
BBX 9 1 5 5
BITMAP
FF80
ENDCHAR
STARTCHAR C020452
ENCODING 8490
SWIDTH 1800 0
DWIDTH 18 0
BBX 19 15 0 -2
BITMAP
000020
000020
000020
000020
000020
000020
000020
FFFFE0
000020
000020
000020
000020
000020
000020
000020
ENDCHAR
STARTCHAR C020453
ENCODING 8491
SWIDTH 1800 0
DWIDTH 18 0
BBX 5 15 7 -2
BITMAP
D8
D8
D8
D8
D8
D8
D8
D8
D8
D8
D8
D8
D8
D8
D8
ENDCHAR
STARTCHAR C020454
ENCODING 8492
SWIDTH 1800 0
DWIDTH 18 0
BBX 16 14 2 -2
BITMAP
C000
6000
3000
1800
0C00
0600
0300
0180
00C0
0060
0038
001C
0006
0003
ENDCHAR
STARTCHAR C020455
ENCODING 8493
SWIDTH 1800 0
DWIDTH 18 0
BBX 12 3 4 4
BITMAP
7830
CE60
07C0
ENDCHAR
STARTCHAR C020456
ENCODING 8494
SWIDTH 1800 0
DWIDTH 18 0
BBX 3 3 12 10
BITMAP
E0
E0
E0
ENDCHAR
STARTCHAR C020457
ENCODING 8495
SWIDTH 1800 0
DWIDTH 18 0
BBX 3 4 4 10
BITMAP
E0
E0
C0
C0
ENDCHAR
STARTCHAR C020460
ENCODING 8496
SWIDTH 1800 0
DWIDTH 18 0
BBX 7 4 10 10
BITMAP
66
CC
EE
6E
ENDCHAR
STARTCHAR C020461
ENCODING 8497
SWIDTH 1800 0
DWIDTH 18 0
BBX 7 4 2 10
BITMAP
EE
EC
CC
C0
ENDCHAR
STARTCHAR C020462
ENCODING 8498
SWIDTH 1800 0
DWIDTH 18 0
BBX 4 16 13 -3
BITMAP
60
C0
00
00
00
00
00
00
00
00
00
00
00
00
E0
30
ENDCHAR
STARTCHAR C020463
ENCODING 8499
SWIDTH 1800 0
DWIDTH 18 0
BBX 3 15 3 -2
BITMAP
E0
60
60
60
60
60
60
60
60
60
60
60
60
60
E0
ENDCHAR
STARTCHAR C020464
ENCODING 8500
SWIDTH 1800 0
DWIDTH 18 0
BBX 8 15 10 -2
BITMAP
03
06
0C
0C
18
30
60
C0
60
30
18
0C
06
06
03
ENDCHAR
STARTCHAR C020465
ENCODING 8501
SWIDTH 1800 0
DWIDTH 18 0
BBX 7 16 1 -3
BITMAP
C0
60
60
30
18
0C
0C
06
06
06
0C
18
30
60
60
C0
ENDCHAR
STARTCHAR C020466
ENCODING 8502
SWIDTH 1800 0
DWIDTH 18 0
BBX 8 16 10 -3
BITMAP
0F
0E
1E
3C
3C
78
70
F0
F0
78
78
3C
3C
1E
0F
0C
ENDCHAR
STARTCHAR C020467
ENCODING 8503
SWIDTH 1800 0
DWIDTH 18 0
BBX 8 16 1 -3
BITMAP
C0
F0
78
78
3C
1C
1E
0F
0E
1E
1C
3C
78
70
F0
C0
ENDCHAR
STARTCHAR C020470
ENCODING 8504
SWIDTH 1800 0
DWIDTH 18 0
BBX 7 8 11 6
BITMAP
FE
C0
C0
C0
C0
C0
C0
C0
ENDCHAR
STARTCHAR C020471
ENCODING 8505
SWIDTH 1800 0
DWIDTH 18 0
BBX 7 8 1 -3
BITMAP
06
06
06
06
06
06
06
FE
ENDCHAR
STARTCHAR C020472
ENCODING 8506
SWIDTH 1800 0
DWIDTH 18 0
BBX 7 8 11 6
BITMAP
FE
FE
E0
E0
E0
E0
E0
E0
ENDCHAR
STARTCHAR C020473
ENCODING 8507
SWIDTH 1800 0
DWIDTH 18 0
BBX 7 9 1 -4
BITMAP
0E
0E
0E
0E
0E
0E
FE
C6
FE
ENDCHAR
STARTCHAR C020474
ENCODING 8508
SWIDTH 1800 0
DWIDTH 18 0
BBX 6 17 12 -3
BITMAP
FC
FC
F8
F8
F8
F0
F0
F0
F0
F0
F0
F0
F8
F8
F8
FC
FC
ENDCHAR
STARTCHAR C020475
ENCODING 8509
SWIDTH 1800 0
DWIDTH 18 0
BBX 6 17 1 -3
BITMAP
FC
FC
7C
7C
7C
3C
3C
3C
3C
3C
3C
3C
3C
7C
7C
FC
FC
ENDCHAR
STARTCHAR C020476
ENCODING 8510
SWIDTH 1800 0
DWIDTH 18 0
BBX 13 12 3 0
BITMAP
0300
0300
0300
0300
0300
7FF8
0300
0300
0300
0300
0300
FFF8
ENDCHAR
STARTCHAR C020477
ENCODING 8511
SWIDTH 1800 0
DWIDTH 18 0
BBX 12 10 3 0
BITMAP
6030
3060
18C0
0F80
0700
0F80
1980
30C0
6060
C030
ENDCHAR
STARTCHAR C020500
ENCODING 8512
SWIDTH 1800 0
DWIDTH 18 0
BBX 13 11 3 0
BITMAP
0600
0600
0000
0000
0000
FFF8
0000
0000
0000
0600
0600
ENDCHAR
STARTCHAR C020501
ENCODING 8513
SWIDTH 1800 0
DWIDTH 18 0
BBX 13 11 3 0
BITMAP
0C00
0C00
0600
0600
FFF8
0600
0300
FFF8
0300
0180
0180
ENDCHAR
STARTCHAR C020502
ENCODING 8514
SWIDTH 1800 0
DWIDTH 18 0
BBX 13 10 3 0
BITMAP
0070
01C0
0F00
3800
E000
3C00
0700
01E0
0038
FFF8
ENDCHAR
STARTCHAR C020503
ENCODING 8515
SWIDTH 1800 0
DWIDTH 18 0
BBX 13 10 3 0
BITMAP
7000
1C00
0780
00E0
0038
01E0
0700
3C00
E000
FFF8
ENDCHAR
STARTCHAR C020504
ENCODING 8516
SWIDTH 1800 0
DWIDTH 18 0
BBX 15 7 2 2
BITMAP
3C78
67CC
C386
C306
C306
678C
3CF8
ENDCHAR
STARTCHAR C020505
ENCODING 8517
SWIDTH 1800 0
DWIDTH 18 0
BBX 11 9 4 1
BITMAP
0E00
0E00
0000
0000
0000
0000
0000
E0E0
E0E0
ENDCHAR
STARTCHAR C020506
ENCODING 8518
SWIDTH 1800 0
DWIDTH 18 0
BBX 5 5 2 9
BITMAP
F0
D8
18
F0
60
ENDCHAR
STARTCHAR C020507
ENCODING 8519
SWIDTH 1800 0
DWIDTH 18 0
BBX 4 3 2 11
BITMAP
70
60
C0
ENDCHAR
STARTCHAR C020510
ENCODING 8520
SWIDTH 1800 0
DWIDTH 18 0
BBX 7 4 2 10
BITMAP
7E
6C
D8
18
ENDCHAR
STARTCHAR C020511
ENCODING 8521
SWIDTH 1800 0
DWIDTH 18 0
BBX 13 14 3 0
BITMAP
F000
DBC0
DE78
FC18
1C18
1800
1800
1800
1800
1800
1800
0C18
0E30
07E0
ENDCHAR
STARTCHAR C020512
ENCODING 8522
SWIDTH 1800 0
DWIDTH 18 0
BBX 15 14 2 0
BITMAP
07C0
06C0
06C0
0380
0380
07C0
07C0
0CE0
0CE0
1FF0
1870
3038
703C
F87E
ENDCHAR
STARTCHAR C020513
ENCODING 8523
SWIDTH 1800 0
DWIDTH 18 0
BBX 16 15 2 -2
BITMAP
03F9
0E7F
181E
181C
3030
3060
30C0
3180
3700
3E00
1C0C
1E18
37F0
6000
C000
ENDCHAR
STARTCHAR C020514
ENCODING 8524
SWIDTH 1800 0
DWIDTH 18 0
BBX 12 14 4 -1
BITMAP
03C0
0E60
0C60
1C60
1C00
1C00
1C00
FFC0
0C00
0C00
FC70
1FE0
F3C0
6000
ENDCHAR
STARTCHAR C020515
ENCODING 8525
SWIDTH 1800 0
DWIDTH 18 0
BBX 12 12 4 0
BITMAP
FDF0
30C0
38C0
1D80
FFF0
0F00
0600
FFF0
0600
0600
0600
1F80
ENDCHAR
STARTCHAR C020516
ENCODING 8526
SWIDTH 1800 0
DWIDTH 18 0
BBX 10 16 5 -3
BITMAP
0C00
1E00
3E00
3F00
6D80
CCC0
0C00
0C00
0C00
0C00
3F00
6300
6300
6300
7700
3E00
ENDCHAR
STARTCHAR C020517
ENCODING 8527
SWIDTH 1800 0
DWIDTH 18 0
BBX 12 15 4 -2
BITMAP
0F80
39C0
31C0
30C0
31C0
1980
0F00
0600
0600
FFF0
0600
0600
0600
0600
0600
ENDCHAR
STARTCHAR C020520
ENCODING 8528
SWIDTH 1800 0
DWIDTH 18 0
BBX 12 10 3 0
BITMAP
0060
00C0
0180
0300
0600
0C00
1800
3000
6000
FFF0
ENDCHAR
STARTCHAR C020521
ENCODING 8529
SWIDTH 1800 0
DWIDTH 18 0
BBX 13 10 3 0
BITMAP
0300
0300
0300
0300
0300
0300
0300
0300
0300
FFF8
ENDCHAR
STARTCHAR C020522
ENCODING 8530
SWIDTH 1800 0
DWIDTH 18 0
BBX 12 3 4 11
BITMAP
1F00
71C0
C070
ENDCHAR
STARTCHAR C020523
ENCODING 8531
SWIDTH 1800 0
DWIDTH 18 0
BBX 9 13 5 -1
BITMAP
1F00
3380
0180
0180
0180
3F80
6780
E700
C700
C600
CE00
7C00
3000
ENDCHAR
STARTCHAR C020524
ENCODING 8532
SWIDTH 1800 0
DWIDTH 18 0
BBX 15 11 2 0
BITMAP
FFFE
C006
600C
3018
3018
1830
1860
0CC0
06C0
0780
0300
ENDCHAR
STARTCHAR C020525
ENCODING 8533
SWIDTH 1800 0
DWIDTH 18 0
BBX 13 7 3 2
BITMAP
FFF8
0000
0000
FFF8
0000
0000
FFF8
ENDCHAR
STARTCHAR C020526
ENCODING 8534
SWIDTH 1800 0
DWIDTH 18 0
BBX 13 10 3 0
BITMAP
6000
6000
0000
FFF8
0000
0000
FFF8
0000
00C0
00C0
ENDCHAR
STARTCHAR C020527
ENCODING 8535
SWIDTH 1800 0
DWIDTH 18 0
BBX 7 16 6 -3
BITMAP
7C
CE
CE
E0
70
78
DC
CE
C6
F6
7C
3C
1E
E6
E6
7C
ENDCHAR
STARTCHAR C020530
ENCODING 8536
SWIDTH 1800 0
DWIDTH 18 0
BBX 13 11 3 0
BITMAP
C798
67B0
37E0
18C0
7DF8
7F78
7FF8
1CC0
37E0
67B0
C798
ENDCHAR
STARTCHAR C020531
ENCODING 8537
SWIDTH 1800 0
DWIDTH 18 0
BBX 15 14 2 -2
BITMAP
0380
0380
0380
06C0
FEFE
600C
3018
1830
1860
1830
1BB0
3EF0
3830
0018
ENDCHAR
STARTCHAR C020532
ENCODING 8538
SWIDTH 1800 0
DWIDTH 18 0
BBX 16 14 2 -2
BITMAP
0180
0380
0380
03C0
FFFF
7FFC
3FF8
1FF0
0FE0
1FF0
1FF0
1CF0
3830
3018
ENDCHAR
STARTCHAR C020533
ENCODING 8539
SWIDTH 1800 0
DWIDTH 18 0
BBX 16 15 2 -2
BITMAP
0FE0
3838
701C
E006
C006
0003
0003
0003
0003
0003
C006
E006
700C
3838
0FE0
ENDCHAR
STARTCHAR C020534
ENCODING 8540
SWIDTH 1800 0
DWIDTH 18 0
BBX 16 14 2 -2
BITMAP
0FE0
1FF8
7FFC
7FFE
FFFE
FFFE
FFFF
FFFF
FFFE
FFFE
7FFE
7FFC
1FF8
0FE0
ENDCHAR
STARTCHAR C020535
ENCODING 8541
SWIDTH 1800 0
DWIDTH 18 0
BBX 16 15 2 -2
BITMAP
0FE0
3838
701C
E7C6
DC76
1833
301B
301B
301B
301B
D836
FC76
77CC
3838
0FE0
ENDCHAR
STARTCHAR C020536
ENCODING 8542
SWIDTH 1800 0
DWIDTH 18 0
BBX 17 16 1 -3
BITMAP
01C000
036000
063000
0C1800
180C00
300600
600300
C00180
C00180
600300
300600
180C00
0C3800
077000
03E000
018000
ENDCHAR
STARTCHAR C020537
ENCODING 8543
SWIDTH 1800 0
DWIDTH 18 0
BBX 17 16 1 -3
BITMAP
018000
03E000
07F000
0FF800
1FFC00
3FFE00
7FFF00
FFFF80
FFFF80
7FFF00
3FFE00
1FFC00
0FF800
07E000
03C000
018000
ENDCHAR
STARTCHAR C020540
ENCODING 8544
SWIDTH 1800 0
DWIDTH 18 0
BBX 15 14 2 -2
BITMAP
FFFE
C006
C006
C006
C006
C006
C006
C006
C006
C006
C006
C006
C006
FFFE
ENDCHAR
STARTCHAR C020541
ENCODING 8545
SWIDTH 1800 0
DWIDTH 18 0
BBX 15 14 2 -2
BITMAP
FFFE
FFFE
FFFE
FFFE
FFFE
FFFE
FFFE
FFFE
FFFE
FFFE
FFFE
FFFE
FFFE
FFFE
ENDCHAR
STARTCHAR C020542
ENCODING 8546
SWIDTH 1800 0
DWIDTH 18 0
BBX 15 11 2 0
BITMAP
0380
06C0
06C0
0C60
1860
1830
3018
6018
600C
C006
FFFE
ENDCHAR
STARTCHAR C020543
ENCODING 8547
SWIDTH 1800 0
DWIDTH 18 0
BBX 15 11 2 0
BITMAP
0380
07C0
07C0
0FE0
0FE0
1FF0
3FF8
3FF8
7FFC
FFFE
FFFE
ENDCHAR
STARTCHAR C020544
ENCODING 8548
SWIDTH 1800 0
DWIDTH 18 0
BBX 15 11 2 -1
BITMAP
FFFE
C00C
600C
6018
3030
1830
1860
0CC0
06C0
0780
0300
ENDCHAR
STARTCHAR C020545
ENCODING 8549
SWIDTH 1800 0
DWIDTH 18 0
BBX 15 10 2 0
BITMAP
FFFE
7FFC
7FFC
3FF8
1FF0
1FF0
0FE0
07C0
07C0
0380
ENDCHAR
STARTCHAR C020546
ENCODING 8550
SWIDTH 1800 0
DWIDTH 18 0
BBX 17 6 1 2
BITMAP
000C00
000600
FFFF80
000700
000C00
001800
ENDCHAR
STARTCHAR C020547
ENCODING 8551
SWIDTH 1800 0
DWIDTH 18 0
BBX 17 7 1 2
BITMAP
0C0000
180000
700000
FFFF80
700000
180000
0C0000
ENDCHAR
STARTCHAR C020550
ENCODING 8552
SWIDTH 1800 0
DWIDTH 18 0
BBX 7 16 7 -3
BITMAP
30
38
78
FC
36
30
30
30
30
30
30
30
30
30
30
30
ENDCHAR
STARTCHAR C020551
ENCODING 8553
SWIDTH 1800 0
DWIDTH 18 0
BBX 7 16 6 -3
BITMAP
30
30
30
30
30
30
30
30
30
30
30
36
FC
78
78
30
ENDCHAR
STARTCHAR C020552
ENCODING 8554
SWIDTH 1800 0
DWIDTH 18 0
BBX 15 5 2 3
BITMAP
3018
600C
FFFE
600E
3018
ENDCHAR
STARTCHAR C020553
ENCODING 8555
SWIDTH 1800 0
DWIDTH 18 0
BBX 13 4 3 3
BITMAP
FFF8
0000
0000
FFF8
ENDCHAR
STARTCHAR C020554
ENCODING 8556
SWIDTH 1800 0
DWIDTH 18 0
BBX 15 13 2 -1
BITMAP
0060
00CC
0398
0670
1DC0
3300
EE00
6700
3980
0EE0
0330
01DC
0066
ENDCHAR
STARTCHAR C020555
ENCODING 8557
SWIDTH 1800 0
DWIDTH 18 0
BBX 15 13 2 -1
BITMAP
0C00
6600
3380
1CC0
0670
0398
00EE
01DC
0330
0EE0
3980
6700
CC00
ENDCHAR
STARTCHAR C020556
ENCODING 8558
SWIDTH 1800 0
DWIDTH 18 0
BBX 16 15 2 -1
BITMAP
00FF
00C0
0180
0180
0180
0300
0300
0600
0600
6600
EC00
7C00
3800
3800
3800
ENDCHAR
STARTCHAR C020557
ENCODING 8559
SWIDTH 1800 0
DWIDTH 18 0
BBX 15 7 2 2
BITMAP
3C78
60CC
C186
C306
C306
660C
3CF8
ENDCHAR
STARTCHAR C020560
ENCODING 8560
SWIDTH 1800 0
DWIDTH 18 0
BBX 14 7 3 2
BITMAP
3C78
66C0
C380
C180
C180
67C0
3C7C
ENDCHAR
STARTCHAR C020561
ENCODING 8561
SWIDTH 1800 0
DWIDTH 18 0
BBX 10 9 4 1
BITMAP
C0C0
C0C0
0000
0000
0000
0000
0000
0E00
0E00
ENDCHAR
STARTCHAR C020562
ENCODING 8562
SWIDTH 1800 0
DWIDTH 18 0
BBX 5 16 7 -3
BITMAP
38
78
C0
60
60
60
70
70
30
38
38
18
18
18
78
70
ENDCHAR
STARTCHAR C020563
ENCODING 8563
SWIDTH 1800 0
DWIDTH 18 0
BBX 9 16 5 -3
BITMAP
7380
F780
0600
C600
C600
C600
E700
E700
6300
7380
7380
3180
3180
3180
F700
E600
ENDCHAR
STARTCHAR C020564
ENCODING 8564
SWIDTH 1800 0
DWIDTH 18 0
BBX 14 10 3 0
BITMAP
0FFC
3800
6000
C000
C000
FFFC
C000
6000
3000
1FFC
ENDCHAR
STARTCHAR C020565
ENCODING 8565
SWIDTH 1800 0
DWIDTH 18 0
BBX 14 10 3 0
BITMAP
FFC0
0070
0018
0018
000C
FFFC
0018
0018
0030
FFE0
ENDCHAR
STARTCHAR C020566
ENCODING 8566
SWIDTH 1800 0
DWIDTH 18 0
BBX 13 10 3 0
BITMAP
3FF0
6000
C000
C000
C000
6000
3FF8
0000
0000
FFF8
ENDCHAR
STARTCHAR C020567
ENCODING 8567
SWIDTH 1800 0
DWIDTH 18 0
BBX 13 10 3 0
BITMAP
7FE0
0030
0018
0018
0018
0030
FFE0
0000
0000
FFF8
ENDCHAR
STARTCHAR C020570
ENCODING 8568
SWIDTH 1800 0
DWIDTH 18 0
BBX 13 10 3 0
BITMAP
1FF8
7000
C000
0000
0000
0000
0000
C000
E000
3FF8
ENDCHAR
STARTCHAR C020571
ENCODING 8569
SWIDTH 1800 0
DWIDTH 18 0
BBX 14 10 3 0
BITMAP
FFC0
0070
0018
000C
000C
000C
000C
001C
0018
FFF0
ENDCHAR
STARTCHAR C020572
ENCODING 8570
SWIDTH 1800 0
DWIDTH 18 0
BBX 11 13 4 -1
BITMAP
0060
C060
C060
C060
C060
C060
C060
C060
C060
C060
60C0
7180
1F00
ENDCHAR
STARTCHAR C020573
ENCODING 8571
SWIDTH 1800 0
DWIDTH 18 0
BBX 11 13 4 -1
BITMAP
1F00
31C0
60C0
C060
C060
C060
C060
C060
C060
C060
C060
C060
C060
ENDCHAR
STARTCHAR C020574
ENCODING 8572
SWIDTH 1800 0
DWIDTH 18 0
BBX 13 10 3 0
BITMAP
0700
0F00
0D80
1980
18C0
3060
3060
6030
6030
C018
ENDCHAR
STARTCHAR C020575
ENCODING 8573
SWIDTH 1800 0
DWIDTH 18 0
BBX 13 11 3 0
BITMAP
C018
C030
6030
6060
3060
18C0
18C0
0D80
0D80
0700
0700
ENDCHAR
STARTCHAR C020576
ENCODING 8574
SWIDTH 1800 0
DWIDTH 18 0
BBX 13 8 3 0
BITMAP
FFF8
0018
0018
0018
0018
0018
0018
0018
ENDCHAR
STARTCHAR C020577
ENCODING 8575
SWIDTH 1800 0
DWIDTH 18 0
BBX 0 0 0 0
BITMAP
ENDCHAR
STARTCHAR C021040
ENCODING 8736
SWIDTH 1800 0
DWIDTH 18 0
BBX 1 1 18 3
BITMAP
80
ENDCHAR
STARTCHAR C021041
ENCODING 8737
SWIDTH 1800 0
DWIDTH 18 0
BBX 17 9 1 1
BITMAP
001800
000C00
000600
7FFF00
000180
000300
FFFE00
000C00
001800
ENDCHAR
STARTCHAR C021042
ENCODING 8738
SWIDTH 1800 0
DWIDTH 18 0
BBX 16 9 2 1
BITMAP
0C00
1830
301C
7FFE
C003
C006
7FFC
3818
0C30
ENDCHAR
STARTCHAR C021043
ENCODING 8739
SWIDTH 1800 0
DWIDTH 18 0
BBX 13 13 3 0
BITMAP
C018
C018
6030
6030
3FE0
3060
30C0
18C0
18C0
0D80
0D80
0700
0700
ENDCHAR
STARTCHAR C021044
ENCODING 8740
SWIDTH 1800 0
DWIDTH 18 0
BBX 10 12 4 0
BITMAP
FFC0
00C0
00C0
00C0
00C0
00C0
7FC0
00C0
00C0
00C0
00C0
FFC0
ENDCHAR
STARTCHAR C021045
ENCODING 8741
SWIDTH 1800 0
DWIDTH 18 0
BBX 4 2 7 12
BITMAP
70
C0
ENDCHAR
STARTCHAR C021046
ENCODING 8742
SWIDTH 1800 0
DWIDTH 18 0
BBX 9 3 5 11
BITMAP
7800
FF80
0700
ENDCHAR
STARTCHAR C021047
ENCODING 8743
SWIDTH 1800 0
DWIDTH 18 0
BBX 7 2 6 12
BITMAP
C6
7C
ENDCHAR
STARTCHAR C021050
ENCODING 8744
SWIDTH 1800 0
DWIDTH 18 0
BBX 7 2 6 11
BITMAP
EE
7C
ENDCHAR
STARTCHAR C021051
ENCODING 8745
SWIDTH 1800 0
DWIDTH 18 0
BBX 6 2 6 12
BITMAP
6C
D8
ENDCHAR
STARTCHAR C021052
ENCODING 8746
SWIDTH 1800 0
DWIDTH 18 0
BBX 5 3 7 11
BITMAP
70
D8
70
ENDCHAR
STARTCHAR C021053
ENCODING 8747
SWIDTH 1800 0
DWIDTH 18 0
BBX 3 2 8 4
BITMAP
E0
E0
ENDCHAR
STARTCHAR C021054
ENCODING 8748
SWIDTH 1800 0
DWIDTH 18 0
BBX 4 4 7 -3
BITMAP
30
30
30
F0
ENDCHAR
STARTCHAR C021055
ENCODING 8749
SWIDTH 1800 0
DWIDTH 18 0
BBX 3 3 8 -2
BITMAP
C0
00
E0
ENDCHAR
STARTCHAR C021056
ENCODING 8750
SWIDTH 1800 0
DWIDTH 18 0
BBX 3 13 8 0
BITMAP
60
60
00
00
C0
C0
C0
C0
C0
C0
C0
E0
E0
ENDCHAR
STARTCHAR C021057
ENCODING 8751
SWIDTH 1800 0
DWIDTH 18 0
BBX 7 13 6 0
BITMAP
18
18
00
00
0C
0C
1C
7C
E0
C0
C0
CC
7E
ENDCHAR
STARTCHAR C021060
ENCODING 8752
SWIDTH 1800 0
DWIDTH 18 0
BBX 5 8 7 1
BITMAP
70
70
00
00
00
00
70
F8
ENDCHAR
STARTCHAR C021061
ENCODING 8753
SWIDTH 1800 0
DWIDTH 18 0
BBX 7 13 6 -1
BITMAP
0E
18
18
18
18
FC
FC
FC
70
30
30
60
E0
ENDCHAR
STARTCHAR C021062
ENCODING 8754
SWIDTH 1800 0
DWIDTH 18 0
BBX 15 15 2 -2
BITMAP
FFFE
F006
7806
3C06
0E06
0706
0380
0180
0300
0600
0C06
1806
3006
7FFE
FFFE
ENDCHAR
STARTCHAR C021063
ENCODING 8755
SWIDTH 1800 0
DWIDTH 18 0
BBX 14 15 3 -2
BITMAP
FFFC
3030
3030
3030
3030
3030
3030
3030
3030
3030
3030
3030
3030
3030
FCFC
ENDCHAR
STARTCHAR C021064
ENCODING 8756
SWIDTH 1800 0
DWIDTH 18 0
BBX 13 13 3 -1
BITMAP
C000
6F98
38F0
3060
6030
6030
6030
6030
6030
3060
38E0
6FB0
C018
ENDCHAR
STARTCHAR C021065
ENCODING 8757
SWIDTH 1800 0
DWIDTH 18 0
BBX 16 13 1 -1
BITMAP
03FE
7187
D983
F180
6180
0198
01F8
0198
0180
0180
0180
0180
07E0
ENDCHAR
STARTCHAR C021066
ENCODING 8758
SWIDTH 1800 0
DWIDTH 18 0
BBX 17 16 1 -2
BITMAP
3C0000
3E1800
663000
666000
66C000
66C000
678000
3F0000
3FCF00
077980
0F7980
1B7980
337980
637980
637D80
C1CF00
ENDCHAR
STARTCHAR C021067
ENCODING 8759
SWIDTH 1800 0
DWIDTH 18 0
BBX 12 14 3 -1
BITMAP
0030
0070
01F0
0730
0C30
3830
6030
C030
6030
3830
0C30
0730
01F0
0070
ENDCHAR
STARTCHAR C021070
ENCODING 8760
SWIDTH 1800 0
DWIDTH 18 0
BBX 11 14 4 -1
BITMAP
0060
00E0
03E0
0FE0
1FE0
7FE0
FFE0
FFE0
7FE0
1FE0
0FE0
03E0
00E0
0060
ENDCHAR
STARTCHAR C021071
ENCODING 8761
SWIDTH 1800 0
DWIDTH 18 0
BBX 12 13 4 -1
BITMAP
C000
F000
D800
CE00
C380
C0E0
C030
C060
C1C0
C700
DC00
F000
E000
ENDCHAR
STARTCHAR C021072
ENCODING 8762
SWIDTH 1800 0
DWIDTH 18 0
BBX 12 13 4 -1
BITMAP
C000
F000
F800
FE00
FF80
FFE0
FFF0
FFE0
FF80
FE00
F800
F000
C000
ENDCHAR
STARTCHAR C021073
ENCODING 8763
SWIDTH 1800 0
DWIDTH 18 0
BBX 14 15 3 -2
BITMAP
0700
0D80
0CC0
1860
3060
6030
6018
C00C
C00C
C00C
E19C
EFF8
7D80
0CC0
0FC0
ENDCHAR
STARTCHAR C021074
ENCODING 8764
SWIDTH 1800 0
DWIDTH 18 0
BBX 13 14 3 -2
BITMAP
0700
0F80
1FC0
3FE0
3FF0
7FF0
FFF8
FFF8
FFF8
FFF8
FFF8
3700
0F80
0F80
ENDCHAR
STARTCHAR C021075
ENCODING 8765
SWIDTH 1800 0
DWIDTH 18 0
BBX 14 15 2 -2
BITMAP
3EF8
73CC
638C
C00C
C00C
C00C
600C
600C
6018
3018
1830
1860
0C60
06C0
0380
ENDCHAR
STARTCHAR C021076
ENCODING 8766
SWIDTH 1800 0
DWIDTH 18 0
BBX 15 15 2 -2
BITMAP
7EFC
FFFE
FFFE
FFFE
FFFE
FFFE
7FFE
7FFC
3FF8
3FF8
1FF0
0FE0
07C0
07C0
0380
ENDCHAR
STARTCHAR C021077
ENCODING 8767
SWIDTH 1800 0
DWIDTH 18 0
BBX 17 16 1 -2
BITMAP
03E000
063000
0C1800
0C1800
0C1800
063000
3E7E00
603300
C00180
C00180
C00180
C36180
77F700
1F7C00
066000
03E000
ENDCHAR
STARTCHAR C021100
ENCODING 8768
SWIDTH 1800 0
DWIDTH 18 0
BBX 17 15 1 -2
BITMAP
03E000
07F000
07F000
0FF800
07F000
07E000
7FFE00
7FFF00
FFFF80
FFFF80
7FFF00
7FFF00
01C000
03E000
03E000
ENDCHAR
STARTCHAR C021101
ENCODING 8769
SWIDTH 1800 0
DWIDTH 18 0
BBX 16 15 2 -2
BITMAP
0FE0
3838
600C
CFE6
DFF6
3FFB
3FFB
3FFB
3FFB
1FF3
DFF6
CFE6
600C
3838
0FE0
ENDCHAR
STARTCHAR C021102
ENCODING 8770
SWIDTH 1800 0
DWIDTH 18 0
BBX 17 16 1 -2
BITMAP
018000
03E000
077000
0FF800
1FFC00
3FFE00
7FFF00
FFFF80
DFFD80
6FFB00
37F600
1BEC00
0DD800
063000
036000
01C000
ENDCHAR
STARTCHAR C021103
ENCODING 8771
SWIDTH 1800 0
DWIDTH 18 0
BBX 15 15 2 -2
BITMAP
FFFE
C006
C006
C006
DFF6
DFF6
DFF6
DFF6
DFF6
DFF6
DFF6
C006
C006
C006
FFFE
ENDCHAR
STARTCHAR C021104
ENCODING 8772
SWIDTH 1800 0
DWIDTH 18 0
BBX 16 15 2 -2
BITMAP
07F0
1F38
3F0C
7F06
7F06
FF03
FF03
FF03
FF03
FF03
7F06
7F06
3F0C
1F38
07E0
ENDCHAR
STARTCHAR C021105
ENCODING 8773
SWIDTH 1800 0
DWIDTH 18 0
BBX 15 15 2 -2
BITMAP
0FC0
39F0
61F8
C1FC
C1FC
01FE
01FE
01FE
01FE
01FE
C1FC
E1FC
71F8
39F0
0FC0
ENDCHAR
STARTCHAR C021106
ENCODING 8774
SWIDTH 1800 0
DWIDTH 18 0
BBX 15 15 2 -2
BITMAP
FFFE
F7BE
C006
FBDE
F7BE
FBDE
F7BE
C006
FBDE
F7BE
FBDE
F7BE
C006
FBDE
FFFE
ENDCHAR
STARTCHAR C021107
ENCODING 8775
SWIDTH 1800 0
DWIDTH 18 0
BBX 15 14 2 -1
BITMAP
FFFE
C006
C006
C006
FFFE
C006
C006
FFFE
C006
C006
FFFE
C006
C006
FFFE
ENDCHAR
STARTCHAR C021110
ENCODING 8776
SWIDTH 1800 0
DWIDTH 18 0
BBX 15 15 2 -2
BITMAP
FFFE
D9B6
D9B6
D9B6
D9B6
D9B6
D9B6
D9B6
D9B6
D9B6
D9B6
D9B6
D9B6
D9B6
FFFE
ENDCHAR
STARTCHAR C021111
ENCODING 8777
SWIDTH 1800 0
DWIDTH 18 0
BBX 15 15 2 -2
BITMAP
FFFE
C306
C61E
CC36
D866
F0C6
E186
C306
C60E
CC1E
D836
F0E6
E186
C306
FFFE
ENDCHAR
STARTCHAR C021112
ENCODING 8778
SWIDTH 1800 0
DWIDTH 18 0
BBX 15 15 2 -2
BITMAP
FFFE
C186
E0C6
F066
D836
CE1E
C30E
E186
F0C6
D866
D836
CC1E
C60E
C306
FFFE
ENDCHAR
STARTCHAR C021113
ENCODING 8779
SWIDTH 1800 0
DWIDTH 18 0
BBX 15 14 2 -1
BITMAP
FFFE
D9B6
D9B6
D9B6
FFFE
D9B6
D9B6
FFFE
D9B6
D9B6
FFFE
D9B6
D9B6
FFFE
ENDCHAR
STARTCHAR C021114
ENCODING 8780
SWIDTH 1800 0
DWIDTH 18 0
BBX 15 14 2 -1
BITMAP
FFFE
E386
F6DE
DC76
DC76
F6DE
E38E
C386
E6DE
FC76
DC36
FEFE
E38E
FFFE
ENDCHAR
STARTCHAR C021115
ENCODING 8781
SWIDTH 1800 0
DWIDTH 18 0
BBX 16 14 2 -2
BITMAP
0DE0
0FE0
0F60
1FE0
1FE0
0FF0
0FF0
1FF0
7DEE
CF66
DBC7
E31E
7FFC
1FE0
ENDCHAR
STARTCHAR C021116
ENCODING 8782
SWIDTH 1800 0
DWIDTH 18 0
BBX 17 12 1 0
BITMAP
07F800
1E0F00
7FFD80
DFFC80
FFFC80
FE1F80
0C0C00
3C0E00
6C0F00
6C0F00
661B00
7FFF00
ENDCHAR
STARTCHAR C021117
ENCODING 8783
SWIDTH 1800 0
DWIDTH 18 0
BBX 17 11 1 0
BITMAP
3FFC00
7FFF00
FE3F80
FFFF80
EE3780
1C1800
3C1C00
3C1E00
7C1E00
7E3E00
7FFE00
ENDCHAR
STARTCHAR C021120
ENCODING 8784
SWIDTH 1800 0
DWIDTH 18 0
BBX 17 8 1 2
BITMAP
07E000
FCFF80
038780
FFE380
0FE380
0FFB80
07DF80
03F180
ENDCHAR
STARTCHAR C021121
ENCODING 8785
SWIDTH 1800 0
DWIDTH 18 0
BBX 17 7 1 2
BITMAP
0FFF00
F83F80
E7FC00
E3BC00
E1F800
FFF000
01E000
ENDCHAR
STARTCHAR C021122
ENCODING 8786
SWIDTH 1800 0
DWIDTH 18 0
BBX 11 15 3 -2
BITMAP
3F60
6360
C360
C360
C360
6360
3F60
0360
0360
0360
0360
0360
0360
0360
0360
ENDCHAR
STARTCHAR C021123
ENCODING 8787
SWIDTH 1800 0
DWIDTH 18 0
BBX 10 16 5 -2
BITMAP
0C00
0C00
0C00
0C00
0C00
FFC0
0C00
0C00
0C00
0C00
0C00
0C00
0C00
0C00
0C00
0C00
ENDCHAR
STARTCHAR C021124
ENCODING 8788
SWIDTH 1800 0
DWIDTH 18 0
BBX 10 15 4 -2
BITMAP
0C00
0C00
FFC0
0C00
0C00
FFC0
0C00
0C00
0C00
0C00
0C00
0C00
0C00
0C00
0C00
ENDCHAR
STARTCHAR C021125
ENCODING 8789
SWIDTH 1800 0
DWIDTH 18 0
BBX 5 13 7 -1
BITMAP
70
F8
60
60
60
60
60
60
60
60
60
F8
70
ENDCHAR
STARTCHAR C021126
ENCODING 8790
SWIDTH 1800 0
DWIDTH 18 0
BBX 12 10 3 0
BITMAP
01F0
0070
00F0
01B0
0300
0E00
1800
3000
6000
C000
ENDCHAR
STARTCHAR C021127
ENCODING 8791
SWIDTH 1800 0
DWIDTH 18 0
BBX 12 11 4 0
BITMAP
0030
0060
00C0
0180
0300
0600
0C00
D800
F000
E000
F800
ENDCHAR
STARTCHAR C021130
ENCODING 8792
SWIDTH 1800 0
DWIDTH 18 0
BBX 12 10 4 0
BITMAP
F800
E000
F000
D800
0C00
0700
0180
00C0
0060
0030
ENDCHAR
STARTCHAR C021131
ENCODING 8793
SWIDTH 1800 0
DWIDTH 18 0
BBX 12 11 3 0
BITMAP
C000
6000
3000
1800
0C00
0600
0300
01B0
00F0
0070
01F0
ENDCHAR
STARTCHAR C021132
ENCODING 8794
SWIDTH 1800 0
DWIDTH 18 0
BBX 7 11 6 0
BITMAP
C0
C0
C0
D8
FE
C6
C6
C6
CC
D8
F0
ENDCHAR
STARTCHAR C021133
ENCODING 8795
SWIDTH 1800 0
DWIDTH 18 0
BBX 5 15 7 -2
BITMAP
18
18
18
18
18
18
18
18
18
18
18
18
F8
F0
C0
ENDCHAR
STARTCHAR C021134
ENCODING 8796
SWIDTH 1800 0
DWIDTH 18 0
BBX 10 15 4 -2
BITMAP
1800
1C00
1E00
1F00
1B80
19C0
18C0
18C0
1980
1980
1B00
1800
7800
F000
E000
ENDCHAR
STARTCHAR C021135
ENCODING 8797
SWIDTH 1800 0
DWIDTH 18 0
BBX 13 13 3 -1
BITMAP
1FF8
1FF8
1818
1FF8
1818
1818
1818
1818
1818
3878
F8F8
F0F0
C000
ENDCHAR
STARTCHAR C021136
ENCODING 8798
SWIDTH 1800 0
DWIDTH 18 0
BBX 17 15 1 -2
BITMAP
07F000
1E3C00
380E00
767600
66E300
E7C000
E78000
FFDF80
06C380
066300
667300
763E00
380E00
1E3C00
07F000
ENDCHAR
STARTCHAR C021137
ENCODING 8799
SWIDTH 1800 0
DWIDTH 18 0
BBX 17 13 1 -1
BITMAP
1FF600
606300
C0C300
C1C180
C77D80
FC0180
C01F80
FFF180
C18180
C18180
C18300
618300
018600
ENDCHAR
STARTCHAR C021140
ENCODING 8800
SWIDTH 1800 0
DWIDTH 18 0
BBX 16 13 2 -1
BITMAP
C600
E600
E600
E600
F67C
F6CC
DEC6
DEC6
DEC6
CEC6
C6C6
C66F
0038
ENDCHAR
STARTCHAR C021141
ENCODING 8801
SWIDTH 1800 0
DWIDTH 18 0
BBX 16 14 2 -1
BITMAP
1800
7E00
6300
C300
C000
C078
C0CC
C0CC
C0CC
C0CC
C3CC
66CC
7C7B
0030
ENDCHAR
STARTCHAR C021142
ENCODING 8802
SWIDTH 1800 0
DWIDTH 18 0
BBX 17 12 1 0
BITMAP
7EE300
DB6700
1B7700
187700
187F00
187F00
187F00
187F00
187F00
187B00
187B00
18F780
ENDCHAR
STARTCHAR C021143
ENCODING 8803
SWIDTH 1800 0
DWIDTH 18 0
BBX 17 9 1 -1
BITMAP
7DFE00
ECDE00
0CDE00
18DE00
78DE00
D8DE00
18DE00
FFDF80
000C00
ENDCHAR
STARTCHAR C021144
ENCODING 8804
SWIDTH 1800 0
DWIDTH 18 0
BBX 17 11 1 -3
BITMAP
FDFE00
66DE00
66DE00
66DE00
66DE00
66DE00
66DE00
6FDF80
780C00
600000
700000
ENDCHAR
STARTCHAR C021145
ENCODING 8805
SWIDTH 1800 0
DWIDTH 18 0
BBX 17 13 1 -1
BITMAP
7F8380
CD8180
CCC180
0C3180
0CF980
0CCD80
0CCD80
0CFD80
0CC180
0CC180
0CC180
1E6F80
003800
ENDCHAR
STARTCHAR C021146
ENCODING 8806
SWIDTH 1800 0
DWIDTH 18 0
BBX 0 0 0 0
BITMAP
ENDCHAR
STARTCHAR C021147
ENCODING 8807
SWIDTH 1800 0
DWIDTH 18 0
BBX 0 0 0 0
BITMAP
ENDCHAR
STARTCHAR C021150
ENCODING 8808
SWIDTH 1800 0
DWIDTH 18 0
BBX 0 0 0 0
BITMAP
ENDCHAR
STARTCHAR C021151
ENCODING 8809
SWIDTH 1800 0
DWIDTH 18 0
BBX 0 0 0 0
BITMAP
ENDCHAR
STARTCHAR C021152
ENCODING 8810
SWIDTH 1800 0
DWIDTH 18 0
BBX 0 0 0 0
BITMAP
ENDCHAR
STARTCHAR C021153
ENCODING 8811
SWIDTH 1800 0
DWIDTH 18 0
BBX 0 0 0 0
BITMAP
ENDCHAR
STARTCHAR C021154
ENCODING 8812
SWIDTH 1800 0
DWIDTH 18 0
BBX 0 0 0 0
BITMAP
ENDCHAR
STARTCHAR C021155
ENCODING 8813
SWIDTH 1800 0
DWIDTH 18 0
BBX 0 0 0 0
BITMAP
ENDCHAR
STARTCHAR C021156
ENCODING 8814
SWIDTH 1800 0
DWIDTH 18 0
BBX 1 14 18 -4
BITMAP
80
00
00
80
00
80
80
00
00
00
00
00
00
80
ENDCHAR
STARTCHAR C021157
ENCODING 8815
SWIDTH 1800 0
DWIDTH 18 0
BBX 0 0 0 0
BITMAP
ENDCHAR
STARTCHAR C021160
ENCODING 8816
SWIDTH 1800 0
DWIDTH 18 0
BBX 0 0 0 0
BITMAP
ENDCHAR
STARTCHAR C021161
ENCODING 8817
SWIDTH 1800 0
DWIDTH 18 0
BBX 0 0 0 0
BITMAP
ENDCHAR
STARTCHAR C021162
ENCODING 8818
SWIDTH 1800 0
DWIDTH 18 0
BBX 0 0 0 0
BITMAP
ENDCHAR
STARTCHAR C021163
ENCODING 8819
SWIDTH 1800 0
DWIDTH 18 0
BBX 1 2 18 8
BITMAP
80
80
ENDCHAR
STARTCHAR C021164
ENCODING 8820
SWIDTH 1800 0
DWIDTH 18 0
BBX 0 0 0 0
BITMAP
ENDCHAR
STARTCHAR C021165
ENCODING 8821
SWIDTH 1800 0
DWIDTH 18 0
BBX 0 0 0 0
BITMAP
ENDCHAR
STARTCHAR C021166
ENCODING 8822
SWIDTH 1800 0
DWIDTH 18 0
BBX 0 0 0 0
BITMAP
ENDCHAR
STARTCHAR C021167
ENCODING 8823
SWIDTH 1800 0
DWIDTH 18 0
BBX 0 0 0 0
BITMAP
ENDCHAR
STARTCHAR C021170
ENCODING 8824
SWIDTH 1800 0
DWIDTH 18 0
BBX 0 0 0 0
BITMAP
ENDCHAR
STARTCHAR C021171
ENCODING 8825
SWIDTH 1800 0
DWIDTH 18 0
BBX 0 0 0 0
BITMAP
ENDCHAR
STARTCHAR C021172
ENCODING 8826
SWIDTH 1800 0
DWIDTH 18 0
BBX 0 0 0 0
BITMAP
ENDCHAR
STARTCHAR C021173
ENCODING 8827
SWIDTH 1800 0
DWIDTH 18 0
BBX 0 0 0 0
BITMAP
ENDCHAR
STARTCHAR C021174
ENCODING 8828
SWIDTH 1800 0
DWIDTH 18 0
BBX 0 0 0 0
BITMAP
ENDCHAR
STARTCHAR C021175
ENCODING 8829
SWIDTH 1800 0
DWIDTH 18 0
BBX 1 14 18 -4
BITMAP
80
00
00
80
00
80
80
00
00
00
00
00
00
80
ENDCHAR
STARTCHAR C021176
ENCODING 8830
SWIDTH 1800 0
DWIDTH 18 0
BBX 0 0 0 0
BITMAP
ENDCHAR
STARTCHAR C021177
ENCODING 8831
SWIDTH 1800 0
DWIDTH 18 0
BBX 0 0 0 0
BITMAP
ENDCHAR
STARTCHAR C021440
ENCODING 8992
SWIDTH 1800 0
DWIDTH 18 0
BBX 1 12 18 0
BITMAP
80
80
80
00
00
00
00
00
00
00
80
80
ENDCHAR
STARTCHAR C021441
ENCODING 8993
SWIDTH 1800 0
DWIDTH 18 0
BBX 3 12 8 0
BITMAP
C0
C0
C0
60
60
60
60
60
00
00
C0
C0
ENDCHAR
STARTCHAR C021442
ENCODING 8994
SWIDTH 1800 0
DWIDTH 18 0
BBX 6 4 6 10
BITMAP
7C
6C
D8
C0
ENDCHAR
STARTCHAR C021443
ENCODING 8995
SWIDTH 1800 0
DWIDTH 18 0
BBX 9 14 5 -2
BITMAP
1B00
1B00
1B00
3300
FF80
3600
3600
3600
3600
FF80
6C00
6C00
6C00
6C00
ENDCHAR
STARTCHAR C021444
ENCODING 8996
SWIDTH 1800 0
DWIDTH 18 0
BBX 11 16 4 -3
BITMAP
1B00
3F00
7BC0
DBC0
DB00
FB00
7F00
3F80
1BC0
1B60
1B60
DB60
FBE0
7FC0
1B00
1B00
ENDCHAR
STARTCHAR C021445
ENCODING 8997
SWIDTH 1800 0
DWIDTH 18 0
BBX 15 16 2 -3
BITMAP
3C00
6606
660C
C618
C630
6660
6CC0
3980
0370
06D8
0CCC
198C
318C
61CC
C0DC
00F8
ENDCHAR
STARTCHAR C021446
ENCODING 8998
SWIDTH 1800 0
DWIDTH 18 0
BBX 13 13 2 -1
BITMAP
0F80
19C0
19C0
1980
1F00
0E00
3E38
6630
6330
E1E0
F1E0
79C0
3F78
ENDCHAR
STARTCHAR C021447
ENCODING 8999
SWIDTH 1800 0
DWIDTH 18 0
BBX 3 4 8 10
BITMAP
E0
E0
C0
C0
ENDCHAR
STARTCHAR C021450
ENCODING 9000
SWIDTH 1800 0
DWIDTH 18 0
BBX 4 15 13 -2
BITMAP
30
60
60
C0
C0
C0
C0
C0
C0
C0
C0
C0
60
60
30
ENDCHAR
STARTCHAR C021451
ENCODING 9001
SWIDTH 1800 0
DWIDTH 18 0
BBX 4 15 2 -2
BITMAP
C0
60
60
60
30
30
30
30
30
30
30
30
60
60
C0
ENDCHAR
STARTCHAR C021452
ENCODING 9002
SWIDTH 1800 0
DWIDTH 18 0
BBX 7 7 6 2
BITMAP
18
18
FE
18
7E
DE
18
ENDCHAR
STARTCHAR C021453
ENCODING 9003
SWIDTH 1800 0
DWIDTH 18 0
BBX 12 11 3 0
BITMAP
0600
0600
0600
0600
0600
FFF0
0600
0600
0600
0600
0600
ENDCHAR
STARTCHAR C021454
ENCODING 9004
SWIDTH 1800 0
DWIDTH 18 0
BBX 3 3 1 -1
BITMAP
E0
E0
60
ENDCHAR
STARTCHAR C021455
ENCODING 9005
SWIDTH 1800 0
DWIDTH 18 0
BBX 13 1 3 5
BITMAP
FFF8
ENDCHAR
STARTCHAR C021456
ENCODING 9006
SWIDTH 1800 0
DWIDTH 18 0
BBX 2 2 2 0
BITMAP
C0
C0
ENDCHAR
STARTCHAR C021457
ENCODING 9007
SWIDTH 1800 0
DWIDTH 18 0
BBX 17 16 1 -3
BITMAP
000180
000300
000600
000C00
001800
003000
006000
00C000
018000
030000
060000
0C0000
180000
300000
600000
C00000
ENDCHAR
STARTCHAR C021460
ENCODING 9008
SWIDTH 1800 0
DWIDTH 18 0
BBX 7 14 6 -1
BITMAP
38
6C
C6
C6
C6
C6
C6
C6
C6
C6
C6
CC
78
30
ENDCHAR
STARTCHAR C021461
ENCODING 9009
SWIDTH 1800 0
DWIDTH 18 0
BBX 7 13 6 0
BITMAP
18
78
18
18
18
18
18
18
18
18
18
18
FE
ENDCHAR
STARTCHAR C021462
ENCODING 9010
SWIDTH 1800 0
DWIDTH 18 0
BBX 7 12 6 0
BITMAP
7E
C6
C6
C6
06
0C
18
30
30
60
C6
FE
ENDCHAR
STARTCHAR C021463
ENCODING 9011
SWIDTH 1800 0
DWIDTH 18 0
BBX 7 13 6 -1
BITMAP
7C
C6
C6
06
0C
38
0C
06
06
C6
C6
CC
78
ENDCHAR
STARTCHAR C021464
ENCODING 9012
SWIDTH 1800 0
DWIDTH 18 0
BBX 8 12 6 0
BITMAP
0C
1C
1C
3C
6C
6C
CC
CC
FF
0C
0C
1E
ENDCHAR
STARTCHAR C021465
ENCODING 9013
SWIDTH 1800 0
DWIDTH 18 0
BBX 8 13 5 -1
BITMAP
7E
60
60
60
7C
76
03
03
03
E3
E7
6E
38
ENDCHAR
STARTCHAR C021466
ENCODING 9014
SWIDTH 1800 0
DWIDTH 18 0
BBX 8 13 6 0
BITMAP
1E
37
66
C0
C0
DC
F6
C3
C3
C3
C3
66
3C
ENDCHAR
STARTCHAR C021467
ENCODING 9015
SWIDTH 1800 0
DWIDTH 18 0
BBX 7 12 6 0
BITMAP
FE
C6
0C
0C
18
18
18
30
30
30
70
70
ENDCHAR
STARTCHAR C021470
ENCODING 9016
SWIDTH 1800 0
DWIDTH 18 0
BBX 8 13 6 0
BITMAP
7C
EE
C6
C6
C6
7C
7C
CE
C7
C3
C3
E6
7C
ENDCHAR
STARTCHAR C021471
ENCODING 9017
SWIDTH 1800 0
DWIDTH 18 0
BBX 7 13 6 0
BITMAP
78
6C
C6
C6
C6
C6
C6
7E
36
0C
0C
D8
70
ENDCHAR
STARTCHAR C021472
ENCODING 9018
SWIDTH 1800 0
DWIDTH 18 0
BBX 2 8 9 0
BITMAP
C0
C0
00
00
00
00
C0
C0
ENDCHAR
STARTCHAR C021473
ENCODING 9019
SWIDTH 1800 0
DWIDTH 18 0
BBX 3 10 8 -2
BITMAP
C0
C0
00
00
00
00
E0
E0
60
C0
ENDCHAR
STARTCHAR C021474
ENCODING 9020
SWIDTH 1800 0
DWIDTH 18 0
BBX 12 11 3 0
BITMAP
0030
00E0
0380
0E00
3800
E000
3800
0E00
0380
00E0
0030
ENDCHAR
STARTCHAR C021475
ENCODING 9021
SWIDTH 1800 0
DWIDTH 18 0
BBX 13 4 3 3
BITMAP
FFF8
0000
0000
FFF8
ENDCHAR
STARTCHAR C021476
ENCODING 9022
SWIDTH 1800 0
DWIDTH 18 0
BBX 13 11 3 0
BITMAP
E000
3800
0E00
0380
00E0
0038
00E0
0380
0E00
3800
E000
ENDCHAR
STARTCHAR C021477
ENCODING 9023
SWIDTH 1800 0
DWIDTH 18 0
BBX 8 13 5 -1
BITMAP
1C
77
63
F3
07
06
0C
18
18
18
00
0C
0C
ENDCHAR
STARTCHAR C021500
ENCODING 9024
SWIDTH 1800 0
DWIDTH 18 0
BBX 12 12 4 -1
BITMAP
0F80
18E0
7060
6730
DDF0
D9F0
D9B0
DBB0
CFE0
60F0
3060
1FC0
ENDCHAR
STARTCHAR C021501
ENCODING 9025
SWIDTH 1800 0
DWIDTH 18 0
BBX 13 12 3 0
BITMAP
0700
0F00
0F00
0D80
1980
19C0
18C0
1FC0
30E0
6060
6060
F8F8
ENDCHAR
STARTCHAR C021502
ENCODING 9026
SWIDTH 1800 0
DWIDTH 18 0
BBX 12 13 4 -1
BITMAP
FFC0
6060
6060
6060
60C0
7F80
61C0
6060
6070
6070
60E0
FBC0
0E00
ENDCHAR
STARTCHAR C021503
ENCODING 9027
SWIDTH 1800 0
DWIDTH 18 0
BBX 11 12 4 0
BITMAP
3FE0
6060
6000
C000
C000
C000
C000
C000
E000
6000
7060
1FC0
ENDCHAR
STARTCHAR C021504
ENCODING 9028
SWIDTH 1800 0
DWIDTH 18 0
BBX 13 12 3 0
BITMAP
7FC0
3060
3030
3018
3018
3018
3018
3018
3018
3030
3060
FFC0
ENDCHAR
STARTCHAR C021505
ENCODING 9029
SWIDTH 1800 0
DWIDTH 18 0
BBX 12 12 4 0
BITMAP
FFE0
30E0
3060
3180
3380
3F80
3380
3180
3030
3060
30E0
FFE0
ENDCHAR
STARTCHAR C021506
ENCODING 9030
SWIDTH 1800 0
DWIDTH 18 0
BBX 11 12 4 0
BITMAP
7FE0
3060
3000
3180
3180
3F80
3380
3180
3000
3000
3000
FC00
ENDCHAR
STARTCHAR C021507
ENCODING 9031
SWIDTH 1800 0
DWIDTH 18 0
BBX 12 13 4 -1
BITMAP
1FE0
3060
6000
C000
C000
C000
C000
C1F0
C0C0
60C0
60C0
31C0
1F00
ENDCHAR
STARTCHAR C021510
ENCODING 9032
SWIDTH 1800 0
DWIDTH 18 0
BBX 13 12 3 0
BITMAP
7DF8
3060
3060
3060
3060
3FE0
3060
3060
3060
3060
3060
FDF8
ENDCHAR
STARTCHAR C021511
ENCODING 9033
SWIDTH 1800 0
DWIDTH 18 0
BBX 4 12 8 0
BITMAP
F0
60
60
60
60
60
60
60
60
60
60
F0
ENDCHAR
STARTCHAR C021512
ENCODING 9034
SWIDTH 1800 0
DWIDTH 18 0
BBX 8 15 5 -3
BITMAP
3F
0C
0C
0C
0C
0C
0C
0C
0C
0C
0C
0C
0C
F8
F0
ENDCHAR
STARTCHAR C021513
ENCODING 9035
SWIDTH 1800 0
DWIDTH 18 0
BBX 13 12 3 0
BITMAP
78F0
30C0
3180
3300
3600
3F00
3B00
3180
30C0
30C0
3060
FCF8
ENDCHAR
STARTCHAR C021514
ENCODING 9036
SWIDTH 1800 0
DWIDTH 18 0
BBX 11 12 4 0
BITMAP
FC00
3000
3000
3000
3000
3000
3000
3000
3000
3060
30E0
7FC0
ENDCHAR
STARTCHAR C021515
ENCODING 9037
SWIDTH 1800 0
DWIDTH 18 0
BBX 17 12 1 0
BITMAP
F80F80
381E00
3C1E00
3C3600
3C3600
363600
366600
336600
33C600
33C600
31C600
7C1F00
ENDCHAR
STARTCHAR C021516
ENCODING 9038
SWIDTH 1800 0
DWIDTH 18 0
BBX 13 12 3 0
BITMAP
F0F8
3830
3830
3C30
3630
3630
3330
31B0
31B0
30F0
3070
FC30
ENDCHAR
STARTCHAR C021517
ENCODING 9039
SWIDTH 1800 0
DWIDTH 18 0
BBX 13 13 3 0
BITMAP
1FC0
3060
6030
E038
C018
C018
C018
C018
C018
E038
6030
3060
1FC0
ENDCHAR
STARTCHAR C021520
ENCODING 9040
SWIDTH 1800 0
DWIDTH 18 0
BBX 11 12 4 0
BITMAP
7F80
30C0
3060
3060
3060
30E0
3F80
3000
3000
3000
3000
FC00
ENDCHAR
STARTCHAR C021521
ENCODING 9041
SWIDTH 1800 0
DWIDTH 18 0
BBX 13 15 3 -2
BITMAP
0F80
38E0
7070
6030
6038
E018
C018
C018
C018
6030
7F30
31E0
19C0
0FE0
0070
ENDCHAR
STARTCHAR C021522
ENCODING 9042
SWIDTH 1800 0
DWIDTH 18 0
BBX 12 12 4 0
BITMAP
FFC0
30E0
3060
3060
30E0
3F80
3300
3300
3180
31C0
30C0
FC70
ENDCHAR
STARTCHAR C021523
ENCODING 9043
SWIDTH 1800 0
DWIDTH 18 0
BBX 10 14 4 -1
BITMAP
0C00
3F80
6180
60C0
6000
7000
1E00
0380
00C0
00C0
C0C0
60C0
7980
0F00
ENDCHAR
STARTCHAR C021524
ENCODING 9044
SWIDTH 1800 0
DWIDTH 18 0
BBX 14 12 3 0
BITMAP
7FF8
6318
C30C
0300
0300
0300
0300
0300
0300
0300
0300
0780
ENDCHAR
STARTCHAR C021525
ENCODING 9045
SWIDTH 1800 0
DWIDTH 18 0
BBX 13 13 4 0
BITMAP
01F8
F060
6060
6060
6060
6060
6060
6060
6060
6060
6060
30C0
1F80
ENDCHAR
STARTCHAR C021526
ENCODING 9046
SWIDTH 1800 0
DWIDTH 18 0
BBX 13 11 3 1
BITMAP
F8F8
3060
3060
1860
18C0
18C0
0D80
0D80
0F80
0700
0700
ENDCHAR
STARTCHAR C021527
ENCODING 9047
SWIDTH 1800 0
DWIDTH 18 0
BBX 19 12 0 0
BITMAP
FFF7E0
30C180
306180
18E300
18E300
19B300
0DB600
0DB600
0F1E00
071C00
071C00
060C20
ENDCHAR
STARTCHAR C021530
ENCODING 9048
SWIDTH 1800 0
DWIDTH 18 0
BBX 12 12 3 0
BITMAP
FDF0
38C0
18C0
0D80
0F00
0600
0F00
0D80
1980
30C0
3060
F9F0
ENDCHAR
STARTCHAR C021531
ENCODING 9049
SWIDTH 1800 0
DWIDTH 18 0
BBX 13 12 3 0
BITMAP
FCF8
3030
1860
18C0
0D80
0780
0700
0300
0300
0300
0300
0FC0
ENDCHAR
STARTCHAR C021532
ENCODING 9050
SWIDTH 1800 0
DWIDTH 18 0
BBX 10 12 5 0
BITMAP
7F80
C180
0300
0600
0600
0C00
1800
3000
3000
60C0
C180
FF80
ENDCHAR
STARTCHAR C021533
ENCODING 9051
SWIDTH 1800 0
DWIDTH 18 0
BBX 4 17 13 -3
BITMAP
F0
C0
C0
C0
C0
C0
C0
C0
C0
C0
C0
C0
C0
C0
C0
C0
F0
ENDCHAR
STARTCHAR C021534
ENCODING 9052
SWIDTH 1800 0
DWIDTH 18 0
BBX 17 13 1 -1
BITMAP
07EF80
618300
618300
61C600
FFFF80
33C600
33EC00
FFFF80
1E6C00
1E7800
1E3800
0C3800
0C3000
ENDCHAR
STARTCHAR C021535
ENCODING 9053
SWIDTH 1800 0
DWIDTH 18 0
BBX 5 17 1 -3
BITMAP
F8
18
18
18
18
18
18
18
18
18
18
18
18
18
18
18
F8
ENDCHAR
STARTCHAR C021536
ENCODING 9054
SWIDTH 1800 0
DWIDTH 18 0
BBX 7 3 6 11
BITMAP
38
7C
C6
ENDCHAR
STARTCHAR C021537
ENCODING 9055
SWIDTH 1800 0
DWIDTH 18 0
BBX 17 1 1 -3
BITMAP
FFFF80
ENDCHAR
STARTCHAR C021540
ENCODING 9056
SWIDTH 1800 0
DWIDTH 18 0
BBX 5 7 7 7
BITMAP
E0
60
70
30
30
18
18
ENDCHAR
STARTCHAR C021541
ENCODING 9057
SWIDTH 1800 0
DWIDTH 18 0
BBX 8 9 6 -1
BITMAP
FC
C6
06
1E
76
C6
C6
FF
30
ENDCHAR
STARTCHAR C021542
ENCODING 9058
SWIDTH 1800 0
DWIDTH 18 0
BBX 9 13 5 -1
BITMAP
E000
6000
6000
6000
7F00
7300
6180
6180
6180
6180
6300
7700
1C00
ENDCHAR
STARTCHAR C021543
ENCODING 9059
SWIDTH 1800 0
DWIDTH 18 0
BBX 9 9 5 -1
BITMAP
3F00
6300
6000
C000
C000
E000
6180
3700
1C00
ENDCHAR
STARTCHAR C021544
ENCODING 9060
SWIDTH 1800 0
DWIDTH 18 0
BBX 9 13 5 -1
BITMAP
0F00
0300
0300
0300
3F00
6300
C300
C300
C300
C300
E300
7F80
1800
ENDCHAR
STARTCHAR C021545
ENCODING 9061
SWIDTH 1800 0
DWIDTH 18 0
BBX 9 10 5 -1
BITMAP
3E00
7300
6180
E180
FF80
C000
C000
C000
6300
3E00
ENDCHAR
STARTCHAR C021546
ENCODING 9062
SWIDTH 1800 0
DWIDTH 18 0
BBX 7 13 6 0
BITMAP
0E
1E
30
30
30
FC
30
30
30
30
30
30
FC
ENDCHAR
STARTCHAR C021547
ENCODING 9063
SWIDTH 1800 0
DWIDTH 18 0
BBX 10 11 4 -3
BITMAP
3FC0
7300
6180
6180
6300
3600
7C00
3F00
61C0
E1C0
7F80
ENDCHAR
STARTCHAR C021550
ENCODING 9064
SWIDTH 1800 0
DWIDTH 18 0
BBX 9 12 5 0
BITMAP
E000
6000
6000
6000
7E00
7300
6300
6300
6300
6300
6300
F380
ENDCHAR
STARTCHAR C021551
ENCODING 9065
SWIDTH 1800 0
DWIDTH 18 0
BBX 4 13 7 0
BITMAP
60
60
00
00
60
E0
60
60
60
60
60
60
F0
ENDCHAR
STARTCHAR C021552
ENCODING 9066
SWIDTH 1800 0
DWIDTH 18 0
BBX 4 16 7 -3
BITMAP
30
30
00
00
00
70
30
30
30
30
30
30
30
30
E0
C0
ENDCHAR
STARTCHAR C021553
ENCODING 9067
SWIDTH 1800 0
DWIDTH 18 0
BBX 9 12 5 0
BITMAP
E000
6000
6000
6000
6F80
6300
6E00
7800
7C00
6600
6300
7380
ENDCHAR
STARTCHAR C021554
ENCODING 9068
SWIDTH 1800 0
DWIDTH 18 0
BBX 5 12 7 0
BITMAP
F0
30
30
30
30
30
30
30
30
30
30
78
ENDCHAR
STARTCHAR C021555
ENCODING 9069
SWIDTH 1800 0
DWIDTH 18 0
BBX 15 9 2 0
BITMAP
6E78
FBCC
618C
618C
618C
618C
618C
618C
F3DE
ENDCHAR
STARTCHAR C021556
ENCODING 9070
SWIDTH 1800 0
DWIDTH 18 0
BBX 9 9 5 0
BITMAP
6E00
7B00
6300
6300
6300
6300
6300
6300
F780
ENDCHAR
STARTCHAR C021557
ENCODING 9071
SWIDTH 1800 0
DWIDTH 18 0
BBX 9 9 5 -1
BITMAP
3E00
6300
C180
C180
C180
C180
C180
6300
3E00
ENDCHAR
STARTCHAR C021560
ENCODING 9072
SWIDTH 1800 0
DWIDTH 18 0
BBX 9 11 5 -3
BITMAP
FE00
6300
6180
6180
6180
6180
6300
7700
7C00
6000
F000
ENDCHAR
STARTCHAR C021561
ENCODING 9073
SWIDTH 1800 0
DWIDTH 18 0
BBX 9 12 5 -3
BITMAP
1800
7F00
E300
C300
C300
C300
C300
C300
7F00
1B00
0300
0F80
ENDCHAR
STARTCHAR C021562
ENCODING 9074
SWIDTH 1800 0
DWIDTH 18 0
BBX 7 8 6 0
BITMAP
FE
70
60
60
60
60
60
F0
ENDCHAR
STARTCHAR C021563
ENCODING 9075
SWIDTH 1800 0
DWIDTH 18 0
BBX 7 9 6 -1
BITMAP
FE
C6
E0
7C
0E
06
C6
7C
18
ENDCHAR
STARTCHAR C021564
ENCODING 9076
SWIDTH 1800 0
DWIDTH 18 0
BBX 6 12 7 -1
BITMAP
60
60
60
FC
60
60
60
60
60
60
6C
38
ENDCHAR
STARTCHAR C021565
ENCODING 9077
SWIDTH 1800 0
DWIDTH 18 0
BBX 9 8 5 0
BITMAP
E700
6300
6300
6300
6300
6300
6300
7F80
ENDCHAR
STARTCHAR C021566
ENCODING 9078
SWIDTH 1800 0
DWIDTH 18 0
BBX 9 8 5 0
BITMAP
F380
6300
3300
3600
1E00
1C00
1C00
0C00
ENDCHAR
STARTCHAR C021567
ENCODING 9079
SWIDTH 1800 0
DWIDTH 18 0
BBX 13 8 3 0
BITMAP
F738
6330
6330
37E0
3DE0
1DE0
18C0
00C0
ENDCHAR
STARTCHAR C021570
ENCODING 9080
SWIDTH 1800 0
DWIDTH 18 0
BBX 11 8 4 0
BITMAP
7BC0
3180
1B00
0E00
1E00
3300
6180
FBE0
ENDCHAR
STARTCHAR C021571
ENCODING 9081
SWIDTH 1800 0
DWIDTH 18 0
BBX 9 11 5 -3
BITMAP
F380
6300
7300
3600
3600
3C00
1C00
1800
1800
1800
F000
ENDCHAR
STARTCHAR C021572
ENCODING 9082
SWIDTH 1800 0
DWIDTH 18 0
BBX 8 9 6 -1
BITMAP
7E
CE
0C
18
30
63
66
DE
70
ENDCHAR
STARTCHAR C021573
ENCODING 9083
SWIDTH 1800 0
DWIDTH 18 0
BBX 5 17 12 -3
BITMAP
18
30
30
30
30
30
30
60
E0
30
30
30
30
30
30
30
18
ENDCHAR
STARTCHAR C021574
ENCODING 9084
SWIDTH 1800 0
DWIDTH 18 0
BBX 0 0 0 0
BITMAP
ENDCHAR
STARTCHAR C021575
ENCODING 9085
SWIDTH 1800 0
DWIDTH 18 0
BBX 5 16 2 -3
BITMAP
C0
60
60
60
60
60
60
38
60
60
60
60
60
60
60
C0
ENDCHAR
STARTCHAR C021576
ENCODING 9086
SWIDTH 1800 0
DWIDTH 18 0
BBX 7 1 6 12
BITMAP
FE
ENDCHAR
STARTCHAR C021577
ENCODING 9087
SWIDTH 1800 0
DWIDTH 18 0
BBX 0 0 0 0
BITMAP
ENDCHAR
STARTCHAR C022040
ENCODING 9248
SWIDTH 1800 0
DWIDTH 18 0
BBX 1 1 18 9
BITMAP
80
ENDCHAR
STARTCHAR C022041
ENCODING 9249
SWIDTH 1800 0
DWIDTH 18 0
BBX 12 9 3 1
BITMAP
FFF0
7030
0030
0030
0030
0030
0030
0030
0030
ENDCHAR
STARTCHAR C022042
ENCODING 9250
SWIDTH 1800 0
DWIDTH 18 0
BBX 14 9 2 1
BITMAP
FEFC
060C
060C
060C
060C
060C
060C
060C
060C
ENDCHAR
STARTCHAR C022043
ENCODING 9251
SWIDTH 1800 0
DWIDTH 18 0
BBX 14 9 3 1
BITMAP
FCE0
0C60
0C60
0CE0
0CE0
0DF0
0D98
0F0C
0E0C
ENDCHAR
STARTCHAR C022044
ENCODING 9252
SWIDTH 1800 0
DWIDTH 18 0
BBX 13 7 3 2
BITMAP
E000
6000
6000
6000
6000
6038
3FF8
ENDCHAR
STARTCHAR C022045
ENCODING 9253
SWIDTH 1800 0
DWIDTH 18 0
BBX 15 9 2 1
BITMAP
E3FE
61F0
6038
6030
6070
6378
6ECE
7986
0306
ENDCHAR
STARTCHAR C022046
ENCODING 9254
SWIDTH 1800 0
DWIDTH 18 0
BBX 16 10 2 0
BITMAP
C078
6007
63FF
6030
60F8
61CC
678C
7D8C
71DC
00F8
ENDCHAR
STARTCHAR C022047
ENCODING 9255
SWIDTH 1800 0
DWIDTH 18 0
BBX 13 8 3 2
BITMAP
0070
FFF0
6000
6000
6000
6000
6038
7FF8
ENDCHAR
STARTCHAR C022050
ENCODING 9256
SWIDTH 1800 0
DWIDTH 18 0
BBX 15 10 2 1
BITMAP
000C
E0FE
7EC0
60C0
60C0
60C0
60C0
60C0
66C6
7CFE
ENDCHAR
STARTCHAR C022051
ENCODING 9257
SWIDTH 1800 0
DWIDTH 18 0
BBX 13 10 3 1
BITMAP
0030
FFF0
6030
0060
0060
7FF0
6000
6000
6038
7FF8
ENDCHAR
STARTCHAR C022052
ENCODING 9258
SWIDTH 1800 0
DWIDTH 18 0
BBX 14 9 2 1
BITMAP
060C
7EFC
060C
0C0C
FE0C
600C
600C
670C
7C0C
ENDCHAR
STARTCHAR C022053
ENCODING 9259
SWIDTH 1800 0
DWIDTH 18 0
BBX 15 9 2 1
BITMAP
FFFE
06C6
06C6
0CC6
FEC6
60C6
60CC
60FE
7FC0
ENDCHAR
STARTCHAR C022054
ENCODING 9260
SWIDTH 1800 0
DWIDTH 18 0
BBX 15 10 2 1
BITMAP
060E
7F86
06C6
0CC6
FEFE
60C6
60C6
61C6
7FFE
00C6
ENDCHAR
STARTCHAR C022055
ENCODING 9261
SWIDTH 1800 0
DWIDTH 18 0
BBX 15 10 2 1
BITMAP
0660
7E30
0638
0C30
FE30
6070
6078
60CC
7FCE
0186
ENDCHAR
STARTCHAR C022056
ENCODING 9262
SWIDTH 1800 0
DWIDTH 18 0
BBX 16 10 2 1
BITMAP
0006
06FE
7EC0
06C0
0CCC
FEFC
60C0
60C0
61C6
7FFF
ENDCHAR
STARTCHAR C022057
ENCODING 9263
SWIDTH 1800 0
DWIDTH 18 0
BBX 16 10 2 0
BITMAP
FE0E
07F8
060C
078C
FECC
60D8
60D8
6337
7FFF
6000
ENDCHAR
STARTCHAR C022060
ENCODING 9264
SWIDTH 1800 0
DWIDTH 18 0
BBX 16 10 2 0
BITMAP
FEF8
0C06
0FFF
0C30
FCF8
61CC
618C
638C
7FCC
70F8
ENDCHAR
STARTCHAR C022061
ENCODING 9265
SWIDTH 1800 0
DWIDTH 18 0
BBX 13 9 3 1
BITMAP
FFF8
6030
6030
6030
6030
6060
6060
7FF0
6000
ENDCHAR
STARTCHAR C022062
ENCODING 9266
SWIDTH 1800 0
DWIDTH 18 0
BBX 10 11 4 0
BITMAP
01C0
E0C0
60C0
60C0
7FC0
60C0
60C0
60C0
60C0
7FC0
00C0
ENDCHAR
STARTCHAR C022063
ENCODING 9267
SWIDTH 1800 0
DWIDTH 18 0
BBX 15 11 2 0
BITMAP
000E
0EC6
E6C6
66C6
66FE
7EC6
66C6
66C6
66C6
7EFE
66C6
ENDCHAR
STARTCHAR C022064
ENCODING 9268
SWIDTH 1800 0
DWIDTH 18 0
BBX 15 11 2 0
BITMAP
0760
E338
6330
6330
7F70
6370
6378
63CC
638E
7F06
6000
ENDCHAR
STARTCHAR C022065
ENCODING 9269
SWIDTH 1800 0
DWIDTH 18 0
BBX 13 9 3 1
BITMAP
0700
0300
0700
0700
0DC0
1860
3038
6018
C018
ENDCHAR
STARTCHAR C022066
ENCODING 9270
SWIDTH 1800 0
DWIDTH 18 0
BBX 15 9 2 1
BITMAP
0C30
0E38
0C30
1C60
1F70
33D8
618C
C306
0606
ENDCHAR
STARTCHAR C022067
ENCODING 9271
SWIDTH 1800 0
DWIDTH 18 0
BBX 11 10 4 1
BITMAP
0600
3F80
71C0
C060
C060
C060
C060
C060
71C0
3F80
ENDCHAR
STARTCHAR C022070
ENCODING 9272
SWIDTH 1800 0
DWIDTH 18 0
BBX 12 9 4 2
BITMAP
00E0
FFE0
6600
0600
0E00
1F00
39C0
6070
C030
ENDCHAR
STARTCHAR C022071
ENCODING 9273
SWIDTH 1800 0
DWIDTH 18 0
BBX 17 8 1 2
BITMAP
7FFF00
061800
061800
0E3800
1E3C00
3BE600
61C300
C18180
ENDCHAR
STARTCHAR C022072
ENCODING 9274
SWIDTH 1800 0
DWIDTH 18 0
BBX 13 10 3 0
BITMAP
0FC0
0000
FFF8
7300
0700
0700
0DC0
3870
6018
C000
ENDCHAR
STARTCHAR C022073
ENCODING 9275
SWIDTH 1800 0
DWIDTH 18 0
BBX 12 11 3 0
BITMAP
0030
7FF0
3830
0030
0070
07F0
FC30
0030
0060
0060
0060
ENDCHAR
STARTCHAR C022074
ENCODING 9276
SWIDTH 1800 0
DWIDTH 18 0
BBX 13 9 3 1
BITMAP
FFF0
6000
6000
6000
7FF0
6000
6000
6038
7FF8
ENDCHAR
STARTCHAR C022075
ENCODING 9277
SWIDTH 1800 0
DWIDTH 18 0
BBX 15 9 2 1
BITMAP
003C
7FFC
3070
1860
0C60
0C60
0CCC
03FE
FE00
ENDCHAR
STARTCHAR C022076
ENCODING 9278
SWIDTH 1800 0
DWIDTH 18 0
BBX 15 10 2 0
BITMAP
07E0
000C
FFFE
0180
0FC0
1870
1830
1830
1C70
07E0
ENDCHAR
STARTCHAR C022077
ENCODING 9279
SWIDTH 1800 0
DWIDTH 18 0
BBX 8 15 6 -2
BITMAP
F0
30
30
30
30
30
33
3F
30
30
30
30
30
30
30
ENDCHAR
STARTCHAR C022100
ENCODING 9280
SWIDTH 1800 0
DWIDTH 18 0
BBX 8 15 6 -2
BITMAP
CF
63
63
63
63
63
63
7F
63
63
63
63
63
63
03
ENDCHAR
STARTCHAR C022101
ENCODING 9281
SWIDTH 1800 0
DWIDTH 18 0
BBX 8 15 6 -2
BITMAP
F0
30
30
30
37
3F
30
30
33
3F
30
30
30
30
30
ENDCHAR
STARTCHAR C022102
ENCODING 9282
SWIDTH 1800 0
DWIDTH 18 0
BBX 7 15 6 -2
BITMAP
EE
66
66
66
7E
66
66
66
7E
66
66
66
66
66
06
ENDCHAR
STARTCHAR C022103
ENCODING 9283
SWIDTH 1800 0
DWIDTH 18 0
BBX 8 15 5 -2
BITMAP
07
03
03
03
03
03
FF
03
03
03
03
03
03
03
03
ENDCHAR
STARTCHAR C022104
ENCODING 9284
SWIDTH 1800 0
DWIDTH 18 0
BBX 11 15 3 -2
BITMAP
01E0
0E60
0660
0660
0660
0660
0660
FE60
0660
0660
0660
0660
0660
0660
0060
ENDCHAR
STARTCHAR C022105
ENCODING 9285
SWIDTH 1800 0
DWIDTH 18 0
BBX 8 15 5 -2
BITMAP
07
03
03
03
FF
63
03
03
03
FF
03
03
03
03
03
ENDCHAR
STARTCHAR C022106
ENCODING 9286
SWIDTH 1800 0
DWIDTH 18 0
BBX 11 15 3 -2
BITMAP
0DE0
0660
0660
0660
FE60
6660
0660
0660
0660
7E60
0660
0660
0660
0660
0060
ENDCHAR
STARTCHAR C022107
ENCODING 9287
SWIDTH 1800 0
DWIDTH 18 0
BBX 16 8 2 2
BITMAP
0380
0180
0180
0180
0180
0180
0186
FFFF
ENDCHAR
STARTCHAR C022110
ENCODING 9288
SWIDTH 1800 0
DWIDTH 18 0
BBX 17 15 1 -2
BITMAP
007800
001800
001800
1E1800
061800
061800
061800
061F80
061800
07F800
FF1800
001800
001800
001800
001800
ENDCHAR
STARTCHAR C022111
ENCODING 9289
SWIDTH 1800 0
DWIDTH 18 0
BBX 14 16 2 -2
BITMAP
0038
000C
01CC
00CC
18CC
18CC
18CC
18CC
18FC
18CC
1FCC
F8CC
00CC
00CC
00CC
000C
ENDCHAR
STARTCHAR C022112
ENCODING 9290
SWIDTH 1800 0
DWIDTH 18 0
BBX 13 15 2 -2
BITMAP
0038
0018
0018
0E18
0618
0618
0618
0618
0638
07F8
FF18
0018
0018
0018
0018
ENDCHAR
STARTCHAR C022113
ENCODING 9291
SWIDTH 1800 0
DWIDTH 18 0
BBX 16 8 2 2
BITMAP
0070
1C30
0C30
0C30
0C30
0C60
0C60
FFFF
ENDCHAR
STARTCHAR C022114
ENCODING 9292
SWIDTH 1800 0
DWIDTH 18 0
BBX 17 12 1 -2
BITMAP
000380
FFFF80
38C000
00C000
00C000
00C000
00C000
00C000
00C000
00C000
00C000
00C000
ENDCHAR
STARTCHAR C022115
ENCODING 9293
SWIDTH 1800 0
DWIDTH 18 0
BBX 13 15 2 -2
BITMAP
0038
0018
0018
0018
01D8
FF18
0618
0638
06F8
0618
0618
0618
0618
0018
0018
ENDCHAR
STARTCHAR C022116
ENCODING 9294
SWIDTH 1800 0
DWIDTH 18 0
BBX 14 15 2 -2
BITMAP
001C
00EC
006C
006C
006C
1F6C
FC6C
0CEC
0DEC
0C6C
0C6C
0C6C
006C
000C
000C
ENDCHAR
STARTCHAR C022117
ENCODING 9295
SWIDTH 1800 0
DWIDTH 18 0
BBX 13 15 2 -2
BITMAP
0038
0018
0018
0018
0038
CFF8
7E18
0618
0618
0618
0618
0618
0618
0018
0018
ENDCHAR
STARTCHAR C022120
ENCODING 9296
SWIDTH 1800 0
DWIDTH 18 0
BBX 16 13 2 -3
BITMAP
000F
FFFF
7C60
0C60
0C60
0C60
0C60
0C60
0C60
0C60
0C60
0C60
0C00
ENDCHAR
STARTCHAR C022121
ENCODING 9297
SWIDTH 1800 0
DWIDTH 18 0
BBX 16 2 2 5
BITMAP
000F
FFFF
ENDCHAR
STARTCHAR C022122
ENCODING 9298
SWIDTH 1800 0
DWIDTH 18 0
BBX 13 15 2 -2
BITMAP
0038
0018
0018
0018
0018
0018
0018
0078
07D8
FC18
0018
0018
0018
0018
0018
ENDCHAR
STARTCHAR C022123
ENCODING 9299
SWIDTH 1800 0
DWIDTH 18 0
BBX 3 15 8 -2
BITMAP
E0
60
60
60
60
60
60
60
60
60
60
60
60
60
60
ENDCHAR
STARTCHAR C022124
ENCODING 9300
SWIDTH 1800 0
DWIDTH 18 0
BBX 0 0 0 0
BITMAP
ENDCHAR
STARTCHAR C022125
ENCODING 9301
SWIDTH 1800 0
DWIDTH 18 0
BBX 15 8 3 2
BITMAP
0180
C180
C180
C180
C180
C180
CD80
F9FE
ENDCHAR
STARTCHAR C022126
ENCODING 9302
SWIDTH 1800 0
DWIDTH 18 0
BBX 16 10 2 1
BITMAP
018C
00FE
E0C0
60C0
60C0
60C0
60C0
66C0
7CC6
70FF
ENDCHAR
STARTCHAR C022127
ENCODING 9303
SWIDTH 1800 0
DWIDTH 18 0
BBX 15 9 2 1
BITMAP
E070
6070
6060
6060
60F0
61D8
6D8C
7B0E
0600
ENDCHAR
STARTCHAR C022130
ENCODING 9304
SWIDTH 1800 0
DWIDTH 18 0
BBX 15 9 2 1
BITMAP
E070
6070
6070
60D8
60D8
61CC
678C
7D86
73FE
ENDCHAR
STARTCHAR C022131
ENCODING 9305
SWIDTH 1800 0
DWIDTH 18 0
BBX 15 9 2 1
BITMAP
FF98
1998
1998
1998
71B8
61BC
61E6
67C6
7DC0
ENDCHAR
STARTCHAR C022132
ENCODING 9306
SWIDTH 1800 0
DWIDTH 18 0
BBX 16 9 2 2
BITMAP
000E
FFFE
06C0
0CC0
FEC0
60C0
60C0
60C6
7EFF
ENDCHAR
STARTCHAR C022133
ENCODING 9307
SWIDTH 1800 0
DWIDTH 18 0
BBX 16 10 2 0
BITMAP
FCFC
1F6C
1B6C
DB6C
73F8
637C
6376
6F77
7BE3
03C0
ENDCHAR
STARTCHAR C022134
ENCODING 9308
SWIDTH 1800 0
DWIDTH 18 0
BBX 15 9 2 1
BITMAP
FF30
0638
0638
0678
7E6C
60CC
60C6
67C6
7DFE
ENDCHAR
STARTCHAR C022135
ENCODING 9309
SWIDTH 1800 0
DWIDTH 18 0
BBX 16 10 2 0
BITMAP
FE06
67FF
0600
0C38
FE7C
60C6
60C6
63C6
7E7C
7000
ENDCHAR
STARTCHAR C022136
ENCODING 9310
SWIDTH 1800 0
DWIDTH 18 0
BBX 14 10 3 0
BITMAP
031C
FF8C
CD8C
CD8C
CDFC
CD8C
CD8C
CD8C
FDFC
C00C
ENDCHAR
STARTCHAR C022137
ENCODING 9311
SWIDTH 1800 0
DWIDTH 18 0
BBX 14 9 3 1
BITMAP
00C0
FE60
CC60
CCE0
CCE0
CDB0
CD98
FF1C
C60C
ENDCHAR
STARTCHAR C022140
ENCODING 9312
SWIDTH 1800 0
DWIDTH 18 0
BBX 14 9 3 1
BITMAP
00E0
FE60
CCF0
CCF0
CCF0
CD98
CD98
CF0C
FFFC
ENDCHAR
STARTCHAR C022141
ENCODING 9313
SWIDTH 1800 0
DWIDTH 18 0
BBX 10 12 4 -1
BITMAP
FFC0
60C0
6180
6180
7FC0
6000
3F80
71C0
60C0
60C0
71C0
1F80
ENDCHAR
STARTCHAR C022142
ENCODING 9314
SWIDTH 1800 0
DWIDTH 18 0
BBX 14 10 2 0
BITMAP
0E0C
E6FC
660C
660C
7E0C
660C
660C
660C
7E0C
0600
ENDCHAR
STARTCHAR C022143
ENCODING 9315
SWIDTH 1800 0
DWIDTH 18 0
BBX 15 10 2 0
BITMAP
0FFC
E6C0
66C0
66C0
7EC0
66C0
66C0
66CE
7EFE
6600
ENDCHAR
STARTCHAR C022144
ENCODING 9316
SWIDTH 1800 0
DWIDTH 18 0
BBX 15 10 2 0
BITMAP
1CC6
CCDE
CCC6
CCC6
FDC6
CDE6
CF36
CE36
FC06
C000
ENDCHAR
STARTCHAR C022145
ENCODING 9317
SWIDTH 1800 0
DWIDTH 18 0
BBX 15 9 2 1
BITMAP
198E
D9B8
D9B0
F9B0
DBB0
DBF0
DEF0
DE70
FC1E
ENDCHAR
STARTCHAR C022146
ENCODING 9318
SWIDTH 1800 0
DWIDTH 18 0
BBX 15 11 2 0
BITMAP
000C
EFFE
6630
6630
7E70
6670
66D8
66CC
6786
7F06
6000
ENDCHAR
STARTCHAR C022147
ENCODING 9319
SWIDTH 1800 0
DWIDTH 18 0
BBX 14 11 3 0
BITMAP
0038
1FF8
CF00
CF00
CF30
FFF0
CF00
CF00
CF18
FFFC
C000
ENDCHAR
STARTCHAR C022150
ENCODING 9320
SWIDTH 1800 0
DWIDTH 18 0
BBX 10 15 5 -2
BITMAP
01C0
C0C0
C0C0
FFC0
C0C0
C0C0
C0C0
FFC0
C0C0
3F00
6380
C180
C180
6380
3F00
ENDCHAR
STARTCHAR C022151
ENCODING 9321
SWIDTH 1800 0
DWIDTH 18 0
BBX 12 15 3 -2
BITMAP
0070
EDB0
6DB0
7DF0
6DB0
6DB0
7DF0
6180
0000
0FC0
18E0
3060
3060
18E0
0FC0
ENDCHAR
STARTCHAR C022152
ENCODING 9322
SWIDTH 1800 0
DWIDTH 18 0
BBX 14 9 2 1
BITMAP
0C0C
0EFC
0C0C
0C0C
1C0C
3E0C
330C
618C
C18C
ENDCHAR
STARTCHAR C022153
ENCODING 9323
SWIDTH 1800 0
DWIDTH 18 0
BBX 15 9 2 1
BITMAP
1DC0
0CC0
1CC0
18C0
1CC0
36C0
67C0
C3CE
00FE
ENDCHAR
STARTCHAR C022154
ENCODING 9324
SWIDTH 1800 0
DWIDTH 18 0
BBX 16 10 1 1
BITMAP
0006
0E7F
0660
0C60
0C60
1E60
1F60
33E0
61E3
C07F
ENDCHAR
STARTCHAR C022155
ENCODING 9325
SWIDTH 1800 0
DWIDTH 18 0
BBX 15 10 1 1
BITMAP
000E
0EE6
0666
0E66
0C7E
1E66
1B66
33E6
61FE
C066
ENDCHAR
STARTCHAR C022156
ENCODING 9326
SWIDTH 1800 0
DWIDTH 18 0
BBX 16 9 1 1
BITMAP
0FFF
0E18
0C18
0C18
1C38
1F3C
3366
61C3
C003
ENDCHAR
STARTCHAR C022157
ENCODING 9327
SWIDTH 1800 0
DWIDTH 18 0
BBX 12 10 4 1
BITMAP
0C00
0600
0E00
1F00
1980
3180
30C0
60C0
C060
FFF0
ENDCHAR
STARTCHAR C022160
ENCODING 9328
SWIDTH 1800 0
DWIDTH 18 0
BBX 15 8 2 1
BITMAP
7C78
E6CC
C6C6
C6C6
C6C6
C6C6
E6CE
7C7C
ENDCHAR
STARTCHAR C022161
ENCODING 9329
SWIDTH 1800 0
DWIDTH 18 0
BBX 9 10 5 1
BITMAP
1C00
0C00
0C00
7E00
E380
C180
C180
C180
6380
3E00
ENDCHAR
STARTCHAR C022162
ENCODING 9330
SWIDTH 1800 0
DWIDTH 18 0
BBX 15 10 2 1
BITMAP
3800
1830
7C30
EE30
C670
C670
C6F8
C6CC
EF86
7F06
ENDCHAR
STARTCHAR C022163
ENCODING 9331
SWIDTH 1800 0
DWIDTH 18 0
BBX 15 10 2 1
BITMAP
1860
1830
7C70
EE78
C678
C6CC
C6CC
C786
EF86
7DFE
ENDCHAR
STARTCHAR C022164
ENCODING 9332
SWIDTH 1800 0
DWIDTH 18 0
BBX 12 14 4 -2
BITMAP
FFE0
01C0
3180
1980
1B00
FFF0
0000
1F00
3180
60C0
60C0
60C0
31C0
1F80
ENDCHAR
STARTCHAR C022165
ENCODING 9333
SWIDTH 1800 0
DWIDTH 18 0
BBX 17 11 1 0
BITMAP
1E3E00
000000
038380
FFFF80
000000
0C0C00
3E3E00
636300
636300
777700
3E3E00
ENDCHAR
STARTCHAR C022166
ENCODING 9334
SWIDTH 1800 0
DWIDTH 18 0
BBX 13 11 3 0
BITMAP
0038
FFF8
0000
0000
0F80
18C0
3060
3060
3060
18C0
0F80
ENDCHAR
STARTCHAR C022167
ENCODING 9335
SWIDTH 1800 0
DWIDTH 18 0
BBX 16 15 2 -2
BITMAP
0078
0018
0018
0198
3998
199F
1998
1998
1998
19FF
FF1C
0018
0018
0018
0018
ENDCHAR
STARTCHAR C022170
ENCODING 9336
SWIDTH 1800 0
DWIDTH 18 0
BBX 14 15 2 -2
BITMAP
073C
019C
0DDC
07FC
77FC
37EC
37EC
37EC
37FC
3FEC
F1EC
01EC
01EC
01CC
000C
ENDCHAR
STARTCHAR C022171
ENCODING 9337
SWIDTH 1800 0
DWIDTH 18 0
BBX 13 15 2 -2
BITMAP
0078
0018
0018
0398
3198
1998
1998
1998
1998
19F8
FF18
0018
0018
0018
0018
ENDCHAR
STARTCHAR C022172
ENCODING 9338
SWIDTH 1800 0
DWIDTH 18 0
BBX 13 15 2 -2
BITMAP
0078
0018
0018
0018
01D8
FF18
1B18
1BF8
1B18
1B38
1BF8
1B18
0318
0018
0018
ENDCHAR
STARTCHAR C022173
ENCODING 9339
SWIDTH 1800 0
DWIDTH 18 0
BBX 15 15 1 -2
BITMAP
001E
0076
0036
0036
0036
07B6
FF36
1BF6
1B36
1BF6
1B36
1B36
0036
0006
0006
ENDCHAR
STARTCHAR C022174
ENCODING 9340
SWIDTH 1800 0
DWIDTH 18 0
BBX 12 15 3 -2
BITMAP
00F0
0030
0030
0030
0030
0FF0
FB30
1B30
1B30
1B30
1B30
1B30
1B30
0030
0030
ENDCHAR
STARTCHAR C022175
ENCODING 9341
SWIDTH 1800 0
DWIDTH 18 0
BBX 4 3 8 4
BITMAP
E0
F0
E0
ENDCHAR
STARTCHAR C022176
ENCODING 9342
SWIDTH 1800 0
DWIDTH 18 0
BBX 10 15 5 -2
BITMAP
03C0
00C0
00C0
00C0
00C0
E0C0
F0C0
E0C0
00C0
00C0
00C0
00C0
00C0
00C0
00C0
ENDCHAR
STARTCHAR C022177
ENCODING 9343
SWIDTH 1800 0
DWIDTH 18 0
BBX 0 0 0 0
BITMAP
ENDCHAR
STARTCHAR C022440
ENCODING 9504
SWIDTH 1800 0
DWIDTH 18 0
BBX 1 14 18 -4
BITMAP
80
00
00
80
00
80
80
00
00
00
00
00
00
80
ENDCHAR
STARTCHAR C022441
ENCODING 9505
SWIDTH 1800 0
DWIDTH 18 0
BBX 4 13 8 0
BITMAP
60
60
00
00
00
E0
60
60
60
60
60
60
F0
ENDCHAR
STARTCHAR C022442
ENCODING 9506
SWIDTH 1800 0
DWIDTH 18 0
BBX 9 12 5 0
BITMAP
6300
0000
0000
0000
E700
6300
6300
6300
6300
6300
6300
F780
ENDCHAR
STARTCHAR C022443
ENCODING 9507
SWIDTH 1800 0
DWIDTH 18 0
BBX 12 12 3 0
BITMAP
6330
0000
0000
0000
E770
6330
6330
6330
6330
6330
6330
E330
ENDCHAR
STARTCHAR C022444
ENCODING 9508
SWIDTH 1800 0
DWIDTH 18 0
BBX 12 13 4 0
BITMAP
6000
6000
0000
0000
0000
EC70
6C60
66C0
66C0
67C0
6380
6380
6000
ENDCHAR
STARTCHAR C022445
ENCODING 9509
SWIDTH 1800 0
DWIDTH 18 0
BBX 8 8 6 0
BITMAP
E7
E6
66
7C
3C
3C
18
18
ENDCHAR
STARTCHAR C022446
ENCODING 9510
SWIDTH 1800 0
DWIDTH 18 0
BBX 11 13 4 0
BITMAP
0060
0060
0000
0000
0000
E7E0
E660
6C60
6C60
3C60
3860
3860
18E0
ENDCHAR
STARTCHAR C022447
ENCODING 9511
SWIDTH 1800 0
DWIDTH 18 0
BBX 13 13 3 0
BITMAP
00D8
00D8
0000
0000
0000
C7F8
CCD8
6CD8
78D8
78D8
38D8
30D8
31D8
ENDCHAR
STARTCHAR C022450
ENCODING 9512
SWIDTH 1800 0
DWIDTH 18 0
BBX 15 14 2 -1
BITMAP
01B6
01B6
0000
0000
0000
E7FE
EDB6
6DB6
6DB6
79B6
39B6
39B6
31B6
00FC
ENDCHAR
STARTCHAR C022451
ENCODING 9513
SWIDTH 1800 0
DWIDTH 18 0
BBX 14 13 3 0
BITMAP
3000
3000
0000
0000
3000
3FF8
3330
33E0
31C0
31C0
3360
3630
FF7C
ENDCHAR
STARTCHAR C022452
ENCODING 9514
SWIDTH 1800 0
DWIDTH 18 0
BBX 11 8 4 0
BITMAP
7BC0
3B00
1E00
0C00
0E00
1B00
3380
F3E0
ENDCHAR
STARTCHAR C022453
ENCODING 9515
SWIDTH 1800 0
DWIDTH 18 0
BBX 0 0 0 0
BITMAP
ENDCHAR
STARTCHAR C022454
ENCODING 9516
SWIDTH 1800 0
DWIDTH 18 0
BBX 0 0 0 0
BITMAP
ENDCHAR
STARTCHAR C022455
ENCODING 9517
SWIDTH 1800 0
DWIDTH 18 0
BBX 0 0 0 0
BITMAP
ENDCHAR
STARTCHAR C022456
ENCODING 9518
SWIDTH 1800 0
DWIDTH 18 0
BBX 0 0 0 0
BITMAP
ENDCHAR
STARTCHAR C022457
ENCODING 9519
SWIDTH 1800 0
DWIDTH 18 0
BBX 1 14 18 -4
BITMAP
80
00
00
80
00
80
80
00
00
00
00
00
00
80
ENDCHAR
STARTCHAR C022460
ENCODING 9520
SWIDTH 1800 0
DWIDTH 18 0
BBX 6 12 6 0
BITMAP
FC
30
30
30
30
30
30
30
30
30
30
FC
ENDCHAR
STARTCHAR C022461
ENCODING 9521
SWIDTH 1800 0
DWIDTH 18 0
BBX 12 12 4 0
BITMAP
FFF0
30C0
30C0
30C0
30C0
30C0
30C0
30C0
30C0
30C0
30C0
7FF0
ENDCHAR
STARTCHAR C022462
ENCODING 9522
SWIDTH 1800 0
DWIDTH 18 0
BBX 15 13 2 -1
BITMAP
7FFC
3198
3198
3198
3198
3198
3198
3198
3198
3198
3198
FFFE
0060
ENDCHAR
STARTCHAR C022463
ENCODING 9523
SWIDTH 1800 0
DWIDTH 18 0
BBX 15 12 2 0
BITMAP
7F0E
370C
330C
3318
3398
3198
31B0
31F0
30F0
30E0
30E0
F860
ENDCHAR
STARTCHAR C022464
ENCODING 9524
SWIDTH 1800 0
DWIDTH 18 0
BBX 13 12 3 0
BITMAP
FCF8
7070
3060
3060
18C0
18C0
1CC0
0D80
0D80
0F00
0700
0700
ENDCHAR
STARTCHAR C022465
ENCODING 9525
SWIDTH 1800 0
DWIDTH 18 0
BBX 14 12 2 0
BITMAP
F1FC
6198
6198
3198
3318
3318
3B18
1E18
1E18
1C18
0C18
0C3C
ENDCHAR
STARTCHAR C022466
ENCODING 9526
SWIDTH 1800 0
DWIDTH 18 0
BBX 17 13 1 -1
BITMAP
FDFF80
70F300
31B300
31B300
39B300
1B3300
1B3300
1B3300
0E3300
0E3300
0E3300
0E3300
007E00
ENDCHAR
STARTCHAR C022467
ENCODING 9527
SWIDTH 1800 0
DWIDTH 18 0
BBX 16 13 2 -1
BITMAP
E7FE
E6F6
66F6
66F6
66F6
6CF6
7CF6
3CF6
38F6
38F6
38F6
01FF
0060
ENDCHAR
STARTCHAR C022470
ENCODING 9528
SWIDTH 1800 0
DWIDTH 18 0
BBX 15 12 2 0
BITMAP
FF1C
6618
6330
63E0
61C0
61C0
61C0
6360
6370
6630
6C18
FE3E
ENDCHAR
STARTCHAR C022471
ENCODING 9529
SWIDTH 1800 0
DWIDTH 18 0
BBX 13 12 3 0
BITMAP
FCF8
3860
18C0
0D80
0F00
0600
0F00
1980
19C0
30C0
3060
F9F8
ENDCHAR
STARTCHAR C022472
ENCODING 9530
SWIDTH 1800 0
DWIDTH 18 0
BBX 0 0 0 0
BITMAP
ENDCHAR
STARTCHAR C022473
ENCODING 9531
SWIDTH 1800 0
DWIDTH 18 0
BBX 0 0 0 0
BITMAP
ENDCHAR
STARTCHAR C022474
ENCODING 9532
SWIDTH 1800 0
DWIDTH 18 0
BBX 0 0 0 0
BITMAP
ENDCHAR
STARTCHAR C022475
ENCODING 9533
SWIDTH 1800 0
DWIDTH 18 0
BBX 0 0 0 0
BITMAP
ENDCHAR
STARTCHAR C022476
ENCODING 9534
SWIDTH 1800 0
DWIDTH 18 0
BBX 1 14 18 -4
BITMAP
80
00
00
80
00
80
80
00
00
00
00
00
00
80
ENDCHAR
STARTCHAR C022477
ENCODING 9535
SWIDTH 1800 0
DWIDTH 18 0
BBX 0 0 0 0
BITMAP
ENDCHAR
STARTCHAR C022500
ENCODING 9536
SWIDTH 1800 0
DWIDTH 18 0
BBX 1 1 18 0
BITMAP
80
ENDCHAR
STARTCHAR C022501
ENCODING 9537
SWIDTH 1800 0
DWIDTH 18 0
BBX 15 12 2 0
BITMAP
0070
00F0
00F0
01B0
0330
0638
0618
0FF8
1818
3018
3018
F87E
ENDCHAR
STARTCHAR C022502
ENCODING 9538
SWIDTH 1800 0
DWIDTH 18 0
BBX 14 13 2 -1
BITMAP
07F8
060C
060C
060C
0E18
0FF0
0C30
0C18
1818
1818
1830
FCE0
0780
ENDCHAR
STARTCHAR C022503
ENCODING 9539
SWIDTH 1800 0
DWIDTH 18 0
BBX 13 12 3 0
BITMAP
0FF8
0C18
0C18
0C18
0C00
1800
1800
1800
3800
3000
3000
F800
ENDCHAR
STARTCHAR C022504
ENCODING 9540
SWIDTH 1800 0
DWIDTH 18 0
BBX 13 12 3 0
BITMAP
0038
0078
00F0
01B0
0330
0630
0C30
1830
3030
3060
6060
FFE0
ENDCHAR
STARTCHAR C022505
ENCODING 9541
SWIDTH 1800 0
DWIDTH 18 0
BBX 15 12 2 0
BITMAP
07FC
060C
0606
0600
0C60
0FE0
0CC0
18C0
1800
1818
3838
FFF0
ENDCHAR
STARTCHAR C022506
ENCODING 9542
SWIDTH 1800 0
DWIDTH 18 0
BBX 13 12 3 0
BITMAP
0FF8
1C30
1860
00C0
0180
0300
0600
0C00
1800
3060
61C0
FFC0
ENDCHAR
STARTCHAR C022507
ENCODING 9543
SWIDTH 1800 0
DWIDTH 18 0
BBX 16 12 1 0
BITMAP
0F0F
0606
060C
0C0C
0C0C
0FF8
1C18
1818
1830
1830
3030
FDFC
ENDCHAR
STARTCHAR C022510
ENCODING 9544
SWIDTH 1800 0
DWIDTH 18 0
BBX 13 14 3 -1
BITMAP
03C0
0E70
1830
3018
7018
6CD8
6FB8
79B0
D9B0
C060
6060
60C0
3B80
0E00
ENDCHAR
STARTCHAR C022511
ENCODING 9545
SWIDTH 1800 0
DWIDTH 18 0
BBX 8 12 5 0
BITMAP
0F
06
0E
0C
0C
0C
18
18
18
30
30
F8
ENDCHAR
STARTCHAR C022512
ENCODING 9546
SWIDTH 1800 0
DWIDTH 18 0
BBX 17 12 1 0
BITMAP
0FDF80
070E00
061800
063000
0EE000
0FC000
0EC000
186000
186000
183000
383000
FCFC00
ENDCHAR
STARTCHAR C022513
ENCODING 9547
SWIDTH 1800 0
DWIDTH 18 0
BBX 14 12 2 0
BITMAP
0070
00F0
01B0
01B0
0330
0630
0630
0C30
1830
1830
3038
F8FC
ENDCHAR
STARTCHAR C022514
ENCODING 9548
SWIDTH 1800 0
DWIDTH 18 0
BBX 17 12 1 0
BITMAP
070380
070700
0F0F00
0F1F00
0F1E00
1B3600
1B6600
1B6C00
33CC00
338C00
331800
FB7E00
ENDCHAR
STARTCHAR C022515
ENCODING 9549
SWIDTH 1800 0
DWIDTH 18 0
BBX 17 12 1 0
BITMAP
0F0780
070600
0F0C00
0D8C00
0D8C00
0CCC00
18D800
18D800
187800
307000
307000
FC3000
ENDCHAR
STARTCHAR C022516
ENCODING 9550
SWIDTH 1800 0
DWIDTH 18 0
BBX 13 12 3 0
BITMAP
1FF8
3018
3018
0000
1800
1FC0
18C0
00C0
0000
C060
C060
FFC0
ENDCHAR
STARTCHAR C022517
ENCODING 9551
SWIDTH 1800 0
DWIDTH 18 0
BBX 11 14 4 -1
BITMAP
0780
1CC0
3060
7060
6060
E060
C060
C060
C0E0
C0C0
C180
C300
7600
1C00
ENDCHAR
STARTCHAR C022520
ENCODING 9552
SWIDTH 1800 0
DWIDTH 18 0
BBX 15 12 2 0
BITMAP
0FFE
0618
0C18
0C18
0C30
1830
1830
1870
3060
3060
30E0
F9F0
ENDCHAR
STARTCHAR C022521
ENCODING 9553
SWIDTH 1800 0
DWIDTH 18 0
BBX 13 12 3 0
BITMAP
0FF0
0618
0C18
0C18
0C38
1FE0
1800
1800
3000
3000
3000
FC00
ENDCHAR
STARTCHAR C022522
ENCODING 9554
SWIDTH 1800 0
DWIDTH 18 0
BBX 13 12 3 0
BITMAP
0FF8
0C18
0618
0600
0300
0380
0300
0600
0C00
3860
60E0
FFC0
ENDCHAR
STARTCHAR C022523
ENCODING 9555
SWIDTH 1800 0
DWIDTH 18 0
BBX 13 12 3 0
BITMAP
7FF8
6338
C318
0600
0600
0600
0C00
0C00
0C00
1800
1800
7E00
ENDCHAR
STARTCHAR C022524
ENCODING 9556
SWIDTH 1800 0
DWIDTH 18 0
BBX 13 13 3 0
BITMAP
3C78
ECF8
0780
0700
0600
0C00
0C00
0C00
1800
1800
1800
3800
FC00
ENDCHAR
STARTCHAR C022525
ENCODING 9557
SWIDTH 1800 0
DWIDTH 18 0
BBX 11 12 4 0
BITMAP
0FC0
0F80
3EC0
6660
E660
CC60
CC60
CCE0
CDC0
7B80
3F00
7C00
ENDCHAR
STARTCHAR C022526
ENCODING 9558
SWIDTH 1800 0
DWIDTH 18 0
BBX 16 12 1 0
BITMAP
0F9F
060C
0318
0330
01E0
01C0
03C0
0660
0C60
1830
3030
FCFC
ENDCHAR
STARTCHAR C022527
ENCODING 9559
SWIDTH 1800 0
DWIDTH 18 0
BBX 14 13 3 0
BITMAP
7000
37B8
377C
3660
66C0
66C0
CCC0
CCC0
6DC0
3F00
1800
1800
7E00
ENDCHAR
STARTCHAR C022530
ENCODING 9560
SWIDTH 1800 0
DWIDTH 18 0
BBX 15 12 2 0
BITMAP
03F8
060C
0C06
1806
180E
180C
181C
1838
0CF0
6780
CD98
FDF8
ENDCHAR
STARTCHAR C022531
ENCODING 9561
SWIDTH 1800 0
DWIDTH 18 0
BBX 0 0 0 0
BITMAP
ENDCHAR
STARTCHAR C022532
ENCODING 9562
SWIDTH 1800 0
DWIDTH 18 0
BBX 0 0 0 0
BITMAP
ENDCHAR
STARTCHAR C022533
ENCODING 9563
SWIDTH 1800 0
DWIDTH 18 0
BBX 0 0 0 0
BITMAP
ENDCHAR
STARTCHAR C022534
ENCODING 9564
SWIDTH 1800 0
DWIDTH 18 0
BBX 1 14 18 -4
BITMAP
80
00
00
80
00
80
80
00
00
00
00
00
00
80
ENDCHAR
STARTCHAR C022535
ENCODING 9565
SWIDTH 1800 0
DWIDTH 18 0
BBX 0 0 0 0
BITMAP
ENDCHAR
STARTCHAR C022536
ENCODING 9566
SWIDTH 1800 0
DWIDTH 18 0
BBX 0 0 0 0
BITMAP
ENDCHAR
STARTCHAR C022537
ENCODING 9567
SWIDTH 1800 0
DWIDTH 18 0
BBX 0 0 0 0
BITMAP
ENDCHAR
STARTCHAR C022540
ENCODING 9568
SWIDTH 1800 0
DWIDTH 18 0
BBX 0 0 0 0
BITMAP
ENDCHAR
STARTCHAR C022541
ENCODING 9569
SWIDTH 1800 0
DWIDTH 18 0
BBX 10 8 5 0
BITMAP
1FC0
7780
6780
C700
C600
C600
CC00
FF00
ENDCHAR
STARTCHAR C022542
ENCODING 9570
SWIDTH 1800 0
DWIDTH 18 0
BBX 11 14 4 -2
BITMAP
07C0
0C60
0C60
1860
18C0
1F80
3180
30C0
30C0
61C0
7180
7F00
E000
E000
ENDCHAR
STARTCHAR C022543
ENCODING 9571
SWIDTH 1800 0
DWIDTH 18 0
BBX 9 10 5 -2
BITMAP
F180
3B00
1E00
1C00
1800
1800
3000
7000
6000
E000
ENDCHAR
STARTCHAR C022544
ENCODING 9572
SWIDTH 1800 0
DWIDTH 18 0
BBX 9 12 5 0
BITMAP
1E00
3300
1980
0D80
0600
7E00
6300
C300
C700
C600
CE00
7C00
ENDCHAR
STARTCHAR C022545
ENCODING 9573
SWIDTH 1800 0
DWIDTH 18 0
BBX 9 8 5 0
BITMAP
1F00
3180
6000
3E00
E000
C000
E300
7E00
ENDCHAR
STARTCHAR C022546
ENCODING 9574
SWIDTH 1800 0
DWIDTH 18 0
BBX 9 14 5 -2
BITMAP
3000
6380
6F00
3800
3000
6000
C000
C000
C000
C000
7C00
0C00
0C00
7C00
ENDCHAR
STARTCHAR C022547
ENCODING 9575
SWIDTH 1800 0
DWIDTH 18 0
BBX 9 10 5 -2
BITMAP
7F00
1980
3300
3300
6300
6600
E600
0E00
0C00
1C00
ENDCHAR
STARTCHAR C022550
ENCODING 9576
SWIDTH 1800 0
DWIDTH 18 0
BBX 9 14 5 -1
BITMAP
0600
0F80
1980
3180
3180
6180
7F00
C300
C300
C600
C600
CC00
7800
3000
ENDCHAR
STARTCHAR C022551
ENCODING 9577
SWIDTH 1800 0
DWIDTH 18 0
BBX 5 8 7 0
BITMAP
38
30
70
60
C0
C0
D8
F0
ENDCHAR
STARTCHAR C022552
ENCODING 9578
SWIDTH 1800 0
DWIDTH 18 0
BBX 9 8 5 0
BITMAP
3B80
3600
3C00
7800
7C00
6C00
EF00
CE00
ENDCHAR
STARTCHAR C022553
ENCODING 9579
SWIDTH 1800 0
DWIDTH 18 0
BBX 9 12 5 0
BITMAP
0F00
0700
0300
0300
0300
0700
0F00
1B00
3B00
3300
6380
E180
ENDCHAR
STARTCHAR C022554
ENCODING 9580
SWIDTH 1800 0
DWIDTH 18 0
BBX 10 9 5 -2
BITMAP
19C0
3180
3180
7380
6300
66C0
FF80
D800
C000
ENDCHAR
STARTCHAR C022555
ENCODING 9581
SWIDTH 1800 0
DWIDTH 18 0
BBX 9 8 5 0
BITMAP
6180
7180
3300
6300
6600
6C00
F800
F000
ENDCHAR
STARTCHAR C022556
ENCODING 9582
SWIDTH 1800 0
DWIDTH 18 0
BBX 10 15 4 -2
BITMAP
0300
0E00
0C00
0FC0
3800
3000
3000
1FC0
7000
C000
C000
6000
7F00
0300
1E00
ENDCHAR
STARTCHAR C022557
ENCODING 9583
SWIDTH 1800 0
DWIDTH 18 0
BBX 9 9 5 -1
BITMAP
1F00
3300
6180
6180
C300
C300
6600
6C00
3800
ENDCHAR
STARTCHAR C022560
ENCODING 9584
SWIDTH 1800 0
DWIDTH 18 0
BBX 11 8 4 0
BITMAP
3C60
7FC0
1B00
3600
3600
3600
6600
E780
ENDCHAR
STARTCHAR C022561
ENCODING 9585
SWIDTH 1800 0
DWIDTH 18 0
BBX 9 9 5 -2
BITMAP
1F80
3180
3180
6180
6180
E300
F600
DC00
C000
ENDCHAR
STARTCHAR C022562
ENCODING 9586
SWIDTH 1800 0
DWIDTH 18 0
BBX 9 10 5 -1
BITMAP
0780
3D80
7600
6300
C300
C300
C600
C600
7C00
3000
ENDCHAR
STARTCHAR C022563
ENCODING 9587
SWIDTH 1800 0
DWIDTH 18 0
BBX 7 8 6 0
BITMAP
7E
F0
30
60
60
60
C0
F0
ENDCHAR
STARTCHAR C022564
ENCODING 9588
SWIDTH 1800 0
DWIDTH 18 0
BBX 9 9 5 -1
BITMAP
3300
3380
3300
6300
6300
C600
CC00
7800
3000
ENDCHAR
STARTCHAR C022565
ENCODING 9589
SWIDTH 1800 0
DWIDTH 18 0
BBX 11 9 4 -2
BITMAP
3BC0
66C0
6660
CCC0
CCC0
7980
3F00
1800
3800
ENDCHAR
STARTCHAR C022566
ENCODING 9590
SWIDTH 1800 0
DWIDTH 18 0
BBX 11 10 4 -2
BITMAP
3CE0
3EC0
0780
0700
0600
0E00
1E00
3E00
76C0
E7C0
ENDCHAR
STARTCHAR C022567
ENCODING 9591
SWIDTH 1800 0
DWIDTH 18 0
BBX 9 14 5 -2
BITMAP
0700
0600
0600
0600
6D80
ED80
D980
D980
DB00
F300
7E00
3000
7000
7000
ENDCHAR
STARTCHAR C022570
ENCODING 9592
SWIDTH 1800 0
DWIDTH 18 0
BBX 11 8 4 0
BITMAP
3800
6660
C660
CE60
CC60
CCC0
D9C0
FF00
ENDCHAR
STARTCHAR C022571
ENCODING 9593
SWIDTH 1800 0
DWIDTH 18 0
BBX 0 0 0 0
BITMAP
ENDCHAR
STARTCHAR C022572
ENCODING 9594
SWIDTH 1800 0
DWIDTH 18 0
BBX 1 14 18 -4
BITMAP
80
00
00
80
00
80
80
00
00
00
00
00
00
80
ENDCHAR
STARTCHAR C022573
ENCODING 9595
SWIDTH 1800 0
DWIDTH 18 0
BBX 0 0 0 0
BITMAP
ENDCHAR
STARTCHAR C022574
ENCODING 9596
SWIDTH 1800 0
DWIDTH 18 0
BBX 0 0 0 0
BITMAP
ENDCHAR
STARTCHAR C022575
ENCODING 9597
SWIDTH 1800 0
DWIDTH 18 0
BBX 0 0 0 0
BITMAP
ENDCHAR
STARTCHAR C022576
ENCODING 9598
SWIDTH 1800 0
DWIDTH 18 0
BBX 0 0 0 0
BITMAP
ENDCHAR
STARTCHAR C022577
ENCODING 9599
SWIDTH 1800 0
DWIDTH 18 0
BBX 1 2 18 8
BITMAP
80
80
ENDCHAR
STARTCHAR C023040
ENCODING 9760
SWIDTH 1800 0
DWIDTH 18 0
BBX 1 1 18 5
BITMAP
80
ENDCHAR
STARTCHAR C023041
ENCODING 9761
SWIDTH 1800 0
DWIDTH 18 0
BBX 18 1 0 5
BITMAP
FFFFC0
ENDCHAR
STARTCHAR C023042
ENCODING 9762
SWIDTH 1800 0
DWIDTH 18 0
BBX 0 0 0 0
BITMAP
ENDCHAR
STARTCHAR C023043
ENCODING 9763
SWIDTH 1800 0
DWIDTH 18 0
BBX 9 1 9 5
BITMAP
FF80
ENDCHAR
STARTCHAR C023044
ENCODING 9764
SWIDTH 1800 0
DWIDTH 18 0
BBX 10 10 0 -4
BITMAP
FFC0
00C0
00C0
00C0
00C0
00C0
00C0
00C0
00C0
00C0
ENDCHAR
STARTCHAR C023045
ENCODING 9765
SWIDTH 1800 0
DWIDTH 18 0
BBX 19 9 0 5
BITMAP
00C000
00C000
00C000
00C000
00C000
00C000
00C000
00C000
FFC020
ENDCHAR
STARTCHAR C023046
ENCODING 9766
SWIDTH 1800 0
DWIDTH 18 0
BBX 9 1 9 5
BITMAP
FF80
ENDCHAR
STARTCHAR C023047
ENCODING 9767
SWIDTH 1800 0
DWIDTH 18 0
BBX 9 1 9 5
BITMAP
FF80
ENDCHAR
STARTCHAR C023050
ENCODING 9768
SWIDTH 1800 0
DWIDTH 18 0
BBX 19 10 0 -4
BITMAP
FFFFE0
00C000
00C000
00C000
00C000
00C000
00C000
00C000
00C000
00C000
ENDCHAR
STARTCHAR C023051
ENCODING 9769
SWIDTH 1800 0
DWIDTH 18 0
BBX 19 18 0 -4
BITMAP
00C000
00C000
00C000
00C000
00C020
00C000
00C000
00C020
FFC000
00C020
00C020
00C000
00C000
00C000
00C000
00C000
00C000
00C020
ENDCHAR
STARTCHAR C023052
ENCODING 9770
SWIDTH 1800 0
DWIDTH 18 0
BBX 19 9 0 5
BITMAP
00C000
00C000
00C000
00C000
00C000
00C000
00C000
00C000
FFFFE0
ENDCHAR
STARTCHAR C023053
ENCODING 9771
SWIDTH 1800 0
DWIDTH 18 0
BBX 19 18 0 -4
BITMAP
00C000
00C000
00C000
00C000
00C000
00C000
00C000
00C000
FFFFE0
00C000
00C000
00C000
00C000
00C000
00C000
00C000
00C000
00C000
ENDCHAR
STARTCHAR C023054
ENCODING 9772
SWIDTH 1800 0
DWIDTH 18 0
BBX 19 18 0 -4
BITMAP
000020
000020
000020
000020
000020
000020
000020
000020
FFFFE0
000020
000020
000020
000020
000020
000020
000020
000020
000020
ENDCHAR
STARTCHAR C023055
ENCODING 9773
SWIDTH 1800 0
DWIDTH 18 0
BBX 2 18 8 -4
BITMAP
C0
C0
C0
C0
C0
C0
C0
C0
C0
C0
C0
C0
C0
C0
C0
C0
C0
C0
ENDCHAR
STARTCHAR C023056
ENCODING 9774
SWIDTH 1800 0
DWIDTH 18 0
BBX 10 10 8 -4
BITMAP
FFC0
C000
C000
C000
C000
C000
C000
C000
C000
C000
ENDCHAR
STARTCHAR C023057
ENCODING 9775
SWIDTH 1800 0
DWIDTH 18 0
BBX 19 10 0 -4
BITMAP
FFC020
00C000
00C000
00C000
00C000
00C000
00C000
00C000
00C000
00C000
ENDCHAR
STARTCHAR C023060
ENCODING 9776
SWIDTH 1800 0
DWIDTH 18 0
BBX 19 9 0 5
BITMAP
00C020
00C020
00C020
00C020
00C020
00C020
00C020
00C020
FFC020
ENDCHAR
STARTCHAR C023061
ENCODING 9777
SWIDTH 1800 0
DWIDTH 18 0
BBX 10 9 8 5
BITMAP
C000
C000
C000
C000
C000
C000
C000
C000
FFC0
ENDCHAR
STARTCHAR C023062
ENCODING 9778
SWIDTH 1800 0
DWIDTH 18 0
BBX 11 18 8 -4
BITMAP
C000
C000
C000
C000
C000
C000
C000
C000
FFC0
C000
C000
C000
C000
C000
C000
C000
C000
C000
ENDCHAR
STARTCHAR C023063
ENCODING 9779
SWIDTH 1800 0
DWIDTH 18 0
BBX 18 10 0 -4
BITMAP
FFFFC0
00C000
00C000
00C000
00C000
00C000
00C000
00C000
00C000
00C000
ENDCHAR
STARTCHAR C023064
ENCODING 9780
SWIDTH 1800 0
DWIDTH 18 0
BBX 10 18 0 -4
BITMAP
00C0
00C0
00C0
00C0
00C0
00C0
00C0
00C0
FFC0
00C0
00C0
00C0
00C0
00C0
00C0
00C0
00C0
00C0
ENDCHAR
STARTCHAR C023065
ENCODING 9781
SWIDTH 1800 0
DWIDTH 18 0
BBX 17 9 1 5
BITMAP
00C000
00C000
00C000
00C000
00C000
00C000
00C000
00C000
FFFF80
ENDCHAR
STARTCHAR C023066
ENCODING 9782
SWIDTH 1800 0
DWIDTH 18 0
BBX 19 18 0 -4
BITMAP
006000
006000
006000
006000
006000
006000
006000
006000
7FFFC0
006000
006000
006000
006000
006000
006000
006000
006000
006000
ENDCHAR
STARTCHAR C023067
ENCODING 9783
SWIDTH 1800 0
DWIDTH 18 0
BBX 11 18 8 -4
BITMAP
6000
6000
6000
6000
6000
6000
6000
6000
7FC0
6000
6000
6000
6000
6000
6000
6000
6000
6000
ENDCHAR
STARTCHAR C023070
ENCODING 9784
SWIDTH 1800 0
DWIDTH 18 0
BBX 19 14 0 -4
BITMAP
000020
000000
000000
000020
FFFFC0
00C020
00C020
00C000
00C000
00C000
00C000
00C000
00C000
00C020
ENDCHAR
STARTCHAR C023071
ENCODING 9785
SWIDTH 1800 0
DWIDTH 18 0
BBX 19 18 0 -4
BITMAP
006000
006000
006000
006000
006000
006000
006000
006000
7FE020
006000
006000
006000
006000
006000
006000
006000
006000
006000
ENDCHAR
STARTCHAR C023072
ENCODING 9786
SWIDTH 1800 0
DWIDTH 18 0
BBX 19 9 0 5
BITMAP
00C000
00C000
00C000
00C000
00C000
00C000
00C000
00C000
FFFFE0
ENDCHAR
STARTCHAR C023073
ENCODING 9787
SWIDTH 1800 0
DWIDTH 18 0
BBX 19 18 0 -4
BITMAP
00C000
00C000
00C000
00C000
00C000
00C000
00C000
00C000
FFFFE0
00C000
00C000
00C000
00C000
00C000
00C000
00C000
00C000
00C000
ENDCHAR
STARTCHAR C023074
ENCODING 9788
SWIDTH 1800 0
DWIDTH 18 0
BBX 9 1 9 5
BITMAP
FF80
ENDCHAR
STARTCHAR C023075
ENCODING 9789
SWIDTH 1800 0
DWIDTH 18 0
BBX 19 14 0 -4
BITMAP
000020
000020
000000
000000
FFFFC0
00C000
00C000
00C000
00C000
00C000
00C000
00C000
00C000
00C000
ENDCHAR
STARTCHAR C023076
ENCODING 9790
SWIDTH 1800 0
DWIDTH 18 0
BBX 19 18 0 -4
BITMAP
00C000
00C000
00C000
00C000
00C000
00C000
00C000
00C000
FFC020
00C000
00C000
00C000
00C000
00C000
00C000
00C000
00C000
00C000
ENDCHAR
STARTCHAR C023077
ENCODING 9791
SWIDTH 1800 0
DWIDTH 18 0
BBX 19 9 0 5
BITMAP
00C000
00C000
00C000
00C000
00C000
00C000
00C000
00C000
FFFFE0
ENDCHAR
STARTCHAR C023100
ENCODING 9792
SWIDTH 1800 0
DWIDTH 18 0
BBX 19 18 0 -4
BITMAP
00C000
00C000
00C000
00C000
00C000
00C000
00C000
00C000
FFFFE0
00C000
00C000
00C000
00C000
00C000
00C000
00C000
00C000
00C000
ENDCHAR
STARTCHAR C023101
ENCODING 9793
SWIDTH 1800 0
DWIDTH 18 0
BBX 19 10 0 -4
BITMAP
FFC020
00C000
00C000
00C000
00C000
00C000
00C000
00C000
00C000
00C000
ENDCHAR
STARTCHAR C023102
ENCODING 9794
SWIDTH 1800 0
DWIDTH 18 0
BBX 10 10 0 -4
BITMAP
FFC0
00C0
00C0
00C0
00C0
00C0
00C0
00C0
00C0
00C0
ENDCHAR
STARTCHAR C023103
ENCODING 9795
SWIDTH 1800 0
DWIDTH 18 0
BBX 18 9 1 5
BITMAP
00C000
00C000
00C000
00C000
00C000
00C000
00C000
00C000
FFC040
ENDCHAR
STARTCHAR C023104
ENCODING 9796
SWIDTH 1800 0
DWIDTH 18 0
BBX 19 9 0 5
BITMAP
006020
006020
006020
006020
006020
006020
006020
006020
FFE020
ENDCHAR
STARTCHAR C023105
ENCODING 9797
SWIDTH 1800 0
DWIDTH 18 0
BBX 10 9 8 5
BITMAP
C000
C000
C000
C000
C000
C000
C000
C000
FFC0
ENDCHAR
STARTCHAR C023106
ENCODING 9798
SWIDTH 1800 0
DWIDTH 18 0
BBX 9 1 9 5
BITMAP
FF80
ENDCHAR
STARTCHAR C023107
ENCODING 9799
SWIDTH 1800 0
DWIDTH 18 0
BBX 9 10 9 -4
BITMAP
FF80
C000
C000
C000
C000
C000
C000
C000
C000
C000
ENDCHAR
STARTCHAR C023110
ENCODING 9800
SWIDTH 1800 0
DWIDTH 18 0
BBX 9 1 9 5
BITMAP
FF80
ENDCHAR
STARTCHAR C023111
ENCODING 9801
SWIDTH 1800 0
DWIDTH 18 0
BBX 11 18 8 -4
BITMAP
6000
6000
6000
6000
6000
6000
6000
6000
7FC0
C000
C000
C000
C000
C000
C000
C000
C000
C000
ENDCHAR
STARTCHAR C023112
ENCODING 9802
SWIDTH 1800 0
DWIDTH 18 0
BBX 11 18 8 -4
BITMAP
6000
6000
6000
6000
6000
6000
6000
6000
7FC0
6000
6000
6000
6000
6000
6000
6000
6000
6000
ENDCHAR
STARTCHAR C023113
ENCODING 9803
SWIDTH 1800 0
DWIDTH 18 0
BBX 11 18 8 -4
BITMAP
6000
6000
6000
6000
6000
6000
6000
6000
7FC0
C000
C000
C000
C000
C000
C000
C000
C000
C000
ENDCHAR
STARTCHAR C023114
ENCODING 9804
SWIDTH 1800 0
DWIDTH 18 0
BBX 11 18 8 -4
BITMAP
6000
6000
6000
6000
6000
6000
6000
6000
7FC0
6000
6000
6000
6000
6000
6000
6000
6000
6000
ENDCHAR
STARTCHAR C023115
ENCODING 9805
SWIDTH 1800 0
DWIDTH 18 0
BBX 10 18 0 -4
BITMAP
00C0
00C0
00C0
00C0
00C0
00C0
00C0
00C0
FFC0
00C0
00C0
00C0
00C0
00C0
00C0
00C0
00C0
00C0
ENDCHAR
STARTCHAR C023116
ENCODING 9806
SWIDTH 1800 0
DWIDTH 18 0
BBX 10 18 1 -4
BITMAP
00C0
00C0
00C0
00C0
00C0
00C0
00C0
00C0
FFC0
00C0
00C0
00C0
00C0
00C0
00C0
00C0
00C0
00C0
ENDCHAR
STARTCHAR C023117
ENCODING 9807
SWIDTH 1800 0
DWIDTH 18 0
BBX 10 18 1 -4
BITMAP
00C0
00C0
00C0
00C0
00C0
00C0
00C0
00C0
FFC0
00C0
00C0
00C0
00C0
00C0
00C0
00C0
00C0
00C0
ENDCHAR
STARTCHAR C023120
ENCODING 9808
SWIDTH 1800 0
DWIDTH 18 0
BBX 19 18 0 -4
BITMAP
00C000
00C000
00C000
00C000
00C000
00C000
00C000
00C000
7FC020
006000
006000
006000
006000
006000
006000
006000
006000
006000
ENDCHAR
STARTCHAR C023121
ENCODING 9809
SWIDTH 1800 0
DWIDTH 18 0
BBX 18 10 0 -4
BITMAP
FFFFC0
00C000
00C000
00C000
00C000
00C000
00C000
00C000
00C000
00C000
ENDCHAR
STARTCHAR C023122
ENCODING 9810
SWIDTH 1800 0
DWIDTH 18 0
BBX 19 10 0 -4
BITMAP
FFFFE0
00C000
00C000
00C000
00C000
00C000
00C000
00C000
00C000
00C000
ENDCHAR
STARTCHAR C023123
ENCODING 9811
SWIDTH 1800 0
DWIDTH 18 0
BBX 19 10 0 -4
BITMAP
FFFFE0
00C000
00C000
00C000
00C000
00C000
00C000
00C000
00C000
00C000
ENDCHAR
STARTCHAR C023124
ENCODING 9812
SWIDTH 1800 0
DWIDTH 18 0
BBX 19 10 0 -4
BITMAP
FFFFE0
00C000
00C000
00C000
00C000
00C000
00C000
00C000
00C000
00C000
ENDCHAR
STARTCHAR C023125
ENCODING 9813
SWIDTH 1800 0
DWIDTH 18 0
BBX 19 9 0 5
BITMAP
00C000
00C000
00C000
00C000
00C000
00C000
00C000
00C000
FFFFE0
ENDCHAR
STARTCHAR C023126
ENCODING 9814
SWIDTH 1800 0
DWIDTH 18 0
BBX 19 18 0 -4
BITMAP
00C000
00C000
00C000
00C000
00C020
00C000
00C000
00C020
FFFFC0
000020
000020
000000
000000
000000
000000
000000
000000
000020
ENDCHAR
STARTCHAR C023127
ENCODING 9815
SWIDTH 1800 0
DWIDTH 18 0
BBX 19 9 0 5
BITMAP
00C000
00C000
00C000
00C000
00C000
00C000
00C000
00C000
FFFFE0
ENDCHAR
STARTCHAR C023130
ENCODING 9816
SWIDTH 1800 0
DWIDTH 18 0
BBX 19 9 0 5
BITMAP
00C000
00C000
00C000
00C000
00C000
00C000
00C000
00C000
FFFFE0
ENDCHAR
STARTCHAR C023131
ENCODING 9817
SWIDTH 1800 0
DWIDTH 18 0
BBX 19 18 0 -4
BITMAP
00C000
00C000
00C000
00C000
00C000
00C000
00C000
00C000
FFFFE0
00C000
00C000
00C000
00C000
00C000
00C000
00C000
00C000
00C000
ENDCHAR
STARTCHAR C023132
ENCODING 9818
SWIDTH 1800 0
DWIDTH 18 0
BBX 19 18 0 -4
BITMAP
00C000
00C000
00C000
00C000
00C000
00C000
00C000
00C000
FFFFE0
00C000
00C000
00C000
00C000
00C000
00C000
00C000
00C000
00C000
ENDCHAR
STARTCHAR C023133
ENCODING 9819
SWIDTH 1800 0
DWIDTH 18 0
BBX 19 18 0 -4
BITMAP
00C000
00C000
00C000
00C000
00C020
00C020
00C000
00C000
FFFFC0
00C000
00C000
00C000
00C000
00C000
00C000
00C000
00C000
00C000
ENDCHAR
STARTCHAR C023134
ENCODING 9820
SWIDTH 1800 0
DWIDTH 18 0
BBX 19 18 0 -4
BITMAP
00C000
00C000
00C000
00C000
00C000
00C000
00C000
00C000
FFFFC0
00C000
00C000
00C000
00C000
00C000
00C000
00C000
00C000
00C000
ENDCHAR
STARTCHAR C023135
ENCODING 9821
SWIDTH 1800 0
DWIDTH 18 0
BBX 19 18 0 -4
BITMAP
006000
006000
006000
006000
006000
006000
006000
006000
7FFFE0
006000
006000
006000
006000
006000
006000
006000
006000
006000
ENDCHAR
STARTCHAR C023136
ENCODING 9822
SWIDTH 1800 0
DWIDTH 18 0
BBX 19 18 0 -4
BITMAP
00C000
00C000
00C000
00C000
00C000
00C000
00C000
00C000
FFFFE0
00C000
00C000
00C000
00C000
00C000
00C000
00C000
00C000
00C000
ENDCHAR
STARTCHAR C023137
ENCODING 9823
SWIDTH 1800 0
DWIDTH 18 0
BBX 19 18 0 -4
BITMAP
00C000
00C000
00C000
00C000
00C000
00C000
00C000
00C000
FFFFE0
00C000
00C000
00C000
00C000
00C000
00C000
00C000
00C000
00C000
ENDCHAR
STARTCHAR C023140
ENCODING 9824
SWIDTH 1800 0
DWIDTH 18 0
BBX 19 18 0 -4
BITMAP
00C000
00C000
00C000
00C000
00C000
00C000
00C000
00C000
FFFFC0
00C000
00C000
00C000
00C000
00C000
00C000
00C000
00C000
00C000
ENDCHAR
STARTCHAR C023141
ENCODING 9825
SWIDTH 1800 0
DWIDTH 18 0
BBX 19 18 0 -4
BITMAP
006000
006000
006000
006000
006000
006000
006000
006000
7FFFC0
00C000
00C000
00C000
00C000
00C000
00C000
00C000
00C000
00C000
ENDCHAR
STARTCHAR C023142
ENCODING 9826
SWIDTH 1800 0
DWIDTH 18 0
BBX 19 18 0 -4
BITMAP
006000
006000
006000
006000
006000
006000
006000
006000
7FFFE0
006000
006000
006000
006000
006000
006000
006000
006000
006000
ENDCHAR
STARTCHAR C023143
ENCODING 9827
SWIDTH 1800 0
DWIDTH 18 0
BBX 19 18 0 -4
BITMAP
00C000
00C000
00C000
00C000
00C000
00C000
00C000
00C000
FFFFE0
00C000
00C000
00C000
00C000
00C000
00C000
00C000
00C000
00C000
ENDCHAR
STARTCHAR C023144
ENCODING 9828
SWIDTH 1800 0
DWIDTH 18 0
BBX 19 18 0 -4
BITMAP
00C000
00C000
00C000
00C000
00C000
00C000
00C000
00C000
FFFFC0
00C000
00C000
00C000
00C000
00C000
00C000
00C000
00C000
00C000
ENDCHAR
STARTCHAR C023145
ENCODING 9829
SWIDTH 1800 0
DWIDTH 18 0
BBX 1 14 18 -4
BITMAP
80
00
00
80
00
80
80
00
00
00
00
00
00
80
ENDCHAR
STARTCHAR C023146
ENCODING 9830
SWIDTH 1800 0
DWIDTH 18 0
BBX 0 0 0 0
BITMAP
ENDCHAR
STARTCHAR C023147
ENCODING 9831
SWIDTH 1800 0
DWIDTH 18 0
BBX 0 0 0 0
BITMAP
ENDCHAR
STARTCHAR C023150
ENCODING 9832
SWIDTH 1800 0
DWIDTH 18 0
BBX 0 0 0 0
BITMAP
ENDCHAR
STARTCHAR C023151
ENCODING 9833
SWIDTH 1800 0
DWIDTH 18 0
BBX 0 0 0 0
BITMAP
ENDCHAR
STARTCHAR C023152
ENCODING 9834
SWIDTH 1800 0
DWIDTH 18 0
BBX 1 2 18 8
BITMAP
80
80
ENDCHAR
STARTCHAR C023153
ENCODING 9835
SWIDTH 1800 0
DWIDTH 18 0
BBX 0 0 0 0
BITMAP
ENDCHAR
STARTCHAR C023154
ENCODING 9836
SWIDTH 1800 0
DWIDTH 18 0
BBX 0 0 0 0
BITMAP
ENDCHAR
STARTCHAR C023155
ENCODING 9837
SWIDTH 1800 0
DWIDTH 18 0
BBX 0 0 0 0
BITMAP
ENDCHAR
STARTCHAR C023156
ENCODING 9838
SWIDTH 1800 0
DWIDTH 18 0
BBX 0 0 0 0
BITMAP
ENDCHAR
STARTCHAR C023157
ENCODING 9839
SWIDTH 1800 0
DWIDTH 18 0
BBX 0 0 0 0
BITMAP
ENDCHAR
STARTCHAR C023160
ENCODING 9840
SWIDTH 1800 0
DWIDTH 18 0
BBX 0 0 0 0
BITMAP
ENDCHAR
STARTCHAR C023161
ENCODING 9841
SWIDTH 1800 0
DWIDTH 18 0
BBX 0 0 0 0
BITMAP
ENDCHAR
STARTCHAR C023162
ENCODING 9842
SWIDTH 1800 0
DWIDTH 18 0
BBX 0 0 0 0
BITMAP
ENDCHAR
STARTCHAR C023163
ENCODING 9843
SWIDTH 1800 0
DWIDTH 18 0
BBX 0 0 0 0
BITMAP
ENDCHAR
STARTCHAR C023164
ENCODING 9844
SWIDTH 1800 0
DWIDTH 18 0
BBX 1 14 18 -4
BITMAP
80
00
00
80
00
80
80
00
00
00
00
00
00
80
ENDCHAR
STARTCHAR C023165
ENCODING 9845
SWIDTH 1800 0
DWIDTH 18 0
BBX 0 0 0 0
BITMAP
ENDCHAR
STARTCHAR C023166
ENCODING 9846
SWIDTH 1800 0
DWIDTH 18 0
BBX 0 0 0 0
BITMAP
ENDCHAR
STARTCHAR C023167
ENCODING 9847
SWIDTH 1800 0
DWIDTH 18 0
BBX 0 0 0 0
BITMAP
ENDCHAR
STARTCHAR C023170
ENCODING 9848
SWIDTH 1800 0
DWIDTH 18 0
BBX 0 0 0 0
BITMAP
ENDCHAR
STARTCHAR C023171
ENCODING 9849
SWIDTH 1800 0
DWIDTH 18 0
BBX 1 2 18 8
BITMAP
80
80
ENDCHAR
STARTCHAR C023172
ENCODING 9850
SWIDTH 1800 0
DWIDTH 18 0
BBX 0 0 0 0
BITMAP
ENDCHAR
STARTCHAR C023173
ENCODING 9851
SWIDTH 1800 0
DWIDTH 18 0
BBX 0 0 0 0
BITMAP
ENDCHAR
STARTCHAR C023174
ENCODING 9852
SWIDTH 1800 0
DWIDTH 18 0
BBX 0 0 0 0
BITMAP
ENDCHAR
STARTCHAR C023175
ENCODING 9853
SWIDTH 1800 0
DWIDTH 18 0
BBX 0 0 0 0
BITMAP
ENDCHAR
STARTCHAR C023176
ENCODING 9854
SWIDTH 1800 0
DWIDTH 18 0
BBX 0 0 0 0
BITMAP
ENDCHAR
STARTCHAR C023177
ENCODING 9855
SWIDTH 1800 0
DWIDTH 18 0
BBX 0 0 0 0
BITMAP
ENDCHAR
STARTCHAR C023440
ENCODING 10016
SWIDTH 1800 0
DWIDTH 18 0
BBX 1 1 18 -3
BITMAP
80
ENDCHAR
STARTCHAR C023441
ENCODING 10017
SWIDTH 1800 0
DWIDTH 18 0
BBX 19 15 0 -3
BITMAP
000780
000780
000D80
000D80
0C0DA0
0C6F00
1C6F00
18EE00
18CC00
30CC00
31BCC0
3BE780
6E0300
600000
E00000
ENDCHAR
STARTCHAR C023442
ENCODING 10018
SWIDTH 1800 0
DWIDTH 18 0
BBX 17 13 1 -1
BITMAP
000F00
000F00
001B00
001B00
FF9B00
6F9E00
6D9E00
6D9C00
6D9800
6DB800
6D9980
6D8F00
000600
ENDCHAR
STARTCHAR C023443
ENCODING 10019
SWIDTH 1800 0
DWIDTH 18 0
BBX 15 14 2 -1
BITMAP
0018
063C
063C
066C
066C
366C
7E78
C670
C670
C660
C6E0
C636
7E3C
3018
ENDCHAR
STARTCHAR C023444
ENCODING 10020
SWIDTH 1800 0
DWIDTH 18 0
BBX 8 13 5 0
BITMAP
0E
1E
1E
36
36
3C
3C
38
30
70
F3
1E
0C
ENDCHAR
STARTCHAR C023445
ENCODING 10021
SWIDTH 1800 0
DWIDTH 18 0
BBX 16 13 2 -1
BITMAP
C01E
C01E
C036
C036
C036
C63C
DC3C
D838
FC30
CC70
C633
C71E
000C
ENDCHAR
STARTCHAR C023446
ENCODING 10022
SWIDTH 1800 0
DWIDTH 18 0
BBX 17 9 1 -1
BITMAP
3E1F00
633180
C76380
C06000
C06000
C06000
E03000
663B00
3C0E00
ENDCHAR
STARTCHAR C023447
ENCODING 10023
SWIDTH 1800 0
DWIDTH 18 0
BBX 15 14 2 0
BITMAP
000C
001E
0006
0006
001E
000C
FEFE
FEFE
F6F6
F6F6
F6F6
F6F6
F6F6
F6F6
ENDCHAR
STARTCHAR C023450
ENCODING 10024
SWIDTH 1800 0
DWIDTH 18 0
BBX 15 15 2 -1
BITMAP
000C
0006
0006
0006
001E
000C
7DFE
CDB6
C1B6
C1B6
C1B6
C1B6
C1B6
6DB6
3800
ENDCHAR
STARTCHAR C023451
ENCODING 10025
SWIDTH 1800 0
DWIDTH 18 0
BBX 14 13 3 0
BITMAP
0018
0018
0018
000C
0038
FFE0
7330
6330
6330
6330
6330
6330
6330
ENDCHAR
STARTCHAR C023452
ENCODING 10026
SWIDTH 1800 0
DWIDTH 18 0
BBX 15 14 2 0
BITMAP
0006
C006
C006
C006
C006
C00C
CDFE
F9BE
F1B6
F9B6
D9B6
DDB6
CDB6
CFB6
ENDCHAR
STARTCHAR C023453
ENCODING 10027
SWIDTH 1800 0
DWIDTH 18 0
BBX 14 12 2 0
BITMAP
3C00
6000
6000
6000
FBFC
636C
636C
636C
636C
636C
636C
636C
ENDCHAR
STARTCHAR C023454
ENCODING 10028
SWIDTH 1800 0
DWIDTH 18 0
BBX 17 8 1 0
BITMAP
1CFF80
F6DD80
C6D980
C6D980
C6D980
C6D980
C6D980
C6D980
ENDCHAR
STARTCHAR C023455
ENCODING 10029
SWIDTH 1800 0
DWIDTH 18 0
BBX 18 11 0 -3
BITMAP
1CFFC0
19F7C0
19B6C0
31B6C0
33B6C0
3336C0
3336C0
77F6C0
7C0000
600000
E00000
ENDCHAR
STARTCHAR C023456
ENCODING 10030
SWIDTH 1800 0
DWIDTH 18 0
BBX 17 8 1 0
BITMAP
FF7F80
FF6D80
DB6D80
DB6D80
DB6D80
DB6D80
DB6D80
DB6F80
ENDCHAR
STARTCHAR C023457
ENCODING 10031
SWIDTH 1800 0
DWIDTH 18 0
BBX 17 9 1 -1
BITMAP
7CFF80
C6DD80
C6D980
C0D980
C0D980
C0D980
C6D980
6CD980
380000
ENDCHAR
STARTCHAR C023460
ENCODING 10032
SWIDTH 1800 0
DWIDTH 18 0
BBX 16 12 2 0
BITMAP
C000
C000
C000
C000
DFFF
D9BB
F1B3
F1B3
F9B3
D9B3
CDB3
CDB3
ENDCHAR
STARTCHAR C023461
ENCODING 10033
SWIDTH 1800 0
DWIDTH 18 0
BBX 15 15 2 -1
BITMAP
001C
0006
000C
0018
001E
0000
FEFE
FEFE
F6F6
F6F6
F6F6
F6F6
F6F6
F6F6
6060
ENDCHAR
STARTCHAR C023462
ENCODING 10034
SWIDTH 1800 0
DWIDTH 18 0
BBX 15 15 2 -1
BITMAP
000E
001E
0006
000C
0018
000C
7DFE
CFB6
C1B6
C1B6
C1B6
C1B6
C7B6
6DB6
3800
ENDCHAR
STARTCHAR C023463
ENCODING 10035
SWIDTH 1800 0
DWIDTH 18 0
BBX 13 14 4 0
BITMAP
0070
0018
0030
0060
00C0
0070
FFE0
E730
C630
C630
C630
C630
C630
C630
ENDCHAR
STARTCHAR C023464
ENCODING 10036
SWIDTH 1800 0
DWIDTH 18 0
BBX 15 14 2 0
BITMAP
000E
0006
C00E
C018
C01E
C000
CDFE
D9B6
F1B6
F1B6
D9B6
D9B6
CDB6
CDB6
ENDCHAR
STARTCHAR C023465
ENCODING 10037
SWIDTH 1800 0
DWIDTH 18 0
BBX 18 15 1 -3
BITMAP
600000
600000
600000
600000
601E00
7F7300
637300
630F00
633B00
636300
636300
F73F80
000000
000000
000040
ENDCHAR
STARTCHAR C023466
ENCODING 10038
SWIDTH 1800 0
DWIDTH 18 0
BBX 19 12 0 -4
BITMAP
0C6FE0
1C7980
18F980
18D980
39DB00
319E00
319800
736F80
7FD8C0
603040
E030C0
001F80
ENDCHAR
STARTCHAR C023467
ENCODING 10039
SWIDTH 1800 0
DWIDTH 18 0
BBX 19 14 0 -4
BITMAP
000020
000020
FFCFC0
7ED980
6CD980
6CD980
6CDB00
6CFE00
6CF000
6CDF80
0030C0
0030C0
0030C0
001F80
ENDCHAR
STARTCHAR C023470
ENCODING 10040
SWIDTH 1800 0
DWIDTH 18 0
BBX 16 16 2 -4
BITMAP
C000
C000
C000
C000
C07F
C66E
DCC6
F0CC
F878
DCF0
CCC0
C67E
00C3
0183
00C6
007C
ENDCHAR
STARTCHAR C023471
ENCODING 10041
SWIDTH 1800 0
DWIDTH 18 0
BBX 15 13 2 -1
BITMAP
E000
6000
6000
6030
6030
67BC
6630
6C30
7C30
7630
6630
631E
F7C0
ENDCHAR
STARTCHAR C023472
ENCODING 10042
SWIDTH 1800 0
DWIDTH 18 0
BBX 18 13 0 -1
BITMAP
0000C0
0000C0
0000C0
0000C0
3E78C0
66CCC0
C00CC0
C07CC0
C0CCC0
E0CCC0
60CCC0
76FCC0
1C0000
ENDCHAR
STARTCHAR C023473
ENCODING 10043
SWIDTH 1800 0
DWIDTH 18 0
BBX 18 13 1 -1
BITMAP
C00180
C00180
C00180
C00180
CFFD80
DEF780
F607C0
F61FC0
FE37C0
DE67C0
DE67C0
CFFF80
018000
ENDCHAR
STARTCHAR C023474
ENCODING 10044
SWIDTH 1800 0
DWIDTH 18 0
BBX 18 13 0 -1
BITMAP
033F80
0330C0
0330C0
0330C0
0331C0
7F3F00
C731C0
C33040
C33040
C33040
C330C0
6F3380
381E00
ENDCHAR
STARTCHAR C023475
ENCODING 10045
SWIDTH 1800 0
DWIDTH 18 0
BBX 17 16 1 -3
BITMAP
370000
FF0180
DB0300
DB0600
DB0C00
DB1800
DB3000
FF7C00
00E700
01E000
033800
060F00
1C0300
306300
603B00
000E00
ENDCHAR
STARTCHAR C023476
ENCODING 10046
SWIDTH 1800 0
DWIDTH 18 0
BBX 17 16 1 -3
BITMAP
F60000
FF0180
DB0300
DB0600
DB0C00
DB1800
DB3380
FFE180
00FF00
01E780
036380
063C00
0C0600
186600
707600
001C00
ENDCHAR
STARTCHAR C023477
ENCODING 10047
SWIDTH 1800 0
DWIDTH 18 0
BBX 15 11 2 -3
BITMAP
FE7E
76C6
6360
6378
631E
6306
63C6
7666
7C3C
6000
6000
ENDCHAR
STARTCHAR C023500
ENCODING 10048
SWIDTH 1800 0
DWIDTH 18 0
BBX 14 9 3 -1
BITMAP
FEF8
E78C
C7C0
C6E0
C678
C60C
C78C
C6CC
0078
ENDCHAR
STARTCHAR C023501
ENCODING 10049
SWIDTH 1800 0
DWIDTH 18 0
BBX 17 11 1 -3
BITMAP
0CDF00
1CF180
18F800
19DC00
318700
318180
333180
7BDD80
6E0700
E00000
C00000
ENDCHAR
STARTCHAR C023502
ENCODING 10050
SWIDTH 1800 0
DWIDTH 18 0
BBX 16 9 2 -1
BITMAP
FFBE
FDE3
D9F0
D9BC
D98E
D983
D9E3
D9BE
000C
ENDCHAR
STARTCHAR C023503
ENCODING 10051
SWIDTH 1800 0
DWIDTH 18 0
BBX 17 17 1 -4
BITMAP
03E780
01C300
00C300
00C300
00C600
FE6600
766600
636C00
633C00
633C00
633800
631800
761800
7E0000
600000
600000
E00000
ENDCHAR
STARTCHAR C023504
ENCODING 10052
SWIDTH 1800 0
DWIDTH 18 0
BBX 16 12 2 0
BITMAP
0387
0186
0186
018C
1CCC
F6CC
C6D8
C678
C678
C670
C630
C630
ENDCHAR
STARTCHAR C023505
ENCODING 10053
SWIDTH 1800 0
DWIDTH 18 0
BBX 18 15 0 -3
BITMAP
0070C0
0060C0
003180
003180
0C7180
1CDB00
18DB00
39DB00
318E00
318E00
330E00
7FC000
6C0000
600000
E00000
ENDCHAR
STARTCHAR C023506
ENCODING 10054
SWIDTH 1800 0
DWIDTH 18 0
BBX 18 12 1 0
BITMAP
00E380
00C180
006340
006340
FFE300
DDB600
D9B600
D9B600
D99C00
D99C00
D99C00
D98000
ENDCHAR
STARTCHAR C023507
ENCODING 10055
SWIDTH 1800 0
DWIDTH 18 0
BBX 17 12 1 0
BITMAP
60E380
60E300
606300
606300
67E600
663600
6C3600
7C3C00
7C3C00
661C00
631800
F79800
ENDCHAR
STARTCHAR C023510
ENCODING 10056
SWIDTH 1800 0
DWIDTH 18 0
BBX 18 12 1 0
BITMAP
C33180
E73180
E73300
EF1B00
EF1B40
FF1B00
FF1E00
FF0E00
FB0E00
DB0E00
DB0C00
DB0000
ENDCHAR
STARTCHAR C023511
ENCODING 10057
SWIDTH 1800 0
DWIDTH 18 0
BBX 17 15 1 -3
BITMAP
001800
001800
003800
003C00
FE6C00
776C00
636600
63FE00
61C600
63C600
63C300
77E780
7C0000
600000
600000
ENDCHAR
STARTCHAR C023512
ENCODING 10058
SWIDTH 1800 0
DWIDTH 18 0
BBX 17 12 1 0
BITMAP
000C00
000C00
001C00
001E00
FE3600
E63600
C63600
C63F00
C66300
C66300
C6C300
C6F380
ENDCHAR
STARTCHAR C023513
ENCODING 10059
SWIDTH 1800 0
DWIDTH 18 0
BBX 18 15 0 -3
BITMAP
000600
000600
000F00
000F00
0C6F00
1CDB00
18D980
19DF80
319980
31B1C0
3370C0
37F1C0
7C0000
600000
E00000
ENDCHAR
STARTCHAR C023514
ENCODING 10060
SWIDTH 1800 0
DWIDTH 18 0
BBX 17 12 1 0
BITMAP
000C00
000C00
001C00
001C00
FF3600
FF3600
DB3600
DB3F00
DB6300
DB6300
DB6300
DBE380
ENDCHAR
STARTCHAR C023515
ENCODING 10061
SWIDTH 1800 0
DWIDTH 18 0
BBX 17 13 1 -1
BITMAP
C00C00
C00C00
C00C00
C01E00
C03600
CC3600
D83600
F03F00
F86300
CC6300
CC6380
C60180
006000
ENDCHAR
STARTCHAR C023516
ENCODING 10062
SWIDTH 1800 0
DWIDTH 18 0
BBX 17 15 1 -3
BITMAP
1FFB80
063180
063300
1F3300
FF7B00
CF7B00
C77B00
C7FE00
C7CE00
C7CE00
CDCE00
ECC600
F80000
C00000
C00000
ENDCHAR
STARTCHAR C023517
ENCODING 10063
SWIDTH 1800 0
DWIDTH 18 0
BBX 18 15 1 -3
BITMAP
073980
033980
033980
03BB00
FFBF00
E7EF00
C7EF00
C7EF00
C6E700
C6E600
C6C600
C60600
000000
000000
000040
ENDCHAR
STARTCHAR C023520
ENCODING 10064
SWIDTH 1800 0
DWIDTH 18 0
BBX 19 16 0 -4
BITMAP
00EEC0
00ECC0
006EE0
006EC0
0CFF80
1DFFA0
19FF80
3BBBA0
333BA0
333B00
363300
37B300
7C0000
600000
C00000
000020
ENDCHAR
STARTCHAR C023521
ENCODING 10065
SWIDTH 1800 0
DWIDTH 18 0
BBX 17 12 1 0
BITMAP
019980
019980
01DB00
00FF00
FFFF00
DFFF00
DBFF00
DB7F00
DB7600
DB6600
DB6600
DB6600
ENDCHAR
STARTCHAR C023522
ENCODING 10066
SWIDTH 1800 0
DWIDTH 18 0
BBX 17 12 1 0
BITMAP
C19980
C19980
C1DB00
C0FF00
C0FF00
CCFF00
D8FF00
F0FF00
F86600
DC6600
CC6600
CE6600
ENDCHAR
STARTCHAR C023523
ENCODING 10067
SWIDTH 1800 0
DWIDTH 18 0
BBX 17 12 1 0
BITMAP
C36C80
C36D80
E76780
E76F80
EF6F80
EF7F80
FF3F00
FF3F00
FB3F00
DB3300
DB3300
DB3000
ENDCHAR
STARTCHAR C023524
ENCODING 10068
SWIDTH 1800 0
DWIDTH 18 0
BBX 16 12 2 0
BITMAP
C300
C300
C300
C300
C33F
FF67
C30E
C30C
C318
C331
C373
C7FF
ENDCHAR
STARTCHAR C023525
ENCODING 10069
SWIDTH 1800 0
DWIDTH 18 0
BBX 19 12 0 0
BITMAP
63FC00
619800
619820
619820
619FC0
61FEC0
7D98C0
799980
799B00
6D9B40
6D9EC0
EF9FC0
ENDCHAR
STARTCHAR C023526
ENCODING 10070
SWIDTH 1800 0
DWIDTH 18 0
BBX 19 12 0 0
BITMAP
67DC00
66D820
F6D820
F6D820
FEDBE0
FEFEE0
FEDEE0
FED9A0
FED9A0
DEDB20
DEDB60
67DFC0
ENDCHAR
STARTCHAR C023527
ENCODING 10071
SWIDTH 1800 0
DWIDTH 18 0
BBX 19 14 0 -1
BITMAP
03FC00
7D9820
CD9800
C19800
C19800
C19FC0
C1FEC0
C198C0
C79980
C79980
C79B00
C79B40
7D9EC0
300380
ENDCHAR
STARTCHAR C023530
ENCODING 10072
SWIDTH 1800 0
DWIDTH 18 0
BBX 19 12 0 0
BITMAP
FF9800
331800
331800
331800
331FC0
33FEC0
3318C0
331980
331B20
331B60
331EE0
339FE0
ENDCHAR
STARTCHAR C023531
ENCODING 10073
SWIDTH 1800 0
DWIDTH 18 0
BBX 14 13 3 0
BITMAP
0FC0
18F0
3038
6018
601C
601C
6018
3038
1870
CFC0
C798
C798
FFF8
ENDCHAR
STARTCHAR C023532
ENCODING 10074
SWIDTH 1800 0
DWIDTH 18 0
BBX 17 12 1 0
BITMAP
C07F00
C0C180
C0C080
C0C080
C0C080
CEC080
D8C180
F86180
F83700
CC3C80
C7BC80
C7F780
ENDCHAR
STARTCHAR C023533
ENCODING 10075
SWIDTH 1800 0
DWIDTH 18 0
BBX 18 16 1 -3
BITMAP
003F00
C37380
C36180
E7C080
E7C080
EFC0C0
EFC0C0
FF61C0
FF71C0
FB1F40
DBDEC0
DBDEC0
DBFFC0
000040
000040
000040
ENDCHAR
STARTCHAR C023534
ENCODING 10076
SWIDTH 1800 0
DWIDTH 18 0
BBX 15 15 2 -3
BITMAP
01FE
00C6
00C0
00C0
FECC
C7FC
C3CC
C3C0
C3C0
C3C0
C6C0
ECC0
F800
C000
C000
ENDCHAR
STARTCHAR C023535
ENCODING 10077
SWIDTH 1800 0
DWIDTH 18 0
BBX 15 12 2 0
BITMAP
00FE
00C0
00C0
00C0
1CCC
F6FC
C6CC
C6C0
C6C0
C6C0
C6C0
C6C0
ENDCHAR
STARTCHAR C023536
ENCODING 10078
SWIDTH 1800 0
DWIDTH 18 0
BBX 18 15 0 -3
BITMAP
001FC0
001800
001800
001800
0C7980
0C7F80
1CD980
18D800
19D800
319800
319800
3BD800
6E0000
600000
E00000
ENDCHAR
STARTCHAR C023537
ENCODING 10079
SWIDTH 1800 0
DWIDTH 18 0
BBX 18 16 1 -4
BITMAP
000180
000180
0001C0
000180
FF7980
FFCDC0
DB8780
DB87C0
DB87C0
DB8780
DB8780
DBCD80
007800
000000
000000
000040
ENDCHAR
STARTCHAR C023540
ENCODING 10080
SWIDTH 1800 0
DWIDTH 18 0
BBX 16 13 1 -1
BITMAP
0003
0003
0003
0003
7E03
667F
C067
C0C3
C0C3
C0C3
C6C3
6C67
383C
ENDCHAR
STARTCHAR C023541
ENCODING 10081
SWIDTH 1800 0
DWIDTH 18 0
BBX 19 12 0 0
BITMAP
0000C0
0000C0
0000E0
0000E0
FFE0E0
7F3FE0
603CE0
61FCC0
633CC0
633CC0
633EC0
63F7C0
ENDCHAR
STARTCHAR C023542
ENCODING 10082
SWIDTH 1800 0
DWIDTH 18 0
BBX 17 16 1 -3
BITMAP
001800
001800
001800
FFF800
C79800
DF9800
FB9800
FFF800
000300
000E00
003F80
00ED80
038700
0E0180
180D80
700700
ENDCHAR
STARTCHAR C023543
ENCODING 10083
SWIDTH 1800 0
DWIDTH 18 0
BBX 17 16 1 -3
BITMAP
001800
001800
001800
FFF800
C79800
DF9800
FB9800
FFF980
000700
001D80
007F80
01DB00
070C00
1C0600
301E00
000C00
ENDCHAR
STARTCHAR C023544
ENCODING 10084
SWIDTH 1800 0
DWIDTH 18 0
BBX 15 9 2 -1
BITMAP
FC7E
C670
E060
7060
1E60
0660
C660
7C60
1800
ENDCHAR
STARTCHAR C023545
ENCODING 10085
SWIDTH 1800 0
DWIDTH 18 0
BBX 16 13 2 -1
BITMAP
FE00
C300
C300
C300
C3F8
C3CC
CECC
F83C
C0EC
C18C
C18C
C1DF
0070
ENDCHAR
STARTCHAR C023546
ENCODING 10086
SWIDTH 1800 0
DWIDTH 18 0
BBX 18 13 1 -1
BITMAP
C3E040
C33000
C33000
C33000
C33F40
C33DC0
FB71C0
F3C7C0
F30DC0
DB19C0
DB19C0
DF9FC0
000040
ENDCHAR
STARTCHAR C023547
ENCODING 10087
SWIDTH 1800 0
DWIDTH 18 0
BBX 19 13 0 -1
BITMAP
E7F800
66DC20
66CC20
6ECC20
FECFE0
FECEE0
FED8E0
FEFBE0
FEC6E0
FECCE0
DECCE0
DEC7C0
EFE000
ENDCHAR
STARTCHAR C023550
ENCODING 10088
SWIDTH 1800 0
DWIDTH 18 0
BBX 19 13 0 -1
BITMAP
7DF020
CD9820
CD9800
C79800
C19FC0
C19EC0
C198C0
CFF3C0
CD86C0
CD8CC0
CD8CC0
798FC0
300000
ENDCHAR
STARTCHAR C023551
ENCODING 10089
SWIDTH 1800 0
DWIDTH 18 0
BBX 17 13 1 -1
BITMAP
FDB000
EDB000
6DB000
6DB000
6F3000
7F3F80
7F3080
773080
373080
363080
363080
363F80
000600
ENDCHAR
STARTCHAR C023552
ENCODING 10090
SWIDTH 1800 0
DWIDTH 18 0
BBX 13 12 3 0
BITMAP
C000
C000
C000
C000
CFF8
CED8
CCD8
CCD8
CCD8
CCD8
CCD8
CCF8
ENDCHAR
STARTCHAR C023553
ENCODING 10091
SWIDTH 1800 0
DWIDTH 18 0
BBX 13 12 3 0
BITMAP
C000
C000
C000
C000
CF38
C730
C360
C1C0
C1C0
C360
C670
CE38
ENDCHAR
STARTCHAR C023554
ENCODING 10092
SWIDTH 1800 0
DWIDTH 18 0
BBX 18 15 1 -3
BITMAP
FE0000
C30040
C30040
C30040
C31FC0
CE33C0
FF31C0
C1E1C0
C1E1C0
C1F1C0
C3B180
CE1F80
780180
000180
000180
ENDCHAR
STARTCHAR C023555
ENCODING 10093
SWIDTH 1800 0
DWIDTH 18 0
BBX 16 15 1 -3
BITMAP
7E00
C600
C600
C000
C063
C063
C036
C336
C33C
C31C
631C
7718
1C18
0030
00F0
ENDCHAR
STARTCHAR C023556
ENCODING 10094
SWIDTH 1800 0
DWIDTH 18 0
BBX 19 17 0 -4
BITMAP
3F0000
E70000
C00000
C00020
C00000
70F1C0
1F31A0
03B180
019B20
01DB20
C18E00
618E00
7F0000
000000
000000
000000
000020
ENDCHAR
STARTCHAR C023557
ENCODING 10095
SWIDTH 1800 0
DWIDTH 18 0
BBX 18 16 0 -3
BITMAP
380000
6E0000
C67000
C06000
C0C000
C18000
670000
3F0000
06C000
0CC7C0
18F6C0
18F780
30DE00
6007C0
000CC0
0007C0
ENDCHAR
STARTCHAR C023560
ENCODING 10096
SWIDTH 1800 0
DWIDTH 18 0
BBX 0 0 0 0
BITMAP
ENDCHAR
STARTCHAR C023561
ENCODING 10097
SWIDTH 1800 0
DWIDTH 18 0
BBX 0 0 0 0
BITMAP
ENDCHAR
STARTCHAR C023562
ENCODING 10098
SWIDTH 1800 0
DWIDTH 18 0
BBX 0 0 0 0
BITMAP
ENDCHAR
STARTCHAR C023563
ENCODING 10099
SWIDTH 1800 0
DWIDTH 18 0
BBX 1 2 18 8
BITMAP
80
80
ENDCHAR
STARTCHAR C023564
ENCODING 10100
SWIDTH 1800 0
DWIDTH 18 0
BBX 0 0 0 0
BITMAP
ENDCHAR
STARTCHAR C023565
ENCODING 10101
SWIDTH 1800 0
DWIDTH 18 0
BBX 0 0 0 0
BITMAP
ENDCHAR
STARTCHAR C023566
ENCODING 10102
SWIDTH 1800 0
DWIDTH 18 0
BBX 0 0 0 0
BITMAP
ENDCHAR
STARTCHAR C023567
ENCODING 10103
SWIDTH 1800 0
DWIDTH 18 0
BBX 0 0 0 0
BITMAP
ENDCHAR
STARTCHAR C023570
ENCODING 10104
SWIDTH 1800 0
DWIDTH 18 0
BBX 0 0 0 0
BITMAP
ENDCHAR
STARTCHAR C023571
ENCODING 10105
SWIDTH 1800 0
DWIDTH 18 0
BBX 0 0 0 0
BITMAP
ENDCHAR
STARTCHAR C023572
ENCODING 10106
SWIDTH 1800 0
DWIDTH 18 0
BBX 0 0 0 0
BITMAP
ENDCHAR
STARTCHAR C023573
ENCODING 10107
SWIDTH 1800 0
DWIDTH 18 0
BBX 0 0 0 0
BITMAP
ENDCHAR
STARTCHAR C023574
ENCODING 10108
SWIDTH 1800 0
DWIDTH 18 0
BBX 0 0 0 0
BITMAP
ENDCHAR
STARTCHAR C023575
ENCODING 10109
SWIDTH 1800 0
DWIDTH 18 0
BBX 1 14 18 -4
BITMAP
80
00
00
80
00
80
80
00
00
00
00
00
00
80
ENDCHAR
STARTCHAR C023576
ENCODING 10110
SWIDTH 1800 0
DWIDTH 18 0
BBX 0 0 0 0
BITMAP
ENDCHAR
STARTCHAR C023577
ENCODING 10111
SWIDTH 1800 0
DWIDTH 18 0
BBX 0 0 0 0
BITMAP
ENDCHAR
STARTCHAR C024040
ENCODING 10272
SWIDTH 1800 0
DWIDTH 18 0
BBX 1 1 18 0
BITMAP
80
ENDCHAR
STARTCHAR C024041
ENCODING 10273
SWIDTH 1800 0
DWIDTH 18 0
BBX 19 12 0 0
BITMAP
01FF80
01E1C0
01E0C0
036000
066600
067E20
0C6600
0FE000
186000
3060C0
3061C0
F8FFA0
ENDCHAR
STARTCHAR C024042
ENCODING 10274
SWIDTH 1800 0
DWIDTH 18 0
BBX 13 12 3 0
BITMAP
7F80
30E0
3030
3018
3018
FE18
3018
3018
3030
3030
30E0
FF80
ENDCHAR
STARTCHAR C024043
ENCODING 10275
SWIDTH 1800 0
DWIDTH 18 0
BBX 9 13 5 0
BITMAP
1800
7F00
6300
0300
1F00
7300
C300
C300
C700
7F80
0000
0000
FF80
ENDCHAR
STARTCHAR C024044
ENCODING 10276
SWIDTH 1800 0
DWIDTH 18 0
BBX 15 12 2 0
BITMAP
7EFC
1830
FFFE
1830
1830
1FF0
1830
1830
1830
1830
1830
7EFC
ENDCHAR
STARTCHAR C024045
ENCODING 10277
SWIDTH 1800 0
DWIDTH 18 0
BBX 1 1 18 0
BITMAP
80
ENDCHAR
STARTCHAR C024046
ENCODING 10278
SWIDTH 1800 0
DWIDTH 18 0
BBX 13 13 3 -1
BITMAP
7DF8
3060
3060
3060
3060
3060
3060
3060
3060
3060
3060
FFC0
0780
ENDCHAR
STARTCHAR C024047
ENCODING 10279
SWIDTH 1800 0
DWIDTH 18 0
BBX 0 0 0 0
BITMAP
ENDCHAR
STARTCHAR C024050
ENCODING 10280
SWIDTH 1800 0
DWIDTH 18 0
BBX 11 13 4 -1
BITMAP
7800
3000
3000
3000
3000
3600
3600
3000
3000
3000
3060
FFC0
0600
ENDCHAR
STARTCHAR C024051
ENCODING 10281
SWIDTH 1800 0
DWIDTH 18 0
BBX 12 12 3 0
BITMAP
3C00
1B00
1E00
1E00
1C00
1800
3800
7800
D800
1800
1870
7FE0
ENDCHAR
STARTCHAR C024052
ENCODING 10282
SWIDTH 1800 0
DWIDTH 18 0
BBX 14 14 2 -1
BITMAP
0FEC
187C
3038
6038
606C
C0CC
C18C
E30C
660C
6C0C
780C
3818
7C70
C7C0
ENDCHAR
STARTCHAR C024053
ENCODING 10283
SWIDTH 1800 0
DWIDTH 18 0
BBX 17 14 1 -1
BITMAP
060000
3FFF00
60C180
60C000
C0C000
C0CC00
C0FC00
C0CC00
C0C000
C0C000
60C000
70C180
19EF80
0F3800
ENDCHAR
STARTCHAR C024054
ENCODING 10284
SWIDTH 1800 0
DWIDTH 18 0
BBX 9 13 5 0
BITMAP
3E00
6300
C180
C180
C180
C180
C180
C180
6300
3E00
0000
0000
FF80
ENDCHAR
STARTCHAR C024055
ENCODING 10285
SWIDTH 1800 0
DWIDTH 18 0
BBX 11 12 4 0
BITMAP
F800
3000
3F80
30C0
3060
3060
3060
30E0
3FC0
3000
3000
F800
ENDCHAR
STARTCHAR C024056
ENCODING 10286
SWIDTH 1800 0
DWIDTH 18 0
BBX 13 12 3 0
BITMAP
FFF0
E630
0630
0618
0600
0600
3FC0
0600
0600
0600
0600
1F80
ENDCHAR
STARTCHAR C024057
ENCODING 10287
SWIDTH 1800 0
DWIDTH 18 0
BBX 12 13 3 -1
BITMAP
FFE0
3830
3030
3030
3030
3030
3030
3030
3030
33B0
33B0
7F60
01C0
ENDCHAR
STARTCHAR C024060
ENCODING 10288
SWIDTH 1800 0
DWIDTH 18 0
BBX 1 6 18 2
BITMAP
80
80
80
80
80
80
ENDCHAR
STARTCHAR C024061
ENCODING 10289
SWIDTH 1800 0
DWIDTH 18 0
BBX 17 16 1 -3
BITMAP
07F000
1C1C00
380E00
700700
7FFB00
C01980
C01980
C01980
C01980
C01980
C01980
601B00
701F00
380E00
1C1C00
07F000
ENDCHAR
STARTCHAR C024062
ENCODING 10290
SWIDTH 1800 0
DWIDTH 18 0
BBX 17 16 1 -3
BITMAP
07F000
1C1C00
380E00
700700
7C0300
CC0180
CC0180
CC0180
CC0180
CC1980
C7FD80
600300
700700
380E00
1C1C00
07F000
ENDCHAR
STARTCHAR C024063
ENCODING 10291
SWIDTH 1800 0
DWIDTH 18 0
BBX 17 16 1 -3
BITMAP
07F000
1C1C00
380E00
700700
7FFB00
CC0180
CC0180
CC0180
CC0180
CC0180
CFFD80
600300
700700
380E00
1C1C00
07F000
ENDCHAR
STARTCHAR C024064
ENCODING 10292
SWIDTH 1800 0
DWIDTH 18 0
BBX 17 16 1 -3
BITMAP
07F000
1C1C00
380E00
700700
7FFB00
C03180
C03180
CFF980
CC0180
CC0180
CC0180
6FFF00
700700
380E00
1C1C00
07F000
ENDCHAR
STARTCHAR C024065
ENCODING 10293
SWIDTH 1800 0
DWIDTH 18 0
BBX 17 16 1 -3
BITMAP
07F000
1C1C00
380E00
700700
7FFB00
CC1980
CC1980
CC3180
CC3180
CC3180
CFF980
6C0300
700700
380E00
1C1C00
07F000
ENDCHAR
STARTCHAR C024066
ENCODING 10294
SWIDTH 1800 0
DWIDTH 18 0
BBX 17 16 1 -3
BITMAP
07F000
1C1C00
380E00
7C3F00
661B00
C61980
C7F980
C61980
C61980
C61980
C7F980
661B00
700700
380E00
1C1C00
07F000
ENDCHAR
STARTCHAR C024067
ENCODING 10295
SWIDTH 1800 0
DWIDTH 18 0
BBX 17 16 1 -3
BITMAP
07F000
1C1C00
380E00
718700
60E300
C0C180
C1C180
C3E180
C73980
CE1D80
D80D80
600300
700700
380E00
1C1C00
07F000
ENDCHAR
STARTCHAR C024070
ENCODING 10296
SWIDTH 1800 0
DWIDTH 18 0
BBX 17 16 1 -3
BITMAP
07F000
1C1C00
380E00
70C700
63F300
C61980
CC0D80
CC0D80
CC0D80
CC0D80
C61980
63F300
700700
380E00
1C1C00
07F000
ENDCHAR
STARTCHAR C024071
ENCODING 10297
SWIDTH 1800 0
DWIDTH 18 0
BBX 17 16 1 -3
BITMAP
07F000
1C1C00
380E00
701F00
6FFB00
C61980
C03180
C06180
C0C180
C1F180
C71D80
7C0F00
700700
380E00
1C1C00
07F000
ENDCHAR
STARTCHAR C024072
ENCODING 10298
SWIDTH 1800 0
DWIDTH 18 0
BBX 17 16 1 -3
BITMAP
07F000
1C1C00
3B0E00
71E700
601B00
CFF980
C03980
C06180
C0C180
C1F180
C71D80
7C0F00
700700
380E00
1C1C00
07F000
ENDCHAR
STARTCHAR C024073
ENCODING 10299
SWIDTH 1800 0
DWIDTH 18 0
BBX 17 16 1 -3
BITMAP
07F000
1C1C00
380E00
701F00
6FFF00
C00D80
C00D80
C07980
DFD980
C01980
C03180
603300
706700
38CE00
1C1C00
07F000
ENDCHAR
STARTCHAR C024074
ENCODING 10300
SWIDTH 1800 0
DWIDTH 18 0
BBX 17 16 1 -3
BITMAP
07F000
1C1C00
380E00
703700
7FFB00
CC0180
CC0180
CFF980
CC0180
CC0180
CC0180
6FFF00
700700
380E00
1C1C00
07F000
ENDCHAR
STARTCHAR C024075
ENCODING 10301
SWIDTH 1800 0
DWIDTH 18 0
BBX 17 16 1 -3
BITMAP
07F000
1C1C00
380E00
700700
7FFF00
CC7180
C63180
C36180
C36180
C0C180
DFFF80
600300
700700
380E00
1C1C00
07F000
ENDCHAR
STARTCHAR C024076
ENCODING 10302
SWIDTH 1800 0
DWIDTH 18 0
BBX 17 16 1 -3
BITMAP
07F000
1C1C00
380E00
73E700
600300
C07F80
DFC180
C3E180
C77180
C63180
C63180
673300
73E700
380E00
1C1C00
07F000
ENDCHAR
STARTCHAR C024077
ENCODING 10303
SWIDTH 1800 0
DWIDTH 18 0
BBX 17 16 1 -3
BITMAP
07F000
1C1C00
383E00
701F00
601B00
DFD980
C19980
C19F80
C31D80
C61980
CC1980
781B00
701F00
381E00
1C1C00
07F000
ENDCHAR
STARTCHAR C024100
ENCODING 10304
SWIDTH 1800 0
DWIDTH 18 0
BBX 17 16 1 -3
BITMAP
07F000
1C1C00
383E00
701F00
701B00
D81980
D81980
D81F80
D87D80
DBD980
DE1980
601B00
701F00
381E00
1C1C00
07F000
ENDCHAR
STARTCHAR C024101
ENCODING 10305
SWIDTH 1800 0
DWIDTH 18 0
BBX 17 16 1 -3
BITMAP
07F000
1C1C00
383E00
719F00
7F9B00
D81980
D81980
D81F80
D81D80
DFD980
C01980
601B00
701F00
381E00
1C1C00
07F000
ENDCHAR
STARTCHAR C024102
ENCODING 10306
SWIDTH 1800 0
DWIDTH 18 0
BBX 17 16 1 -3
BITMAP
07F000
1C1C00
383E00
701F00
7F9B00
C19980
C19980
FF9F80
D81D80
D81980
DBD980
7E1B00
701F00
381E00
1C1C00
07F000
ENDCHAR
STARTCHAR C024103
ENCODING 10307
SWIDTH 1800 0
DWIDTH 18 0
BBX 17 16 1 -3
BITMAP
07F000
1C1C00
383E00
701F00
601B00
FF9980
D99980
D99F80
D99D80
DF9980
D81980
601B00
701F00
381E00
1C1C00
07F000
ENDCHAR
STARTCHAR C024104
ENCODING 10308
SWIDTH 1800 0
DWIDTH 18 0
BBX 17 16 1 -3
BITMAP
07F000
1C1C00
383E00
739F00
799B00
D99980
DF9980
D99F80
D99D80
D99980
DF9980
799B00
701F00
381E00
1C1C00
07F000
ENDCHAR
STARTCHAR C024105
ENCODING 10309
SWIDTH 1800 0
DWIDTH 18 0
BBX 17 16 1 -3
BITMAP
07F000
1C1C00
383E00
701F00
639B00
C31980
C71980
C71F80
CD9D80
D8D980
F01980
601B00
701F00
381E00
1C1C00
07F000
ENDCHAR
STARTCHAR C024106
ENCODING 10310
SWIDTH 1800 0
DWIDTH 18 0
BBX 17 16 1 -3
BITMAP
07F000
1C1C00
383E00
701F00
6E1B00
DF1980
F99980
F19F80
F19D80
F99980
DF1980
601B00
701F00
381E00
1C1C00
07F000
ENDCHAR
STARTCHAR C024107
ENCODING 10311
SWIDTH 1800 0
DWIDTH 18 0
BBX 17 16 1 -3
BITMAP
07F000
1C1C00
383E00
701F00
61DB00
DF9980
C39980
C31F80
C79D80
CCD980
F81980
601B00
701F00
381E00
1C1C00
07F000
ENDCHAR
STARTCHAR C024110
ENCODING 10312
SWIDTH 1800 0
DWIDTH 18 0
BBX 17 16 1 -3
BITMAP
07F000
1C1C00
383E00
761F00
631B00
DFD980
C19980
C31F80
C71D80
CDD980
D81980
601B00
701F00
381E00
1C1C00
07F000
ENDCHAR
STARTCHAR C024111
ENCODING 10313
SWIDTH 1800 0
DWIDTH 18 0
BBX 17 16 1 -3
BITMAP
07F000
1C1C00
383E00
701F00
7FDB00
C1D980
C19980
DF9F80
C31D80
C61980
CC1980
781B00
701F00
381E00
1C1C00
07F000
ENDCHAR
STARTCHAR C024112
ENCODING 10314
SWIDTH 1800 0
DWIDTH 18 0
BBX 17 16 1 -3
BITMAP
07F000
1C1C00
383E00
701F00
639B00
DE1980
D81980
DF1F80
D81D80
D9D980
DF1980
601B00
701F00
381E00
1C1C00
07F000
ENDCHAR
STARTCHAR C024113
ENCODING 10315
SWIDTH 1800 0
DWIDTH 18 0
BBX 17 16 1 -3
BITMAP
07F000
1C1C00
383E00
701F00
7FDB00
C01980
C0D980
CD9F80
CD9D80
C3F980
DE1980
601B00
701F00
381E00
1C1C00
07F000
ENDCHAR
STARTCHAR C024114
ENCODING 10316
SWIDTH 1800 0
DWIDTH 18 0
BBX 17 16 1 -3
BITMAP
07F000
1C1C00
383E00
7F1F00
60DB00
FFF980
C61980
CF9F80
D8D980
D8D980
D8D980
6F9B00
701F00
381E00
1C1C00
07F000
ENDCHAR
STARTCHAR C024115
ENCODING 10317
SWIDTH 1800 0
DWIDTH 18 0
BBX 17 16 1 -3
BITMAP
07F000
1C1C00
380E00
700700
67C300
C66180
C06180
C1E180
C76180
CC6180
CEE180
63B300
700700
380E00
1C1C00
07F000
ENDCHAR
STARTCHAR C024116
ENCODING 10318
SWIDTH 1800 0
DWIDTH 18 0
BBX 17 16 1 -3
BITMAP
07F000
1C1C00
3E0E00
760700
660300
C60180
C7F180
C61980
C61980
C61980
C61980
663B00
777700
39CE00
1C1C00
07F000
ENDCHAR
STARTCHAR C024117
ENCODING 10319
SWIDTH 1800 0
DWIDTH 18 0
BBX 17 16 1 -3
BITMAP
07F000
1C1C00
380E00
700700
63F300
C67180
C60180
C60180
C60180
C60180
C33180
61E300
700700
380E00
1C1C00
07F000
ENDCHAR
STARTCHAR C024120
ENCODING 10320
SWIDTH 1800 0
DWIDTH 18 0
BBX 17 16 1 -3
BITMAP
07F000
1C1C00
387E00
703700
603300
C03180
C7F180
C63180
CC3180
CC3180
CC3180
6C3300
777700
39DE00
1C1C00
07F000
ENDCHAR
STARTCHAR C024121
ENCODING 10321
SWIDTH 1800 0
DWIDTH 18 0
BBX 17 16 1 -3
BITMAP
07F000
1C1C00
380E00
700700
61E300
C77180
C63180
C7F180
C60180
C60180
C71980
63B300
70E700
380E00
1C1C00
07F000
ENDCHAR
STARTCHAR C024122
ENCODING 10322
SWIDTH 1800 0
DWIDTH 18 0
BBX 17 16 1 -3
BITMAP
07F000
1C1C00
38FE00
718700
618300
C18180
C7E180
C18180
C18180
C18180
C18180
618300
718700
3BEE00
1C1C00
07F000
ENDCHAR
STARTCHAR C024123
ENCODING 10323
SWIDTH 1800 0
DWIDTH 18 0
BBX 17 16 1 -3
BITMAP
07F000
1C1C00
380E00
73FF00
677300
C63180
C63180
C66180
C7C180
C3E180
CE3180
6E3B00
77F700
380E00
1C1C00
07F000
ENDCHAR
STARTCHAR C024124
ENCODING 10324
SWIDTH 1800 0
DWIDTH 18 0
BBX 17 16 1 -3
BITMAP
07F000
1C1C00
3E0E00
760700
660300
C60180
C7E180
C73180
C63180
C63180
C63180
663300
763700
380E00
1C1C00
07F000
ENDCHAR
STARTCHAR C024125
ENCODING 10325
SWIDTH 1800 0
DWIDTH 18 0
BBX 17 16 1 -3
BITMAP
07F000
1C1C00
39CE00
700700
600300
C00180
C1C180
C0C180
C0C180
C0C180
C0C180
60C300
71E700
380E00
1C1C00
07F000
ENDCHAR
STARTCHAR C024126
ENCODING 10326
SWIDTH 1800 0
DWIDTH 18 0
BBX 17 16 1 -3
BITMAP
07F000
1CDC00
380E00
700700
600300
C1C180
C0C180
C0C180
C0C180
C0C180
C0C180
60C300
70C700
3B8E00
1C1C00
07F000
ENDCHAR
STARTCHAR C024127
ENCODING 10327
SWIDTH 1800 0
DWIDTH 18 0
BBX 17 16 1 -3
BITMAP
07F000
1C1C00
3E0E00
760700
660300
C60180
C67180
C6C180
C78180
C7C180
C66180
667300
7F7F00
380E00
1C1C00
07F000
ENDCHAR
STARTCHAR C024130
ENCODING 10328
SWIDTH 1800 0
DWIDTH 18 0
BBX 17 16 1 -3
BITMAP
07F000
1C1C00
39CE00
70C700
60C300
C0C180
C0C180
C0C180
C0C180
C0C180
C0C180
60C300
70C700
380E00
1C1C00
07F000
ENDCHAR
STARTCHAR C024131
ENCODING 10329
SWIDTH 1800 0
DWIDTH 18 0
BBX 17 16 1 -3
BITMAP
07F000
1C1C00
380E00
700700
7FBF00
DCE780
D8C780
D8C780
D8C780
D8C780
D8C780
600300
700700
380E00
1C1C00
07F000
ENDCHAR
STARTCHAR C024132
ENCODING 10330
SWIDTH 1800 0
DWIDTH 18 0
BBX 17 16 1 -3
BITMAP
07F000
1C1C00
380E00
700700
6FE300
C73180
C63180
C63180
C63180
C63180
C63180
600300
700700
380E00
1C1C00
07F000
ENDCHAR
STARTCHAR C024133
ENCODING 10331
SWIDTH 1800 0
DWIDTH 18 0
BBX 17 16 1 -3
BITMAP
07F000
1C1C00
380E00
700700
63E300
C63180
CC1980
CC1980
CC1980
CC1980
C63180
63E300
700700
380E00
1C1C00
07F000
ENDCHAR
STARTCHAR C024134
ENCODING 10332
SWIDTH 1800 0
DWIDTH 18 0
BBX 17 16 1 -3
BITMAP
07F000
1C1C00
380E00
73E700
63B300
C31980
C31980
C31980
C31980
C33180
C3E180
630300
778700
380E00
1C1C00
07F000
ENDCHAR
STARTCHAR C024135
ENCODING 10333
SWIDTH 1800 0
DWIDTH 18 0
BBX 17 16 1 -3
BITMAP
07F000
1C1C00
380E00
77E700
6C6300
CC6180
CC6180
CC6180
CC6180
C6E180
C3E180
606300
70F700
380E00
1C1C00
07F000
ENDCHAR
STARTCHAR C024136
ENCODING 10334
SWIDTH 1800 0
DWIDTH 18 0
BBX 17 16 1 -3
BITMAP
07F000
1C1C00
380E00
700700
61B300
C1F180
C18180
C18180
C18180
C18180
C18180
63C300
700700
380E00
1C1C00
07F000
ENDCHAR
STARTCHAR C024137
ENCODING 10335
SWIDTH 1800 0
DWIDTH 18 0
BBX 17 16 1 -3
BITMAP
07F000
1C1C00
380E00
700700
63E300
C33180
C30180
C1C180
C07180
C63180
C73180
61E300
700700
380E00
1C1C00
07F000
ENDCHAR
STARTCHAR C024140
ENCODING 10336
SWIDTH 1800 0
DWIDTH 18 0
BBX 17 16 1 -3
BITMAP
07F000
1C1C00
380E00
718700
618300
C3E180
C18180
C18180
C18180
C18180
C18180
618300
70E700
380E00
1C1C00
07F000
ENDCHAR
STARTCHAR C024141
ENCODING 10337
SWIDTH 1800 0
DWIDTH 18 0
BBX 17 16 1 -3
BITMAP
07F000
1C1C00
380E00
700700
603300
C63180
C63180
C63180
C63180
C63180
C67180
63FB00
700700
380E00
1C1C00
07F000
ENDCHAR
STARTCHAR C024142
ENCODING 10338
SWIDTH 1800 0
DWIDTH 18 0
BBX 17 16 1 -3
BITMAP
07F000
1C1C00
380E00
700700
6F7B00
C63180
C36180
C36180
C3E180
C1C180
C1C180
600300
700700
380E00
1C1C00
07F000
ENDCHAR
STARTCHAR C024143
ENCODING 10339
SWIDTH 1800 0
DWIDTH 18 0
BBX 17 16 1 -3
BITMAP
07F000
1C1C00
380E00
700700
600300
DCCD80
CCCD80
CDD980
CFF980
C77180
C73180
603300
700700
380E00
1C1C00
07F000
ENDCHAR
STARTCHAR C024144
ENCODING 10340
SWIDTH 1800 0
DWIDTH 18 0
BBX 17 16 1 -3
BITMAP
07F000
1C1C00
380E00
700700
6FFB00
C36180
C1C180
C1C180
C1C180
C36180
C63180
600300
700700
380E00
1C1C00
07F000
ENDCHAR
STARTCHAR C024145
ENCODING 10341
SWIDTH 1800 0
DWIDTH 18 0
BBX 17 16 1 -3
BITMAP
07F000
1C1C00
380E00
77BF00
633300
C33180
C1E180
C1E180
C1C180
C0C180
C0C180
618300
770700
380E00
1C1C00
07F000
ENDCHAR
STARTCHAR C024146
ENCODING 10342
SWIDTH 1800 0
DWIDTH 18 0
BBX 17 16 1 -3
BITMAP
07F000
1C1C00
380E00
700700
63F300
C06180
C06180
C0C180
C18180
C30180
C63180
67E300
700700
380E00
1C1C00
07F000
ENDCHAR
STARTCHAR C024147
ENCODING 10343
SWIDTH 1800 0
DWIDTH 18 0
BBX 17 16 1 -3
BITMAP
07F000
1C1C00
3F8E00
718700
618300
C18180
C18180
C18180
C18180
C18180
C18180
618300
77E700
380E00
1C1C00
07F000
ENDCHAR
STARTCHAR C024150
ENCODING 10344
SWIDTH 1800 0
DWIDTH 18 0
BBX 17 16 1 -3
BITMAP
07F000
1C1C00
38CE00
73F700
663300
C73180
C03180
C06180
C0C180
C18180
C30180
663300
77F700
380E00
1C1C00
07F000
ENDCHAR
STARTCHAR C024151
ENCODING 10345
SWIDTH 1800 0
DWIDTH 18 0
BBX 17 16 1 -3
BITMAP
07F000
1C1C00
39EE00
777700
673300
C03180
C06180
C1C180
C06180
C03180
C03180
6E3300
766700
3BCE00
1C1C00
07F000
ENDCHAR
STARTCHAR C024152
ENCODING 10346
SWIDTH 1800 0
DWIDTH 18 0
BBX 17 16 1 -3
BITMAP
07F000
1C1C00
38CE00
70C700
61C300
C3C180
C3C180
C6C180
CCC180
CCC180
CFF180
60C300
70C700
386E00
1C1C00
07F000
ENDCHAR
STARTCHAR C024153
ENCODING 10347
SWIDTH 1800 0
DWIDTH 18 0
BBX 17 16 1 -3
BITMAP
07F000
1C1C00
3FEE00
760700
660300
C60180
C7C180
C77180
C03180
C03180
C63180
663300
766600
3BCE00
1C1C00
07F000
ENDCHAR
STARTCHAR C024154
ENCODING 10348
SWIDTH 1800 0
DWIDTH 18 0
BBX 17 16 1 -3
BITMAP
07F000
1C1C00
380E00
71F700
633B00
C30180
C60180
C7E180
C63180
C63180
C63180
663300
737700
39EE00
1C1C00
07F000
ENDCHAR
STARTCHAR C024155
ENCODING 10349
SWIDTH 1800 0
DWIDTH 18 0
BBX 17 16 1 -3
BITMAP
07F000
1C1C00
380E00
77FF00
663300
C06180
C06180
C0C180
C0C180
C18180
C18180
618300
738700
3B8E00
1C1C00
07F000
ENDCHAR
STARTCHAR C024156
ENCODING 10350
SWIDTH 1800 0
DWIDTH 18 0
BBX 17 16 1 -3
BITMAP
07F000
1C1C00
33EE00
773700
663300
C63180
C76180
C1C180
C37180
C63180
CC3980
6E3B00
763700
3BEE00
1C1C00
07F000
ENDCHAR
STARTCHAR C024157
ENCODING 10351
SWIDTH 1800 0
DWIDTH 18 0
BBX 17 16 1 -3
BITMAP
07F000
1C1C00
3BCE00
736700
663300
C63180
C63180
C63180
C3F180
C1B180
C03180
666300
77C700
398E00
1C1C00
07F000
ENDCHAR
STARTCHAR C024160
ENCODING 10352
SWIDTH 1800 0
DWIDTH 18 0
BBX 17 16 1 -3
BITMAP
07F000
1C1C00
380E00
7E3F00
663F00
C66780
C66780
C66780
C66780
C66780
C66780
7FBF00
703F00
380E00
1C1C00
07F000
ENDCHAR
STARTCHAR C024161
ENCODING 10353
SWIDTH 1800 0
DWIDTH 18 0
BBX 17 16 1 -3
BITMAP
07F000
1C1C00
380E00
7E7F00
661B00
C61980
C61980
C61980
C61980
C61980
C61980
7FFF00
700700
380E00
1C1C00
07F000
ENDCHAR
STARTCHAR C024162
ENCODING 10354
SWIDTH 1800 0
DWIDTH 18 0
BBX 17 16 1 -3
BITMAP
07F000
1C1C00
380E00
7C7F00
6C6700
CC6780
CC0D80
CC1980
CC3180
CC6180
CC6780
7F7F00
700700
380E00
1C1C00
07F000
ENDCHAR
STARTCHAR C024163
ENCODING 10355
SWIDTH 1800 0
DWIDTH 18 0
BBX 17 16 1 -3
BITMAP
07F000
1C1C00
380E00
7C7F00
6C6700
CC0D80
CC1980
CC0D80
CC0780
CC6780
CCE780
7F3F00
700700
380E00
1C1C00
07F000
ENDCHAR
STARTCHAR C024164
ENCODING 10356
SWIDTH 1800 0
DWIDTH 18 0
BBX 17 16 1 -3
BITMAP
07F000
1C1C00
380E00
7E0F00
661F00
C63D80
C63D80
C66D80
C66D80
C67F80
C60D80
7F8F00
700700
380E00
1C1C00
07F000
ENDCHAR
STARTCHAR C024165
ENCODING 10357
SWIDTH 1800 0
DWIDTH 18 0
BBX 17 16 1 -3
BITMAP
07F000
1C1C00
380E00
76FF00
6EC300
C6C180
C6C180
C6FD80
C60780
C60780
C66780
666F00
7F3F00
380E00
1C1C00
07F000
ENDCHAR
STARTCHAR C024166
ENCODING 10358
SWIDTH 1800 0
DWIDTH 18 0
BBX 14 15 2 -2
BITMAP
3000
300C
3018
3030
3060
30C0
3180
7B78
06CC
06CC
0C0C
1838
3060
60C0
C0FC
ENDCHAR
STARTCHAR C024167
ENCODING 10359
SWIDTH 1800 0
DWIDTH 18 0
BBX 15 16 2 -3
BITMAP
3000
300C
3018
3030
3060
30C0
3180
7B00
06FC
06CC
0C0C
1838
300C
60CE
C0CC
0078
ENDCHAR
STARTCHAR C024170
ENCODING 10360
SWIDTH 1800 0
DWIDTH 18 0
BBX 15 16 2 -3
BITMAP
7C06
C60C
E618
0C30
3860
6060
C6C0
FD80
037C
0666
0C06
181C
300E
60E6
00C6
007C
ENDCHAR
STARTCHAR C024171
ENCODING 10361
SWIDTH 1800 0
DWIDTH 18 0
BBX 15 15 2 -2
BITMAP
7006
300C
3018
3030
3060
30C0
3180
0300
0330
06F0
0DB0
1B30
3330
63F8
C030
ENDCHAR
STARTCHAR C024172
ENCODING 10362
SWIDTH 1800 0
DWIDTH 18 0
BBX 15 15 2 -2
BITMAP
7C06
660C
6618
0C30
1E30
E660
C6C0
7D80
0318
0678
0CD8
1998
1998
31FC
6018
ENDCHAR
STARTCHAR C024173
ENCODING 10363
SWIDTH 1800 0
DWIDTH 18 0
BBX 15 16 2 -3
BITMAP
3000
300C
3018
3030
3060
30C0
3180
7B00
037C
06C6
0CC6
187C
30CE
60C6
C0C6
007C
ENDCHAR
STARTCHAR C024174
ENCODING 10364
SWIDTH 1800 0
DWIDTH 18 0
BBX 15 16 2 -3
BITMAP
7C06
EE0C
0618
0C30
1E30
C660
C6C0
7D80
337C
06C6
0CC6
187C
30CE
30C6
60C6
007C
ENDCHAR
STARTCHAR C024175
ENCODING 10365
SWIDTH 1800 0
DWIDTH 18 0
BBX 15 16 2 -3
BITMAP
FE06
C00C
C018
FC30
0660
C6C0
C6C0
7DFC
03CE
06C6
0C6C
18FE
30C6
60C6
00CC
0078
ENDCHAR
STARTCHAR C024176
ENCODING 10366
SWIDTH 1800 0
DWIDTH 18 0
BBX 15 16 2 -3
BITMAP
7E00
060C
0C18
0C30
1860
18C0
1980
1B00
067C
06C6
0CC6
187C
30EE
60C6
C0C6
007C
ENDCHAR
STARTCHAR C024177
ENCODING 10367
SWIDTH 1800 0
DWIDTH 18 0
BBX 0 0 0 0
BITMAP
ENDCHAR
STARTCHAR C024440
ENCODING 10528
SWIDTH 1800 0
DWIDTH 18 0
BBX 0 0 0 0
BITMAP
ENDCHAR
STARTCHAR C024441
ENCODING 10529
SWIDTH 1800 0
DWIDTH 18 0
BBX 13 9 3 -1
BITMAP
7DE0
E730
E618
07F8
7E00
C600
C718
FFF0
3000
ENDCHAR
STARTCHAR C024442
ENCODING 10530
SWIDTH 1800 0
DWIDTH 18 0
BBX 10 13 5 -1
BITMAP
0F00
0300
1FC0
0300
3F00
6700
C300
C300
C300
C300
E300
7700
1C00
ENDCHAR
STARTCHAR C024443
ENCODING 10531
SWIDTH 1800 0
DWIDTH 18 0
BBX 9 12 5 -1
BITMAP
1B00
0E00
3E00
0700
3F00
E780
C180
C180
C180
C180
6300
3E00
ENDCHAR
STARTCHAR C024444
ENCODING 10532
SWIDTH 1800 0
DWIDTH 18 0
BBX 10 12 4 0
BITMAP
7000
3000
FE00
3000
3F00
3980
3180
3180
3180
3180
3180
71C0
ENDCHAR
STARTCHAR C024445
ENCODING 10533
SWIDTH 1800 0
DWIDTH 18 0
BBX 4 8 8 0
BITMAP
E0
60
60
60
60
60
60
70
ENDCHAR
STARTCHAR C024446
ENCODING 10534
SWIDTH 1800 0
DWIDTH 18 0
BBX 8 14 5 -2
BITMAP
63
63
00
00
E7
63
63
63
63
63
63
73
0F
0E
ENDCHAR
STARTCHAR C024447
ENCODING 10535
SWIDTH 1800 0
DWIDTH 18 0
BBX 8 8 6 0
BITMAP
EF
CC
D8
F8
F8
DC
CE
CF
ENDCHAR
STARTCHAR C024450
ENCODING 10536
SWIDTH 1800 0
DWIDTH 18 0
BBX 6 12 6 0
BITMAP
E0
60
60
60
60
6C
6C
60
60
60
60
70
ENDCHAR
STARTCHAR C024451
ENCODING 10537
SWIDTH 1800 0
DWIDTH 18 0
BBX 7 13 7 0
BITMAP
30
30
36
3C
38
30
30
70
F0
F0
30
30
78
ENDCHAR
STARTCHAR C024452
ENCODING 10538
SWIDTH 1800 0
DWIDTH 18 0
BBX 10 10 4 -1
BITMAP
0E00
3BC0
61C0
63C0
E6C0
6CC0
78C0
3180
7F00
0C00
ENDCHAR
STARTCHAR C024453
ENCODING 10539
SWIDTH 1800 0
DWIDTH 18 0
BBX 14 9 3 -1
BITMAP
7FF8
C30C
C30C
C3F8
C300
C300
C78C
7FF8
1800
ENDCHAR
STARTCHAR C024454
ENCODING 10540
SWIDTH 1800 0
DWIDTH 18 0
BBX 9 14 5 -1
BITMAP
3E00
7700
6300
6300
6300
6700
6E00
6300
6380
6180
6180
7B00
FF00
0600
ENDCHAR
STARTCHAR C024455
ENCODING 10541
SWIDTH 1800 0
DWIDTH 18 0
BBX 9 14 5 -2
BITMAP
E000
6000
6000
6000
7F00
6300
6180
6180
6180
6180
6300
7700
7C00
F000
ENDCHAR
STARTCHAR C024456
ENCODING 10542
SWIDTH 1800 0
DWIDTH 18 0
BBX 6 12 7 0
BITMAP
60
60
60
FC
60
70
60
60
60
60
60
7C
ENDCHAR
STARTCHAR C024457
ENCODING 10543
SWIDTH 1800 0
DWIDTH 18 0
BBX 9 12 5 -4
BITMAP
FF00
7180
6180
6180
6180
6180
6180
7180
0D80
0D80
0F00
0600
ENDCHAR
STARTCHAR C024460
ENCODING 10544
SWIDTH 1800 0
DWIDTH 18 0
BBX 12 11 3 0
BITMAP
7000
6000
C000
DFC0
0E60
0C60
0C60
0C60
0C60
0C60
1EF0
ENDCHAR
STARTCHAR C024461
ENCODING 10545
SWIDTH 1800 0
DWIDTH 18 0
BBX 17 13 1 -2
BITMAP
700600
600300
7FFB00
C01980
C01980
C01980
C01980
C01980
C01980
601B00
600300
300600
180C00
ENDCHAR
STARTCHAR C024462
ENCODING 10546
SWIDTH 1800 0
DWIDTH 18 0
BBX 17 14 1 -2
BITMAP
300000
600600
600300
CE0300
C60180
C60180
C60180
C60180
C60180
C7FF80
600300
600300
300600
000C00
ENDCHAR
STARTCHAR C024463
ENCODING 10547
SWIDTH 1800 0
DWIDTH 18 0
BBX 17 13 1 -2
BITMAP
700600
601B00
7FFB00
CC0180
CC0180
CC0180
CC0180
CC0180
CFFD80
600300
600300
300600
180C00
ENDCHAR
STARTCHAR C024464
ENCODING 10548
SWIDTH 1800 0
DWIDTH 18 0
BBX 17 13 1 -2
BITMAP
700600
600300
7FFB00
C03180
C03180
DFF180
CC0180
CC0180
CC0180
6FFF00
600300
300600
180C00
ENDCHAR
STARTCHAR C024465
ENCODING 10549
SWIDTH 1800 0
DWIDTH 18 0
BBX 17 13 1 -2
BITMAP
700600
600300
600300
CFFD80
C60D80
C60D80
C61980
C61980
C7FD80
660300
600300
300600
180C00
ENDCHAR
STARTCHAR C024466
ENCODING 10550
SWIDTH 1800 0
DWIDTH 18 0
BBX 17 13 1 -2
BITMAP
700600
6C3B00
661B00
C61980
C7F980
C61980
C61980
C61980
C7F980
661B00
600300
300600
180C00
ENDCHAR
STARTCHAR C024467
ENCODING 10551
SWIDTH 1800 0
DWIDTH 18 0
BBX 17 13 1 -2
BITMAP
700600
618300
60E300
C0C180
C1C180
C1E180
C33180
C61D80
CC0D80
600300
600300
300600
180C00
ENDCHAR
STARTCHAR C024470
ENCODING 10552
SWIDTH 1800 0
DWIDTH 18 0
BBX 17 14 1 -2
BITMAP
000600
700600
618300
63E300
C63180
CC1980
CC1980
CC1980
CC1980
C63300
63E300
600600
300600
180C00
ENDCHAR
STARTCHAR C024471
ENCODING 10553
SWIDTH 1800 0
DWIDTH 18 0
BBX 17 13 1 -2
BITMAP
700600
601B00
7FFB00
CE3980
C03180
C06180
C0C180
C3F180
C61980
7C0F00
600300
300600
180C00
ENDCHAR
STARTCHAR C024472
ENCODING 10554
SWIDTH 1800 0
DWIDTH 18 0
BBX 17 13 1 -2
BITMAP
700600
63E300
600300
C01980
CFF980
C07180
C0C180
C1E180
C73980
7C0F00
600300
300600
180C00
ENDCHAR
STARTCHAR C024473
ENCODING 10555
SWIDTH 1800 0
DWIDTH 18 0
BBX 17 13 1 -2
BITMAP
700600
600F00
6FFF00
C60D80
C01980
C07980
CFD980
C01980
C03180
603300
606300
30C600
180C00
ENDCHAR
STARTCHAR C024474
ENCODING 10556
SWIDTH 1800 0
DWIDTH 18 0
BBX 17 13 1 -2
BITMAP
700600
603B00
7FFB00
CC0180
CC3180
CFF980
CC0180
CC0180
CC0180
6FFF00
600300
300600
180C00
ENDCHAR
STARTCHAR C024475
ENCODING 10557
SWIDTH 1800 0
DWIDTH 18 0
BBX 17 13 1 -2
BITMAP
300600
600300
7FFF00
C00180
C67180
C33180
C36180
C06180
C0C180
DFFF00
600300
600600
300C00
ENDCHAR
STARTCHAR C024476
ENCODING 10558
SWIDTH 1800 0
DWIDTH 18 0
BBX 17 13 1 -2
BITMAP
700600
63E300
600300
C00180
DFFF80
C3E180
C73180
C63180
C63180
677300
63E300
300600
180C00
ENDCHAR
STARTCHAR C024477
ENCODING 10559
SWIDTH 1800 0
DWIDTH 18 0
BBX 17 14 1 -2
BITMAP
003800
701E00
601B00
7FDB00
CCD980
C19980
C31980
C71F80
CC1980
D81980
601B00
601B00
301E00
180C00
ENDCHAR
STARTCHAR C024500
ENCODING 10560
SWIDTH 1800 0
DWIDTH 18 0
BBX 17 14 1 -2
BITMAP
003000
701E00
601B00
781B00
D81980
D81980
D81F80
D81D80
D9D980
DF1980
601B00
601B00
301E00
180C00
ENDCHAR
STARTCHAR C024501
ENCODING 10561
SWIDTH 1800 0
DWIDTH 18 0
BBX 17 13 1 -2
BITMAP
701E00
619B00
7FDB00
D81980
D81980
D81F80
D81D80
D8F980
DF9980
601B00
601B00
301E00
180C00
ENDCHAR
STARTCHAR C024502
ENCODING 10562
SWIDTH 1800 0
DWIDTH 18 0
BBX 17 14 1 -2
BITMAP
003000
701E00
601B00
7FDB00
C19980
C19980
DF9F80
D81D80
D81980
D9D980
7F1B00
601B00
301E00
180C00
ENDCHAR
STARTCHAR C024503
ENCODING 10563
SWIDTH 1800 0
DWIDTH 18 0
BBX 17 14 1 -2
BITMAP
003000
701E00
601B00
7FDB00
D99980
D99980
D99F80
D99D80
DF9980
D81980
601B00
601B00
301E00
180C00
ENDCHAR
STARTCHAR C024504
ENCODING 10564
SWIDTH 1800 0
DWIDTH 18 0
BBX 17 14 1 -2
BITMAP
003000
701E00
601B00
639B00
D99980
D99980
DF9F80
D99D80
D99980
DF9980
781B00
601B00
301E00
180C00
ENDCHAR
STARTCHAR C024505
ENCODING 10565
SWIDTH 1800 0
DWIDTH 18 0
BBX 17 14 1 -2
BITMAP
003800
701E00
661B00
639B00
C31980
C61980
C71F80
CDDD80
D8D980
C01980
601B00
601B00
301E00
180C00
ENDCHAR
STARTCHAR C024506
ENCODING 10566
SWIDTH 1800 0
DWIDTH 18 0
BBX 17 14 1 -2
BITMAP
003800
701E00
661B00
7F9B00
F9D980
F0D980
F0DF80
F9D980
DF9980
C01980
601B00
601B00
301E00
180C00
ENDCHAR
STARTCHAR C024507
ENCODING 10567
SWIDTH 1800 0
DWIDTH 18 0
BBX 17 14 1 -2
BITMAP
003000
701E00
601B00
63DB00
CF9980
C31980
C71F80
CF9D80
D8D980
F01980
601B00
601B00
301E00
180C00
ENDCHAR
STARTCHAR C024510
ENCODING 10568
SWIDTH 1800 0
DWIDTH 18 0
BBX 17 14 1 -2
BITMAP
003800
701E00
6F9B00
601B00
DFD980
C19980
C31F80
C79D80
CCD980
F81980
601B00
601B00
301E00
180C00
ENDCHAR
STARTCHAR C024511
ENCODING 10569
SWIDTH 1800 0
DWIDTH 18 0
BBX 17 14 1 -2
BITMAP
003000
701E00
601B00
7FDB00
C19980
C39980
DF1980
C61F80
CC1980
D81980
701B00
601B00
301E00
180C00
ENDCHAR
STARTCHAR C024512
ENCODING 10570
SWIDTH 1800 0
DWIDTH 18 0
BBX 17 13 1 -2
BITMAP
701E00
601B00
7F9B00
D81980
D81980
DF9F80
D81D80
D81980
DFD980
7C1B00
601B00
301E00
180C00
ENDCHAR
STARTCHAR C024513
ENCODING 10571
SWIDTH 1800 0
DWIDTH 18 0
BBX 17 14 1 -2
BITMAP
003000
701E00
601B00
7FDB00
C01980
CCD980
CD9F80
CD9D80
C1D980
DF1980
601B00
601B00
301E00
180C00
ENDCHAR
STARTCHAR C024514
ENCODING 10572
SWIDTH 1800 0
DWIDTH 18 0
BBX 17 14 1 -2
BITMAP
003600
701E00
679B00
601B00
FFF980
C31980
CF9F80
CCDD80
CCD980
CF9B00
601B00
601E00
301E00
180000
ENDCHAR
STARTCHAR C024515
ENCODING 10573
SWIDTH 1800 0
DWIDTH 18 0
BBX 17 13 1 -2
BITMAP
700600
600300
67C300
C66180
C06180
C1E180
C76180
CE6180
CEE180
67B300
600300
300600
180C00
ENDCHAR
STARTCHAR C024516
ENCODING 10574
SWIDTH 1800 0
DWIDTH 18 0
BBX 17 13 1 -2
BITMAP
7E0600
660300
660300
C60180
C7F180
C63980
C61980
C61980
C61980
663B00
677300
31C600
180C00
ENDCHAR
STARTCHAR C024517
ENCODING 10575
SWIDTH 1800 0
DWIDTH 18 0
BBX 17 13 1 -2
BITMAP
700600
600300
63F300
C73180
C60180
C60180
C60180
C60180
C33180
61E300
600300
300600
180C00
ENDCHAR
STARTCHAR C024520
ENCODING 10576
SWIDTH 1800 0
DWIDTH 18 0
BBX 17 13 1 -2
BITMAP
707600
603300
603300
C03180
C7F180
CE3180
CC3180
CC3180
CC3180
663300
63F300
301E00
180C00
ENDCHAR
STARTCHAR C024521
ENCODING 10577
SWIDTH 1800 0
DWIDTH 18 0
BBX 17 13 1 -2
BITMAP
700600
61E300
636300
C63180
C63180
C7F180
C60180
C60180
C60180
63B300
60E300
300600
180C00
ENDCHAR
STARTCHAR C024522
ENCODING 10578
SWIDTH 1800 0
DWIDTH 18 0
BBX 17 13 1 -2
BITMAP
70F600
618300
618300
C18180
C7E180
C18180
C18180
C18180
C18180
618300
618300
33C600
180C00
ENDCHAR
STARTCHAR C024523
ENCODING 10579
SWIDTH 1800 0
DWIDTH 18 0
BBX 17 13 1 -2
BITMAP
700600
67FB00
666300
C67180
C66180
C3C180
C60180
C3E180
CE3180
6C3300
67E300
300600
180C00
ENDCHAR
STARTCHAR C024524
ENCODING 10580
SWIDTH 1800 0
DWIDTH 18 0
BBX 17 13 1 -2
BITMAP
7E0600
660300
660300
C60180
C7F180
C73180
C63180
C63180
C63180
663300
663300
300600
180C00
ENDCHAR
STARTCHAR C024525
ENCODING 10581
SWIDTH 1800 0
DWIDTH 18 0
BBX 17 13 1 -2
BITMAP
71C600
600300
600300
C00180
C1C180
C0C180
C0C180
C0C180
C0C180
60C300
60C300
300600
180C00
ENDCHAR
STARTCHAR C024526
ENCODING 10582
SWIDTH 1800 0
DWIDTH 18 0
BBX 17 14 1 -2
BITMAP
00C000
300600
600300
600300
C1C180
C0C180
C0C180
C0C180
C0C180
C0C180
60C300
60C300
338600
180C00
ENDCHAR
STARTCHAR C024527
ENCODING 10583
SWIDTH 1800 0
DWIDTH 18 0
BBX 17 13 1 -2
BITMAP
7E0600
660300
660300
C60180
C67180
C6C180
C78180
C7C180
C6E180
666300
677300
300600
180C00
ENDCHAR
STARTCHAR C024530
ENCODING 10584
SWIDTH 1800 0
DWIDTH 18 0
BBX 17 13 1 -2
BITMAP
71C600
60C300
60C300
C0C180
C0C180
C0C180
C0C180
C0C180
C0C180
60C300
60C300
300600
180C00
ENDCHAR
STARTCHAR C024531
ENCODING 10585
SWIDTH 1800 0
DWIDTH 18 0
BBX 17 13 1 -2
BITMAP
700600
600300
7FFF00
DCCD80
D8CD80
D8CD80
D8CD80
D8CD80
D8CD80
600300
600300
300600
180C00
ENDCHAR
STARTCHAR C024532
ENCODING 10586
SWIDTH 1800 0
DWIDTH 18 0
BBX 17 13 1 -2
BITMAP
700600
600300
6FE300
C73180
C63180
C63180
C63180
C63180
C63180
600300
600300
300600
180C00
ENDCHAR
STARTCHAR C024533
ENCODING 10587
SWIDTH 1800 0
DWIDTH 18 0
BBX 17 13 1 -2
BITMAP
700600
600300
63E300
C36180
C63180
C63180
C63180
C63180
C36180
63C300
600300
300600
180C00
ENDCHAR
STARTCHAR C024534
ENCODING 10588
SWIDTH 1800 0
DWIDTH 18 0
BBX 17 13 1 -2
BITMAP
700600
63F300
63BB00
C31980
C31980
C31980
C31980
C33180
C3E180
630300
630300
300600
180C00
ENDCHAR
STARTCHAR C024535
ENCODING 10589
SWIDTH 1800 0
DWIDTH 18 0
BBX 17 13 1 -2
BITMAP
700600
638300
66E300
CC6180
CC6180
CC6180
CC6180
C66180
C3E180
606300
60F300
300600
180C00
ENDCHAR
STARTCHAR C024536
ENCODING 10590
SWIDTH 1800 0
DWIDTH 18 0
BBX 17 13 1 -2
BITMAP
700600
600300
63FB00
C1C180
C18180
C18180
C18180
C18180
C18180
600300
600300
300600
180C00
ENDCHAR
STARTCHAR C024537
ENCODING 10591
SWIDTH 1800 0
DWIDTH 18 0
BBX 17 13 1 -2
BITMAP
700600
600300
63E300
C63180
C30180
C1E180
C03180
C63180
C33180
61E300
600300
300600
180C00
ENDCHAR
STARTCHAR C024540
ENCODING 10592
SWIDTH 1800 0
DWIDTH 18 0
BBX 17 13 1 -2
BITMAP
700600
618300
618300
C3E180
C18180
C18180
C18180
C18180
C18180
618300
60E300
300600
180C00
ENDCHAR
STARTCHAR C024541
ENCODING 10593
SWIDTH 1800 0
DWIDTH 18 0
BBX 17 13 1 -2
BITMAP
700600
600300
6E7300
C63180
C63180
C63180
C63180
C63180
C7F180
618300
600300
300600
180C00
ENDCHAR
STARTCHAR C024542
ENCODING 10594
SWIDTH 1800 0
DWIDTH 18 0
BBX 17 13 1 -2
BITMAP
700600
600300
600300
C63180
C76180
C36180
C36180
C1C180
C1C180
600300
600300
300600
180C00
ENDCHAR
STARTCHAR C024543
ENCODING 10595
SWIDTH 1800 0
DWIDTH 18 0
BBX 17 13 1 -2
BITMAP
700600
600300
600300
D9CD80
CCD980
CDD980
CF7980
C77180
C77180
600300
600300
300600
180C00
ENDCHAR
STARTCHAR C024544
ENCODING 10596
SWIDTH 1800 0
DWIDTH 18 0
BBX 17 13 1 -2
BITMAP
700600
600300
6F7B00
C36180
C3C180
C18180
C3C180
C36180
C63180
600300
600300
300600
180C00
ENDCHAR
STARTCHAR C024545
ENCODING 10597
SWIDTH 1800 0
DWIDTH 18 0
BBX 17 13 1 -2
BITMAP
700600
600300
673B00
C33180
C36180
C1E180
C1E180
C1C180
C0C180
618300
678300
300600
180C00
ENDCHAR
STARTCHAR C024546
ENCODING 10598
SWIDTH 1800 0
DWIDTH 18 0
BBX 17 14 1 -2
BITMAP
000600
700600
600300
63F300
C36180
C6C180
C0C180
C18180
C30180
C63300
67E300
600600
300600
180C00
ENDCHAR
STARTCHAR C024547
ENCODING 10599
SWIDTH 1800 0
DWIDTH 18 0
BBX 17 13 1 -2
BITMAP
73C600
60C300
60C300
C0C180
C0C180
C0C180
C0C180
C0C180
C0C180
60C300
60C300
33FE00
180C00
ENDCHAR
STARTCHAR C024550
ENCODING 10600
SWIDTH 1800 0
DWIDTH 18 0
BBX 17 14 1 -2
BITMAP
01E000
773600
663B00
663300
C03180
C06180
C0C180
C18180
C30180
C61980
6C3300
67F300
300600
180C00
ENDCHAR
STARTCHAR C024551
ENCODING 10601
SWIDTH 1800 0
DWIDTH 18 0
BBX 17 13 1 -2
BITMAP
77E600
663300
603300
C03180
C06180
C1C180
C07180
C01980
C01980
661B00
663300
33E600
180C00
ENDCHAR
STARTCHAR C024552
ENCODING 10602
SWIDTH 1800 0
DWIDTH 18 0
BBX 17 13 1 -2
BITMAP
70C600
61C300
63C300
C3C180
C6C180
CCC180
CCC180
D8C180
DFF180
60C300
60C300
31E600
180C00
ENDCHAR
STARTCHAR C024553
ENCODING 10603
SWIDTH 1800 0
DWIDTH 18 0
BBX 17 13 1 -2
BITMAP
77F600
660300
660300
C60180
C6C180
C7F180
C01980
C01980
C01980
671B00
663300
33E600
18CC00
ENDCHAR
STARTCHAR C024554
ENCODING 10604
SWIDTH 1800 0
DWIDTH 18 0
BBX 17 14 1 -2
BITMAP
00C000
73F600
667300
660300
CC0180
CDE180
CF3180
CC1980
CC1980
CC1980
6C1B00
663300
33E600
180C00
ENDCHAR
STARTCHAR C024555
ENCODING 10605
SWIDTH 1800 0
DWIDTH 18 0
BBX 17 13 1 -2
BITMAP
77FE00
663300
603300
C06180
C0C180
C0C180
C0C180
C18180
C18180
618300
638300
300600
180C00
ENDCHAR
STARTCHAR C024556
ENCODING 10606
SWIDTH 1800 0
DWIDTH 18 0
BBX 17 13 1 -2
BITMAP
73E600
663300
663300
C63180
C66180
C3E180
C77180
C63980
CC1980
663300
663300
33E600
180C00
ENDCHAR
STARTCHAR C024557
ENCODING 10607
SWIDTH 1800 0
DWIDTH 18 0
BBX 17 13 1 -2
BITMAP
71C600
676300
663300
C63180
C63180
C63180
C3F180
C1B180
C03180
666300
66C300
338600
180C00
ENDCHAR
STARTCHAR C024560
ENCODING 10608
SWIDTH 1800 0
DWIDTH 18 0
BBX 17 14 1 -2
BITMAP
007800
767E00
6ECF00
66CF00
C6CD80
C6CD80
C6CD80
C6CD80
C6CD80
C6CD80
66DB00
667300
300600
180C00
ENDCHAR
STARTCHAR C024561
ENCODING 10609
SWIDTH 1800 0
DWIDTH 18 0
BBX 17 13 1 -2
BITMAP
700600
7E7B00
661B00
C61980
C61980
C61980
C61980
C61980
C61980
7FFF00
600300
300600
180C00
ENDCHAR
STARTCHAR C024562
ENCODING 10610
SWIDTH 1800 0
DWIDTH 18 0
BBX 17 14 1 -2
BITMAP
300000
600600
7C7F00
CC6700
CC6780
CC0D80
CC1980
CC3180
CC6180
CC6780
7F7F00
600300
300600
000C00
ENDCHAR
STARTCHAR C024563
ENCODING 10611
SWIDTH 1800 0
DWIDTH 18 0
BBX 17 13 1 -2
BITMAP
700600
7C7F00
6C6700
CC0D80
CC1980
CC0D80
CC0780
CC6780
CCE780
7F3F00
600300
300600
180C00
ENDCHAR
STARTCHAR C024564
ENCODING 10612
SWIDTH 1800 0
DWIDTH 18 0
BBX 17 13 1 -2
BITMAP
700600
7C0F00
6C1F00
CC3D80
CC3D80
CC6D80
CC6D80
CC7F80
CC0D80
7F0F00
600300
300600
180C00
ENDCHAR
STARTCHAR C024565
ENCODING 10613
SWIDTH 1800 0
DWIDTH 18 0
BBX 17 13 1 -2
BITMAP
700600
66FF00
6EC300
C6C180
C6C180
C6FD80
C60780
C60780
C66780
666F00
6F3B00
300600
180C00
ENDCHAR
STARTCHAR C024566
ENCODING 10614
SWIDTH 1800 0
DWIDTH 18 0
BBX 4 8 8 6
BITMAP
60
60
60
60
60
60
60
F0
ENDCHAR
STARTCHAR C024567
ENCODING 10615
SWIDTH 1800 0
DWIDTH 18 0
BBX 6 7 7 6
BITMAP
F8
D8
18
30
60
CC
F8
ENDCHAR
STARTCHAR C024570
ENCODING 10616
SWIDTH 1800 0
DWIDTH 18 0
BBX 6 8 6 5
BITMAP
38
6C
6C
0C
1C
0C
EC
78
ENDCHAR
STARTCHAR C024571
ENCODING 10617
SWIDTH 1800 0
DWIDTH 18 0
BBX 6 7 6 6
BITMAP
18
38
78
78
D8
FC
18
ENDCHAR
STARTCHAR C024572
ENCODING 10618
SWIDTH 1800 0
DWIDTH 18 0
BBX 7 6 7 6
BITMAP
3C
EC
CC
CC
CC
CE
ENDCHAR
STARTCHAR C024573
ENCODING 10619
SWIDTH 1800 0
DWIDTH 18 0
BBX 4 8 7 -3
BITMAP
60
60
60
60
60
60
60
F0
ENDCHAR
STARTCHAR C024574
ENCODING 10620
SWIDTH 1800 0
DWIDTH 18 0
BBX 5 7 7 -3
BITMAP
F8
D8
18
30
60
C0
F8
ENDCHAR
STARTCHAR C024575
ENCODING 10621
SWIDTH 1800 0
DWIDTH 18 0
BBX 6 8 7 -3
BITMAP
78
D8
D8
18
38
0C
CC
F8
ENDCHAR
STARTCHAR C024576
ENCODING 10622
SWIDTH 1800 0
DWIDTH 18 0
BBX 6 7 6 -3
BITMAP
18
38
78
78
D8
FC
18
ENDCHAR
STARTCHAR C024577
ENCODING 10623
SWIDTH 1800 0
DWIDTH 18 0
BBX 0 0 0 0
BITMAP
ENDCHAR
STARTCHAR C025040
ENCODING 10784
SWIDTH 1800 0
DWIDTH 18 0
BBX 1 14 18 -4
BITMAP
80
00
00
80
00
80
80
00
00
00
00
00
00
80
ENDCHAR
STARTCHAR C025041
ENCODING 10785
SWIDTH 1800 0
DWIDTH 18 0
BBX 11 12 4 -2
BITMAP
0C00
0C00
1F00
3C00
1B00
1F80
1EC0
7C60
D860
F8C0
E0C0
0380
ENDCHAR
STARTCHAR C025042
ENCODING 10786
SWIDTH 1800 0
DWIDTH 18 0
BBX 13 15 3 -2
BITMAP
0C00
0600
0600
6FC0
3C00
0D80
0D80
1FF0
3F18
6E18
CC18
DC18
FC38
C060
01C0
ENDCHAR
STARTCHAR C025043
ENCODING 10787
SWIDTH 1800 0
DWIDTH 18 0
BBX 11 7 4 -2
BITMAP
C000
C0C0
C0C0
C060
F060
7000
3000
ENDCHAR
STARTCHAR C025044
ENCODING 10788
SWIDTH 1800 0
DWIDTH 18 0
BBX 13 9 3 1
BITMAP
C000
C000
C060
C030
C018
D818
7838
7000
3000
ENDCHAR
STARTCHAR C025045
ENCODING 10789
SWIDTH 1800 0
DWIDTH 18 0
BBX 7 11 6 -2
BITMAP
1C
06
00
FE
66
06
06
0C
0C
18
30
ENDCHAR
STARTCHAR C025046
ENCODING 10790
SWIDTH 1800 0
DWIDTH 18 0
BBX 9 15 5 -2
BITMAP
1800
0E00
0700
0000
0000
DF00
7180
0180
0180
0180
0180
0300
0300
0600
0C00
ENDCHAR
STARTCHAR C025047
ENCODING 10791
SWIDTH 1800 0
DWIDTH 18 0
BBX 10 11 4 -2
BITMAP
0C00
0700
0000
0F00
3E00
0C00
1800
3000
7C00
E6C0
0380
ENDCHAR
STARTCHAR C025050
ENCODING 10792
SWIDTH 1800 0
DWIDTH 18 0
BBX 13 13 3 -1
BITMAP
0700
0180
0000
0180
0F80
3B00
0600
0C00
0C00
1800
7E00
E600
C3F8
ENDCHAR
STARTCHAR C025051
ENCODING 10793
SWIDTH 1800 0
DWIDTH 18 0
BBX 11 10 4 -1
BITMAP
3000
1C00
19C0
1E60
3800
1980
1FE0
3860
F860
3BC0
ENDCHAR
STARTCHAR C025052
ENCODING 10794
SWIDTH 1800 0
DWIDTH 18 0
BBX 15 13 2 -1
BITMAP
0E00
0E00
0C3C
6F8E
3E18
0C00
0DF0
0F1C
0C0C
3C0C
FC1C
7CF8
0C00
ENDCHAR
STARTCHAR C025053
ENCODING 10795
SWIDTH 1800 0
DWIDTH 18 0
BBX 15 13 2 -1
BITMAP
0C00
0600
0600
0E38
0FDC
FCCE
18CE
18DE
30C0
3180
6180
EF00
C700
ENDCHAR
STARTCHAR C025054
ENCODING 10796
SWIDTH 1800 0
DWIDTH 18 0
BBX 16 12 2 0
BITMAP
0E00
0603
060E
0FB6
FEDC
78CE
18CE
18DE
31C0
7180
6F80
C700
ENDCHAR
STARTCHAR C025055
ENCODING 10797
SWIDTH 1800 0
DWIDTH 18 0
BBX 11 14 4 -1
BITMAP
3800
1800
0F80
FC00
06C0
07C0
7F00
0180
00C0
7FE0
C0E0
C000
6000
3F00
ENDCHAR
STARTCHAR C025056
ENCODING 10798
SWIDTH 1800 0
DWIDTH 18 0
BBX 13 14 4 -1
BITMAP
3800
1818
0FF8
FC30
06C0
07C0
7F00
0180
00C0
7FE0
C0E0
C000
6000
3F00
ENDCHAR
STARTCHAR C025057
ENCODING 10799
SWIDTH 1800 0
DWIDTH 18 0
BBX 7 15 6 -2
BITMAP
0C
0E
0E
18
30
60
C0
C0
60
30
38
1C
0C
0E
06
ENDCHAR
STARTCHAR C025060
ENCODING 10800
SWIDTH 1800 0
DWIDTH 18 0
BBX 11 15 6 -2
BITMAP
0C00
0E00
0E00
1800
33E0
6180
C000
C000
6000
3000
1800
1C00
0E00
0E00
0600
ENDCHAR
STARTCHAR C025061
ENCODING 10801
SWIDTH 1800 0
DWIDTH 18 0
BBX 15 13 2 -1
BITMAP
6070
6030
6030
607E
C3F0
C030
C030
F030
E030
E070
E060
6060
00C0
ENDCHAR
STARTCHAR C025062
ENCODING 10802
SWIDTH 1800 0
DWIDTH 18 0
BBX 16 14 2 -1
BITMAP
0006
707F
703C
6030
607E
63F0
C030
C030
C030
F030
6070
6060
6060
00C0
ENDCHAR
STARTCHAR C025063
ENCODING 10803
SWIDTH 1800 0
DWIDTH 18 0
BBX 12 12 3 0
BITMAP
3000
1FC0
03C0
0000
0000
0000
0000
0000
C000
C000
6000
3FF0
ENDCHAR
STARTCHAR C025064
ENCODING 10804
SWIDTH 1800 0
DWIDTH 18 0
BBX 14 12 3 0
BITMAP
3018
1FFC
03D8
0000
0000
0000
0000
0000
C000
C000
6000
3FF0
ENDCHAR
STARTCHAR C025065
ENCODING 10805
SWIDTH 1800 0
DWIDTH 18 0
BBX 11 14 4 -1
BITMAP
1C00
3F80
19C0
0F80
FF00
0180
0180
00C0
3FE0
E0E0
C000
C000
7000
1F80
ENDCHAR
STARTCHAR C025066
ENCODING 10806
SWIDTH 1800 0
DWIDTH 18 0
BBX 14 14 4 -1
BITMAP
1800
3F9C
0DFC
0798
FF00
0180
0180
00C0
3FE0
E0E0
C000
C000
7000
1F80
ENDCHAR
STARTCHAR C025067
ENCODING 10807
SWIDTH 1800 0
DWIDTH 18 0
BBX 10 13 5 -1
BITMAP
C000
E000
C000
C000
C000
C000
C000
C000
C000
C000
C0C0
C380
7E00
ENDCHAR
STARTCHAR C025070
ENCODING 10808
SWIDTH 1800 0
DWIDTH 18 0
BBX 10 13 5 -1
BITMAP
C000
E000
C300
CF00
C600
C000
C000
C000
C000
C000
C0C0
C380
7E00
ENDCHAR
STARTCHAR C025071
ENCODING 10809
SWIDTH 1800 0
DWIDTH 18 0
BBX 15 15 2 -2
BITMAP
0180
0180
0180
0FFE
F980
0380
0780
0D80
0DC0
0D80
0780
0180
0380
0300
0600
ENDCHAR
STARTCHAR C025072
ENCODING 10810
SWIDTH 1800 0
DWIDTH 18 0
BBX 15 15 2 -2
BITMAP
018C
01B6
0198
0FFE
F980
0380
0780
0DC0
0DC0
07C0
0380
0180
0180
0300
0600
ENDCHAR
STARTCHAR C025073
ENCODING 10811
SWIDTH 1800 0
DWIDTH 18 0
BBX 17 12 1 0
BITMAP
001800
0C1C00
061800
061800
07FF80
FF3000
763000
063000
066000
060000
030000
01FE00
ENDCHAR
STARTCHAR C025074
ENCODING 10812
SWIDTH 1800 0
DWIDTH 18 0
BBX 17 12 1 0
BITMAP
007180
003F80
0E3300
063000
067F00
CFF300
7E3000
063000
067000
066000
030000
01FE00
ENDCHAR
STARTCHAR C025075
ENCODING 10813
SWIDTH 1800 0
DWIDTH 18 0
BBX 13 13 3 -1
BITMAP
1FC0
1DC0
0300
0600
0C70
3FF8
7F00
E600
0C00
0C00
0C00
0700
03C0
ENDCHAR
STARTCHAR C025076
ENCODING 10814
SWIDTH 1800 0
DWIDTH 18 0
BBX 15 13 3 -1
BITMAP
1FCC
1DF6
031E
0600
0C70
1FF8
7F00
E600
0C00
0C00
0C00
0700
03C0
ENDCHAR
STARTCHAR C025077
ENCODING 10815
SWIDTH 1800 0
DWIDTH 18 0
BBX 15 12 2 -1
BITMAP
0E00
0E00
0F80
FCF0
181C
181C
1800
3000
3000
6300
E380
C0FE
ENDCHAR
STARTCHAR C025100
ENCODING 10816
SWIDTH 1800 0
DWIDTH 18 0
BBX 16 13 2 -1
BITMAP
0006
0E03
0E0E
0F86
FEF8
181C
181C
1800
3000
3300
6300
6380
60FE
ENDCHAR
STARTCHAR C025101
ENCODING 10817
SWIDTH 1800 0
DWIDTH 18 0
BBX 13 14 3 -1
BITMAP
1800
0C00
0C00
1F80
FC00
1800
1800
31E0
3F38
3818
3018
0038
0070
03C0
ENDCHAR
STARTCHAR C025102
ENCODING 10818
SWIDTH 1800 0
DWIDTH 18 0
BBX 15 14 3 -1
BITMAP
1C00
0C00
1B8C
FE36
1818
1800
3000
37F0
3C18
3018
3038
0070
01E0
07C0
ENDCHAR
STARTCHAR C025103
ENCODING 10819
SWIDTH 1800 0
DWIDTH 18 0
BBX 13 7 3 -2
BITMAP
07F0
FC30
6018
0018
0030
0060
01C0
ENDCHAR
STARTCHAR C025104
ENCODING 10820
SWIDTH 1800 0
DWIDTH 18 0
BBX 15 10 2 -1
BITMAP
07F8
1C0C
F006
0006
0006
000E
001C
0038
00E0
0180
ENDCHAR
STARTCHAR C025105
ENCODING 10821
SWIDTH 1800 0
DWIDTH 18 0
BBX 17 11 1 0
BITMAP
000180
000780
03FB00
1E0C00
F80600
000600
000600
000E00
000C00
003800
00E000
ENDCHAR
STARTCHAR C025106
ENCODING 10822
SWIDTH 1800 0
DWIDTH 18 0
BBX 13 12 3 -1
BITMAP
01F8
FFC0
6300
0600
0600
0C00
0C00
0C00
0C00
0600
03E0
01E0
ENDCHAR
STARTCHAR C025107
ENCODING 10823
SWIDTH 1800 0
DWIDTH 18 0
BBX 15 12 3 -1
BITMAP
01F8
FFC0
633E
061E
0C00
0C00
0C00
0C00
0C00
0600
03E0
01E0
ENDCHAR
STARTCHAR C025110
ENCODING 10824
SWIDTH 1800 0
DWIDTH 18 0
BBX 11 13 4 -1
BITMAP
7000
3800
1800
1800
1BC0
1F80
1C00
3000
6000
C000
C000
6000
3FE0
ENDCHAR
STARTCHAR C025111
ENCODING 10825
SWIDTH 1800 0
DWIDTH 18 0
BBX 12 13 4 -1
BITMAP
3870
18E0
1860
1800
19C0
1F80
1C00
3000
6000
6000
C000
6000
3FE0
ENDCHAR
STARTCHAR C025112
ENCODING 10826
SWIDTH 1800 0
DWIDTH 18 0
BBX 14 15 3 -2
BITMAP
0C00
0E00
0C00
FF00
1800
3038
307C
61C0
E180
C180
0180
0FC0
19E0
19B0
0F00
ENDCHAR
STARTCHAR C025113
ENCODING 10827
SWIDTH 1800 0
DWIDTH 18 0
BBX 14 12 3 0
BITMAP
C000
6000
61F8
6378
E000
C000
C000
F000
FC00
E600
E3FC
6000
ENDCHAR
STARTCHAR C025114
ENCODING 10828
SWIDTH 1800 0
DWIDTH 18 0
BBX 15 12 2 -1
BITMAP
0300
0300
63E0
6F38
7B0C
360C
760E
DC0E
DC0C
FCFC
F19C
60F6
ENDCHAR
STARTCHAR C025115
ENCODING 10829
SWIDTH 1800 0
DWIDTH 18 0
BBX 16 14 2 -2
BITMAP
1800
0C00
0C00
0C00
1CF8
7F8C
1E0C
180C
380C
780C
78FC
F99E
D8FF
1800
ENDCHAR
STARTCHAR C025116
ENCODING 10830
SWIDTH 1800 0
DWIDTH 18 0
BBX 15 11 2 0
BITMAP
03E0
1FB8
318C
630E
6306
C606
CE06
CC0E
780C
7018
0070
ENDCHAR
STARTCHAR C025117
ENCODING 10831
SWIDTH 1800 0
DWIDTH 18 0
BBX 14 13 3 -1
BITMAP
60E0
6060
6060
607C
C3F0
C060
C060
E060
E060
E3E0
EE78
EC6C
67C0
ENDCHAR
STARTCHAR C025120
ENCODING 10832
SWIDTH 1800 0
DWIDTH 18 0
BBX 15 13 3 -1
BITMAP
60E6
606E
6060
607C
C3F0
C060
C060
E060
E060
E3E0
EE78
EE6C
63C0
ENDCHAR
STARTCHAR C025121
ENCODING 10833
SWIDTH 1800 0
DWIDTH 18 0
BBX 15 14 3 -1
BITMAP
000E
607A
607E
606C
C07C
C3F0
C060
C060
C060
E060
E3E0
EE78
ECEC
67C0
ENDCHAR
STARTCHAR C025122
ENCODING 10834
SWIDTH 1800 0
DWIDTH 18 0
BBX 14 12 3 0
BITMAP
18E0
78E0
F060
7060
60F0
60F8
C0DC
C0CC
C180
C380
6700
7E00
ENDCHAR
STARTCHAR C025123
ENCODING 10835
SWIDTH 1800 0
DWIDTH 18 0
BBX 15 13 3 -1
BITMAP
006C
38FE
F87C
3060
60F0
60F8
C0DC
C0DC
C180
C180
C300
7E00
1800
ENDCHAR
STARTCHAR C025124
ENCODING 10836
SWIDTH 1800 0
DWIDTH 18 0
BBX 15 13 3 -1
BITMAP
007E
38FA
F06E
3060
60F0
60F8
C0DC
C0DC
C180
C180
C300
7E00
1800
ENDCHAR
STARTCHAR C025125
ENCODING 10837
SWIDTH 1800 0
DWIDTH 18 0
BBX 15 11 2 0
BITMAP
0380
01C0
0180
0300
0600
0300
0300
03FC
DFCE
F0CE
77C0
ENDCHAR
STARTCHAR C025126
ENCODING 10838
SWIDTH 1800 0
DWIDTH 18 0
BBX 16 11 2 0
BITMAP
0380
01C0
019F
030C
0600
0300
0300
03FC
DFCE
F1DE
77C0
ENDCHAR
STARTCHAR C025127
ENCODING 10839
SWIDTH 1800 0
DWIDTH 18 0
BBX 15 12 3 0
BITMAP
0600
0300
01BE
01B6
0736
063C
0600
0300
07F8
1D8C
F19C
E780
ENDCHAR
STARTCHAR C025130
ENCODING 10840
SWIDTH 1800 0
DWIDTH 18 0
BBX 16 7 2 2
BITMAP
1F00
3180
60C0
C070
0038
001E
0007
ENDCHAR
STARTCHAR C025131
ENCODING 10841
SWIDTH 1800 0
DWIDTH 18 0
BBX 16 9 2 2
BITMAP
000E
0018
1F18
3180
60C0
C070
0038
001E
0007
ENDCHAR
STARTCHAR C025132
ENCODING 10842
SWIDTH 1800 0
DWIDTH 18 0
BBX 17 10 1 2
BITMAP
001E00
001E00
001E00
0F9E00
18C000
F06000
703800
001C00
000700
000380
ENDCHAR
STARTCHAR C025133
ENCODING 10843
SWIDTH 1800 0
DWIDTH 18 0
BBX 14 13 3 -1
BITMAP
6070
67E0
6060
6078
C1F0
C360
F060
E060
E060
E1F0
E77C
E660
63C0
ENDCHAR
STARTCHAR C025134
ENCODING 10844
SWIDTH 1800 0
DWIDTH 18 0
BBX 16 13 2 -1
BITMAP
6038
73E3
6037
603E
60F8
C1B0
C030
F030
F030
E1F8
E33E
6330
61E0
ENDCHAR
STARTCHAR C025135
ENCODING 10845
SWIDTH 1800 0
DWIDTH 18 0
BBX 16 13 2 -1
BITMAP
607F
63ED
6067
C07B
C1F0
C360
C060
6060
6060
E1F0
E77C
E660
E3C0
ENDCHAR
STARTCHAR C025136
ENCODING 10846
SWIDTH 1800 0
DWIDTH 18 0
BBX 11 15 4 -2
BITMAP
0C00
0600
0600
06C0
FFC0
0600
06C0
7FC0
0600
0600
0600
7F00
C7C0
CE60
7800
ENDCHAR
STARTCHAR C025137
ENCODING 10847
SWIDTH 1800 0
DWIDTH 18 0
BBX 15 12 2 0
BITMAP
0180
1FC0
0D80
0380
0330
0618
0F98
3CF8
783C
F07E
F060
60C0
ENDCHAR
STARTCHAR C025140
ENCODING 10848
SWIDTH 1800 0
DWIDTH 18 0
BBX 15 13 2 -1
BITMAP
1800
0C00
0F80
FC00
187C
3866
7C3E
DC30
7830
3830
3038
3038
1FF0
ENDCHAR
STARTCHAR C025141
ENCODING 10849
SWIDTH 1800 0
DWIDTH 18 0
BBX 15 13 2 -1
BITMAP
0180
60C0
3180
33E0
3FB8
3B0C
7B0E
DE06
CE06
DE0E
FE0C
6038
00E0
ENDCHAR
STARTCHAR C025142
ENCODING 10850
SWIDTH 1800 0
DWIDTH 18 0
BBX 10 15 4 -2
BITMAP
1800
0C00
0C00
0C00
3800
1C00
7800
F180
70C0
3EC0
30C0
30C0
30C0
1FC0
0F00
ENDCHAR
STARTCHAR C025143
ENCODING 10851
SWIDTH 1800 0
DWIDTH 18 0
BBX 12 11 4 -2
BITMAP
0600
3F00
61C0
3F70
3830
FBE0
0D80
0600
0600
0300
0300
ENDCHAR
STARTCHAR C025144
ENCODING 10852
SWIDTH 1800 0
DWIDTH 18 0
BBX 17 13 1 -1
BITMAP
00C000
0FE000
187C00
0DF700
070380
DE0300
7B3F00
019800
01C000
00C000
00E000
006000
007000
ENDCHAR
STARTCHAR C025145
ENCODING 10853
SWIDTH 1800 0
DWIDTH 18 0
BBX 11 11 4 -2
BITMAP
0C00
1E00
F7C0
DFE0
F360
F360
F360
DBC0
CF80
0600
0C00
ENDCHAR
STARTCHAR C025146
ENCODING 10854
SWIDTH 1800 0
DWIDTH 18 0
BBX 15 13 2 -1
BITMAP
0380
CF80
6FF0
7EDC
6CCC
7CCE
7CCE
7CCE
76DC
67F8
61F0
0180
0300
ENDCHAR
STARTCHAR C025147
ENCODING 10855
SWIDTH 1800 0
DWIDTH 18 0
BBX 9 11 5 -2
BITMAP
1C00
0C00
0C00
0F80
0C00
0C00
0C00
0C00
FF80
CD80
7800
ENDCHAR
STARTCHAR C025150
ENCODING 10856
SWIDTH 1800 0
DWIDTH 18 0
BBX 10 14 4 -2
BITMAP
0C00
0C00
0C00
0FC0
0E00
0C00
0C00
0C00
0C00
1C00
F780
CDC0
FC00
3000
ENDCHAR
STARTCHAR C025151
ENCODING 10857
SWIDTH 1800 0
DWIDTH 18 0
BBX 12 13 4 -1
BITMAP
1800
0E00
0E00
7800
6000
6000
6000
67C0
7C60
F070
E060
00E0
0380
ENDCHAR
STARTCHAR C025152
ENCODING 10858
SWIDTH 1800 0
DWIDTH 18 0
BBX 8 14 6 -2
BITMAP
DC
F6
E6
E7
C3
C3
C7
C7
C7
06
0E
0C
18
30
ENDCHAR
STARTCHAR C025153
ENCODING 10859
SWIDTH 1800 0
DWIDTH 18 0
BBX 11 13 4 -1
BITMAP
0700
3F80
0700
0600
0C00
1800
3FC0
7860
E060
C060
3E60
33C0
1F80
ENDCHAR
STARTCHAR C025154
ENCODING 10860
SWIDTH 1800 0
DWIDTH 18 0
BBX 16 13 2 -1
BITMAP
0C00
0C00
0C70
1DF0
FF30
1C30
1C30
3870
3860
7860
7860
D877
181C
ENDCHAR
STARTCHAR C025155
ENCODING 10861
SWIDTH 1800 0
DWIDTH 18 0
BBX 13 13 3 -1
BITMAP
0780
1D80
0300
0600
0C00
1BC0
3E70
7018
E018
0038
0030
00E0
0780
ENDCHAR
STARTCHAR C025156
ENCODING 10862
SWIDTH 1800 0
DWIDTH 18 0
BBX 11 11 4 -2
BITMAP
1800
1800
3000
3800
77C0
3C60
3060
7060
F0C0
F380
3000
ENDCHAR
STARTCHAR C025157
ENCODING 10863
SWIDTH 1800 0
DWIDTH 18 0
BBX 14 13 3 -1
BITMAP
0C00
0C00
0C00
0C00
3CF0
7BB8
1E0C
180C
380C
781C
F838
F870
18C0
ENDCHAR
STARTCHAR C025160
ENCODING 10864
SWIDTH 1800 0
DWIDTH 18 0
BBX 13 13 3 -1
BITMAP
0700
1F80
0300
0600
0600
0FF0
1C18
7818
D818
F1D8
F778
E330
01E0
ENDCHAR
STARTCHAR C025161
ENCODING 10865
SWIDTH 1800 0
DWIDTH 18 0
BBX 15 13 2 -1
BITMAP
01C0
0FC0
0180
03E0
0630
0C30
1FB0
0DE0
07C0
0C00
3878
7FCC
E71E
ENDCHAR
STARTCHAR C025162
ENCODING 10866
SWIDTH 1800 0
DWIDTH 18 0
BBX 13 15 3 -2
BITMAP
0E00
0600
07C0
7F80
0C00
1830
3E78
7FE0
E300
CF00
1B00
3300
3000
38E0
0FE0
ENDCHAR
STARTCHAR C025163
ENCODING 10867
SWIDTH 1800 0
DWIDTH 18 0
BBX 15 13 2 -1
BITMAP
0300
0180
0300
0300
0600
0C00
0C00
1F00
3980
3186
618C
E1F8
00E0
ENDCHAR
STARTCHAR C025164
ENCODING 10868
SWIDTH 1800 0
DWIDTH 18 0
BBX 0 0 0 0
BITMAP
ENDCHAR
STARTCHAR C025165
ENCODING 10869
SWIDTH 1800 0
DWIDTH 18 0
BBX 0 0 0 0
BITMAP
ENDCHAR
STARTCHAR C025166
ENCODING 10870
SWIDTH 1800 0
DWIDTH 18 0
BBX 0 0 0 0
BITMAP
ENDCHAR
STARTCHAR C025167
ENCODING 10871
SWIDTH 1800 0
DWIDTH 18 0
BBX 0 0 0 0
BITMAP
ENDCHAR
STARTCHAR C025170
ENCODING 10872
SWIDTH 1800 0
DWIDTH 18 0
BBX 0 0 0 0
BITMAP
ENDCHAR
STARTCHAR C025171
ENCODING 10873
SWIDTH 1800 0
DWIDTH 18 0
BBX 0 0 0 0
BITMAP
ENDCHAR
STARTCHAR C025172
ENCODING 10874
SWIDTH 1800 0
DWIDTH 18 0
BBX 1 14 18 -4
BITMAP
80
00
00
80
00
80
80
00
00
00
00
00
00
80
ENDCHAR
STARTCHAR C025173
ENCODING 10875
SWIDTH 1800 0
DWIDTH 18 0
BBX 0 0 0 0
BITMAP
ENDCHAR
STARTCHAR C025174
ENCODING 10876
SWIDTH 1800 0
DWIDTH 18 0
BBX 0 0 0 0
BITMAP
ENDCHAR
STARTCHAR C025175
ENCODING 10877
SWIDTH 1800 0
DWIDTH 18 0
BBX 0 0 0 0
BITMAP
ENDCHAR
STARTCHAR C025176
ENCODING 10878
SWIDTH 1800 0
DWIDTH 18 0
BBX 0 0 0 0
BITMAP
ENDCHAR
STARTCHAR C025177
ENCODING 10879
SWIDTH 1800 0
DWIDTH 18 0
BBX 1 2 18 8
BITMAP
80
80
ENDCHAR
STARTCHAR C025440
ENCODING 11040
SWIDTH 1800 0
DWIDTH 18 0
BBX 1 1 18 7
BITMAP
80
ENDCHAR
STARTCHAR C025441
ENCODING 11041
SWIDTH 1800 0
DWIDTH 18 0
BBX 11 9 4 -1
BITMAP
FFE0
61E0
0700
0E00
0C00
0C00
1800
1800
3000
ENDCHAR
STARTCHAR C025442
ENCODING 11042
SWIDTH 1800 0
DWIDTH 18 0
BBX 14 13 3 -1
BITMAP
07F8
FC38
667C
03C0
0300
0700
0600
0600
0E00
0C00
1800
1800
3000
ENDCHAR
STARTCHAR C025443
ENCODING 11043
SWIDTH 1800 0
DWIDTH 18 0
BBX 8 11 5 -2
BITMAP
03
07
06
0C
1C
3C
EC
0C
0C
0C
0C
ENDCHAR
STARTCHAR C025444
ENCODING 11044
SWIDTH 1800 0
DWIDTH 18 0
BBX 10 14 5 -2
BITMAP
0180
01C0
0380
0700
0E00
1E00
3E00
7600
C600
0600
0600
0600
0600
0600
ENDCHAR
STARTCHAR C025445
ENCODING 11045
SWIDTH 1800 0
DWIDTH 18 0
BBX 10 10 5 -2
BITMAP
1C00
1800
FF80
C1C0
C180
C300
0300
0600
0C00
1800
ENDCHAR
STARTCHAR C025446
ENCODING 11046
SWIDTH 1800 0
DWIDTH 18 0
BBX 13 13 3 0
BITMAP
0600
0700
0600
FFF8
6038
6030
6070
6060
00E0
00C0
0180
0300
0600
ENDCHAR
STARTCHAR C025447
ENCODING 11047
SWIDTH 1800 0
DWIDTH 18 0
BBX 11 6 4 -1
BITMAP
67C0
3C00
0600
0600
0C00
FFE0
ENDCHAR
STARTCHAR C025450
ENCODING 11048
SWIDTH 1800 0
DWIDTH 18 0
BBX 15 9 2 1
BITMAP
0030
1FF8
0300
0180
0180
0180
0180
DFFE
7006
ENDCHAR
STARTCHAR C025451
ENCODING 11049
SWIDTH 1800 0
DWIDTH 18 0
BBX 10 10 4 -2
BITMAP
0600
0600
1FC0
FE00
1E00
1E00
3600
6600
1E00
0600
ENDCHAR
STARTCHAR C025452
ENCODING 11050
SWIDTH 1800 0
DWIDTH 18 0
BBX 14 13 3 -1
BITMAP
0180
0180
0180
FFFC
6380
0780
0F80
1D80
3980
6180
C180
0380
0180
ENDCHAR
STARTCHAR C025453
ENCODING 11051
SWIDTH 1800 0
DWIDTH 18 0
BBX 13 13 3 -1
BITMAP
0380
0380
0300
63F0
3F38
0630
0C30
0C30
1860
3060
66E0
C3C0
0180
ENDCHAR
STARTCHAR C025454
ENCODING 11052
SWIDTH 1800 0
DWIDTH 18 0
BBX 14 13 4 -1
BITMAP
0700
070C
061C
0FF8
FC70
0C60
1860
3860
30C0
60C0
CD80
0780
0300
ENDCHAR
STARTCHAR C025455
ENCODING 11053
SWIDTH 1800 0
DWIDTH 18 0
BBX 13 13 3 -1
BITMAP
0E00
0C00
07E0
0F80
7E00
0338
03F0
0F00
FB00
0180
0180
0180
01C0
ENDCHAR
STARTCHAR C025456
ENCODING 11054
SWIDTH 1800 0
DWIDTH 18 0
BBX 15 13 3 -1
BITMAP
0C0C
0C1E
07F8
0F00
7E00
0638
03F0
0F00
FB00
0180
0180
0180
01C0
ENDCHAR
STARTCHAR C025457
ENCODING 11055
SWIDTH 1800 0
DWIDTH 18 0
BBX 11 13 4 -1
BITMAP
0600
0EE0
0FE0
18E0
30C0
6180
0380
0300
0600
0C00
1800
7000
C000
ENDCHAR
STARTCHAR C025460
ENCODING 11056
SWIDTH 1800 0
DWIDTH 18 0
BBX 15 15 3 -2
BITMAP
000C
0606
031C
07FC
0E70
0C60
18E0
70C0
0180
0380
0700
0E00
1C00
3000
E000
ENDCHAR
STARTCHAR C025461
ENCODING 11057
SWIDTH 1800 0
DWIDTH 18 0
BBX 12 12 4 0
BITMAP
3000
1800
3800
71F0
7F00
C380
0300
0700
0600
0C00
1800
3000
ENDCHAR
STARTCHAR C025462
ENCODING 11058
SWIDTH 1800 0
DWIDTH 18 0
BBX 15 13 3 0
BITMAP
000C
181E
1C0C
1800
39F8
7F80
C180
0180
0300
0300
0600
0C00
1800
ENDCHAR
STARTCHAR C025463
ENCODING 11059
SWIDTH 1800 0
DWIDTH 18 0
BBX 11 8 4 2
BITMAP
CFE0
78E0
00C0
00C0
00C0
00C0
0180
FFC0
ENDCHAR
STARTCHAR C025464
ENCODING 11060
SWIDTH 1800 0
DWIDTH 18 0
BBX 14 11 4 1
BITMAP
000C
0030
01D8
FFE0
00E0
00C0
00C0
00C0
00C0
FFC0
6000
ENDCHAR
STARTCHAR C025465
ENCODING 11061
SWIDTH 1800 0
DWIDTH 18 0
BBX 15 13 2 0
BITMAP
00C0
1860
0C60
0C60
FFFE
7C60
0C60
0C60
0CC0
00C0
00C0
0180
0300
ENDCHAR
STARTCHAR C025466
ENCODING 11062
SWIDTH 1800 0
DWIDTH 18 0
BBX 16 13 2 0
BITMAP
00C0
1863
0C6F
0C66
FFFE
7C60
0C60
0C60
0CC0
00C0
00C0
0180
0300
ENDCHAR
STARTCHAR C025467
ENCODING 11063
SWIDTH 1800 0
DWIDTH 18 0
BBX 12 12 4 0
BITMAP
C000
7000
3800
0000
0030
E060
00C0
0380
0700
1C00
F800
7000
ENDCHAR
STARTCHAR C025470
ENCODING 11064
SWIDTH 1800 0
DWIDTH 18 0
BBX 12 12 4 0
BITMAP
C000
7070
39F0
00C0
0030
F060
30C0
0180
0700
0E00
F800
7000
ENDCHAR
STARTCHAR C025471
ENCODING 11065
SWIDTH 1800 0
DWIDTH 18 0
BBX 12 11 4 0
BITMAP
01C0
7FC0
3180
0300
0700
0600
0E00
1B80
30E0
E070
0030
ENDCHAR
STARTCHAR C025472
ENCODING 11066
SWIDTH 1800 0
DWIDTH 18 0
BBX 14 12 4 0
BITMAP
007C
01BC
7FD8
3180
0300
0700
0600
0E00
1B80
70E0
C070
0030
ENDCHAR
STARTCHAR C025473
ENCODING 11067
SWIDTH 1800 0
DWIDTH 18 0
BBX 14 12 2 0
BITMAP
0C00
0600
0600
0600
07FC
0F38
FE60
0600
0600
0600
0300
01FC
ENDCHAR
STARTCHAR C025474
ENCODING 11068
SWIDTH 1800 0
DWIDTH 18 0
BBX 16 11 2 0
BITMAP
0603
0607
0607
07F8
0F3C
FE60
0600
0600
0600
0600
03FC
ENDCHAR
STARTCHAR C025475
ENCODING 11069
SWIDTH 1800 0
DWIDTH 18 0
BBX 12 11 3 0
BITMAP
C070
6030
3070
3860
00C0
01C0
0180
0300
0600
0C00
1800
ENDCHAR
STARTCHAR C025476
ENCODING 11070
SWIDTH 1800 0
DWIDTH 18 0
BBX 15 13 3 0
BITMAP
000C
001E
C07C
6030
3070
3860
00C0
01C0
0180
0300
0600
0C00
1800
ENDCHAR
STARTCHAR C025477
ENCODING 11071
SWIDTH 1800 0
DWIDTH 18 0
BBX 11 13 4 -1
BITMAP
0600
07E0
0F60
18E0
31C0
7D80
0780
0700
0600
0C00
1800
3000
E000
ENDCHAR
STARTCHAR C025500
ENCODING 11072
SWIDTH 1800 0
DWIDTH 18 0
BBX 14 13 4 -1
BITMAP
063C
06FC
0FF8
18E0
31C0
7D80
C780
0300
0600
0C00
1800
3000
E000
ENDCHAR
STARTCHAR C025501
ENCODING 11073
SWIDTH 1800 0
DWIDTH 18 0
BBX 13 13 3 -1
BITMAP
01C0
03C0
0E00
7B00
0300
0FF8
FB00
0300
0700
0600
0600
0C00
0C00
ENDCHAR
STARTCHAR C025502
ENCODING 11074
SWIDTH 1800 0
DWIDTH 18 0
BBX 15 13 3 -1
BITMAP
01C0
03FE
0E1E
7B00
0300
0FF8
FB00
0300
0700
0600
0600
0C00
1800
ENDCHAR
STARTCHAR C025503
ENCODING 11075
SWIDTH 1800 0
DWIDTH 18 0
BBX 11 8 4 -1
BITMAP
18C0
CCE0
6CC0
6180
0380
0300
0600
0C00
ENDCHAR
STARTCHAR C025504
ENCODING 11076
SWIDTH 1800 0
DWIDTH 18 0
BBX 13 11 3 0
BITMAP
0C30
C638
6630
6670
6060
00C0
01C0
0180
0300
0600
0C00
ENDCHAR
STARTCHAR C025505
ENCODING 11077
SWIDTH 1800 0
DWIDTH 18 0
BBX 15 12 3 0
BITMAP
0006
0C0E
C63C
6638
6670
6060
00E0
00C0
0180
0300
0600
0C00
ENDCHAR
STARTCHAR C025506
ENCODING 11078
SWIDTH 1800 0
DWIDTH 18 0
BBX 13 14 3 -2
BITMAP
37E0
1C00
0000
0000
0FF8
FB00
0300
0300
0700
0600
0E00
0C00
1800
3000
ENDCHAR
STARTCHAR C025507
ENCODING 11079
SWIDTH 1800 0
DWIDTH 18 0
BBX 15 14 3 -2
BITMAP
37E6
1C0E
000C
0000
0FF8
FB00
0300
0300
0700
0600
0E00
0C00
1800
3000
ENDCHAR
STARTCHAR C025510
ENCODING 11080
SWIDTH 1800 0
DWIDTH 18 0
BBX 7 14 8 -2
BITMAP
C0
C0
C0
C0
C0
E0
F8
CE
C6
C0
C0
C0
C0
C0
ENDCHAR
STARTCHAR C025511
ENCODING 11081
SWIDTH 1800 0
DWIDTH 18 0
BBX 9 14 8 -1
BITMAP
C000
C000
C300
CD80
C600
E000
F800
CE00
C000
C000
C000
C000
C000
C000
ENDCHAR
STARTCHAR C025512
ENCODING 11082
SWIDTH 1800 0
DWIDTH 18 0
BBX 15 13 2 -1
BITMAP
0180
0180
0180
0180
CFFE
7980
0180
0180
0300
0300
0300
0600
0C00
ENDCHAR
STARTCHAR C025513
ENCODING 11083
SWIDTH 1800 0
DWIDTH 18 0
BBX 15 7 2 2
BITMAP
1FF0
0000
0000
0000
0000
FFFE
7006
ENDCHAR
STARTCHAR C025514
ENCODING 11084
SWIDTH 1800 0
DWIDTH 18 0
BBX 10 12 5 0
BITMAP
0180
7FC0
31C0
0180
6300
3F00
0E00
0F00
1B80
3180
6000
C000
ENDCHAR
STARTCHAR C025515
ENCODING 11085
SWIDTH 1800 0
DWIDTH 18 0
BBX 12 14 4 -2
BITMAP
0700
0300
0000
07C0
7F80
0700
0E00
1EC0
3670
E630
0600
0600
0600
0600
ENDCHAR
STARTCHAR C025516
ENCODING 11086
SWIDTH 1800 0
DWIDTH 18 0
BBX 11 13 4 -1
BITMAP
0180
00C0
00E0
01C0
0180
0300
0700
0600
0C00
1800
3000
6000
C000
ENDCHAR
STARTCHAR C025517
ENCODING 11087
SWIDTH 1800 0
DWIDTH 18 0
BBX 14 6 3 3
BITMAP
1800
1C60
3830
3018
601C
C00C
ENDCHAR
STARTCHAR C025520
ENCODING 11088
SWIDTH 1800 0
DWIDTH 18 0
BBX 16 9 2 2
BITMAP
0007
000F
0C06
0E30
1C18
181C
300E
6006
C000
ENDCHAR
STARTCHAR C025521
ENCODING 11089
SWIDTH 1800 0
DWIDTH 18 0
BBX 16 9 2 2
BITMAP
0007
000D
0C07
0E30
1C18
181C
300E
6006
C000
ENDCHAR
STARTCHAR C025522
ENCODING 11090
SWIDTH 1800 0
DWIDTH 18 0
BBX 11 12 4 0
BITMAP
E000
6000
6000
6000
6FC0
7800
6000
6000
6000
6000
3060
1FE0
ENDCHAR
STARTCHAR C025523
ENCODING 11091
SWIDTH 1800 0
DWIDTH 18 0
BBX 13 12 4 0
BITMAP
E000
6018
6070
6030
6FC0
7800
6000
6000
6000
6000
3060
1FE0
ENDCHAR
STARTCHAR C025524
ENCODING 11092
SWIDTH 1800 0
DWIDTH 18 0
BBX 13 12 4 0
BITMAP
E078
60D8
6078
6000
6FC0
7800
6000
6000
6000
6000
3060
1FE0
ENDCHAR
STARTCHAR C025525
ENCODING 11093
SWIDTH 1800 0
DWIDTH 18 0
BBX 13 11 3 0
BITMAP
00F0
FFB8
7030
0070
0060
00C0
01C0
0180
0300
0600
0C00
ENDCHAR
STARTCHAR C025526
ENCODING 11094
SWIDTH 1800 0
DWIDTH 18 0
BBX 15 13 3 0
BITMAP
0006
000E
01FC
FF38
6070
0060
00E0
00C0
0180
0380
0700
0C00
1800
ENDCHAR
STARTCHAR C025527
ENCODING 11095
SWIDTH 1800 0
DWIDTH 18 0
BBX 16 13 2 0
BITMAP
0007
000D
00FF
FF98
7030
0030
0060
00E0
00C0
0180
0300
0600
0C00
ENDCHAR
STARTCHAR C025530
ENCODING 11096
SWIDTH 1800 0
DWIDTH 18 0
BBX 16 7 1 2
BITMAP
0700
1DC0
F060
7030
001C
000F
0003
ENDCHAR
STARTCHAR C025531
ENCODING 11097
SWIDTH 1800 0
DWIDTH 18 0
BBX 16 9 1 2
BITMAP
0007
001F
070C
1DC0
F060
7030
001C
000F
0003
ENDCHAR
STARTCHAR C025532
ENCODING 11098
SWIDTH 1800 0
DWIDTH 18 0
BBX 16 9 1 2
BITMAP
001F
001B
071F
1DC0
F060
6038
001C
000F
0003
ENDCHAR
STARTCHAR C025533
ENCODING 11099
SWIDTH 1800 0
DWIDTH 18 0
BBX 13 13 3 -1
BITMAP
0600
0300
0300
0300
FFF8
0300
0300
6360
6330
E338
C318
0700
0300
ENDCHAR
STARTCHAR C025534
ENCODING 11100
SWIDTH 1800 0
DWIDTH 18 0
BBX 15 13 3 -1
BITMAP
0C00
060E
0618
060C
FFF0
0600
6600
6660
6630
E638
C618
0E00
0600
ENDCHAR
STARTCHAR C025535
ENCODING 11101
SWIDTH 1800 0
DWIDTH 18 0
BBX 14 14 3 -1
BITMAP
003C
063C
033C
0300
0300
7FF8
0300
0300
6360
6330
E338
C318
0700
0300
ENDCHAR
STARTCHAR C025536
ENCODING 11102
SWIDTH 1800 0
DWIDTH 18 0
BBX 15 8 2 2
BITMAP
007C
DFCE
F81C
0038
0660
03C0
0380
01C0
ENDCHAR
STARTCHAR C025537
ENCODING 11103
SWIDTH 1800 0
DWIDTH 18 0
BBX 8 12 5 0
BITMAP
60
3E
07
00
00
3C
0E
00
00
C0
7C
07
ENDCHAR
STARTCHAR C025540
ENCODING 11104
SWIDTH 1800 0
DWIDTH 18 0
BBX 14 11 2 0
BITMAP
0180
01C0
0380
0300
0700
0660
0C30
0C18
D87C
7FCC
3000
ENDCHAR
STARTCHAR C025541
ENCODING 11105
SWIDTH 1800 0
DWIDTH 18 0
BBX 11 11 4 0
BITMAP
0060
00E0
00C0
01C0
0780
0300
0780
0CC0
1800
3000
E000
ENDCHAR
STARTCHAR C025542
ENCODING 11106
SWIDTH 1800 0
DWIDTH 18 0
BBX 13 11 3 0
BITMAP
03E0
3E00
0600
0600
0638
DFF8
7600
0600
0600
0600
03F8
ENDCHAR
STARTCHAR C025543
ENCODING 11107
SWIDTH 1800 0
DWIDTH 18 0
BBX 13 10 3 -2
BITMAP
1C00
0C00
0FF8
FE70
66C0
0600
0600
0300
0300
0300
ENDCHAR
STARTCHAR C025544
ENCODING 11108
SWIDTH 1800 0
DWIDTH 18 0
BBX 15 12 2 0
BITMAP
1C00
0E00
061C
07FE
1F1C
F330
0300
0300
0180
0180
0180
01C0
ENDCHAR
STARTCHAR C025545
ENCODING 11109
SWIDTH 1800 0
DWIDTH 18 0
BBX 12 7 3 -2
BITMAP
0180
1FC0
0180
0180
0300
FFF0
6000
ENDCHAR
STARTCHAR C025546
ENCODING 11110
SWIDTH 1800 0
DWIDTH 18 0
BBX 15 8 2 1
BITMAP
1BE0
1E70
00E0
00E0
00C0
00C0
FFFE
F006
ENDCHAR
STARTCHAR C025547
ENCODING 11111
SWIDTH 1800 0
DWIDTH 18 0
BBX 9 7 5 -1
BITMAP
7F80
0300
0300
7F00
0300
0300
FF00
ENDCHAR
STARTCHAR C025550
ENCODING 11112
SWIDTH 1800 0
DWIDTH 18 0
BBX 11 9 4 1
BITMAP
7FE0
00E0
00E0
00C0
7FC0
00C0
00C0
00C0
FFC0
ENDCHAR
STARTCHAR C025551
ENCODING 11113
SWIDTH 1800 0
DWIDTH 18 0
BBX 13 13 3 -1
BITMAP
33E0
1E00
0000
01F0
FF78
0070
00E0
00C0
0180
0380
0700
0C00
1800
ENDCHAR
STARTCHAR C025552
ENCODING 11114
SWIDTH 1800 0
DWIDTH 18 0
BBX 7 12 6 0
BITMAP
06
C6
C6
C6
C6
C6
C6
C6
06
0C
0C
18
ENDCHAR
STARTCHAR C025553
ENCODING 11115
SWIDTH 1800 0
DWIDTH 18 0
BBX 16 11 1 0
BITMAP
01C0
1CE0
0CC0
0CC0
0CC0
18C3
18CE
18D8
30F0
60E0
C000
ENDCHAR
STARTCHAR C025554
ENCODING 11116
SWIDTH 1800 0
DWIDTH 18 0
BBX 11 10 4 1
BITMAP
C000
6000
6000
6000
60E0
6180
6300
6E00
7C00
7000
ENDCHAR
STARTCHAR C025555
ENCODING 11117
SWIDTH 1800 0
DWIDTH 18 0
BBX 12 9 4 1
BITMAP
FFE0
6070
6060
6060
60E0
60C0
60C0
7FC0
6000
ENDCHAR
STARTCHAR C025556
ENCODING 11118
SWIDTH 1800 0
DWIDTH 18 0
BBX 10 9 5 -2
BITMAP
FF80
C1C0
C180
C300
C300
0600
0C00
1800
3000
ENDCHAR
STARTCHAR C025557
ENCODING 11119
SWIDTH 1800 0
DWIDTH 18 0
BBX 12 11 4 0
BITMAP
FFE0
C070
C060
C0E0
C0C0
C180
0180
0300
0600
0C00
1800
ENDCHAR
STARTCHAR C025560
ENCODING 11120
SWIDTH 1800 0
DWIDTH 18 0
BBX 15 15 2 -2
BITMAP
00C0
00C0
00C0
1FF8
00C0
1CC0
0CC0
0CC0
DFFE
78C0
00C0
00C0
00C0
00C0
00C0
ENDCHAR
STARTCHAR C025561
ENCODING 11121
SWIDTH 1800 0
DWIDTH 18 0
BBX 15 9 2 2
BITMAP
33F0
1E78
06E0
0380
0300
0300
0300
DFFE
700E
ENDCHAR
STARTCHAR C025562
ENCODING 11122
SWIDTH 1800 0
DWIDTH 18 0
BBX 11 12 4 0
BITMAP
01E0
7F60
00E0
00C0
FFC0
F180
0180
0300
0600
0C00
1800
3000
ENDCHAR
STARTCHAR C025563
ENCODING 11123
SWIDTH 1800 0
DWIDTH 18 0
BBX 12 10 4 1
BITMAP
C000
7000
3800
0030
0060
01C0
0300
0E00
FC00
7000
ENDCHAR
STARTCHAR C025564
ENCODING 11124
SWIDTH 1800 0
DWIDTH 18 0
BBX 15 14 3 -1
BITMAP
0600
071E
060E
FFF8
6038
6030
6070
6060
6060
00C0
0180
0300
0600
0C00
ENDCHAR
STARTCHAR C025565
ENCODING 11125
SWIDTH 1800 0
DWIDTH 18 0
BBX 10 9 4 -1
BITMAP
0600
0600
6FC0
3CC0
0CC0
18C0
3180
6180
C700
ENDCHAR
STARTCHAR C025566
ENCODING 11126
SWIDTH 1800 0
DWIDTH 18 0
BBX 10 9 5 -2
BITMAP
3000
3000
7FC0
F600
0600
0C00
1800
1800
3000
ENDCHAR
STARTCHAR C025567
ENCODING 11127
SWIDTH 1800 0
DWIDTH 18 0
BBX 0 0 0 0
BITMAP
ENDCHAR
STARTCHAR C025570
ENCODING 11128
SWIDTH 1800 0
DWIDTH 18 0
BBX 0 0 0 0
BITMAP
ENDCHAR
STARTCHAR C025571
ENCODING 11129
SWIDTH 1800 0
DWIDTH 18 0
BBX 1 2 18 8
BITMAP
80
80
ENDCHAR
STARTCHAR C025572
ENCODING 11130
SWIDTH 1800 0
DWIDTH 18 0
BBX 0 0 0 0
BITMAP
ENDCHAR
STARTCHAR C025573
ENCODING 11131
SWIDTH 1800 0
DWIDTH 18 0
BBX 0 0 0 0
BITMAP
ENDCHAR
STARTCHAR C025574
ENCODING 11132
SWIDTH 1800 0
DWIDTH 18 0
BBX 0 0 0 0
BITMAP
ENDCHAR
STARTCHAR C025575
ENCODING 11133
SWIDTH 1800 0
DWIDTH 18 0
BBX 0 0 0 0
BITMAP
ENDCHAR
STARTCHAR C025576
ENCODING 11134
SWIDTH 1800 0
DWIDTH 18 0
BBX 0 0 0 0
BITMAP
ENDCHAR
STARTCHAR C025577
ENCODING 11135
SWIDTH 1800 0
DWIDTH 18 0
BBX 0 0 0 0
BITMAP
ENDCHAR
STARTCHAR C026040
ENCODING 11296
SWIDTH 1800 0
DWIDTH 18 0
BBX 1 1 18 0
BITMAP
80
ENDCHAR
STARTCHAR C026041
ENCODING 11297
SWIDTH 1800 0
DWIDTH 18 0
BBX 14 12 2 0
BITMAP
0300
0780
0780
0D80
0CC0
18C0
1860
1FE0
3030
3030
6018
F07C
ENDCHAR
STARTCHAR C026042
ENCODING 11298
SWIDTH 1800 0
DWIDTH 18 0
BBX 11 12 4 0
BITMAP
7FE0
30E0
3060
3060
3000
3F80
30C0
3060
3060
3060
30C0
FF80
ENDCHAR
STARTCHAR C026043
ENCODING 11299
SWIDTH 1800 0
DWIDTH 18 0
BBX 11 12 4 0
BITMAP
7F80
31C0
30C0
30C0
30C0
3F80
30C0
3060
3060
3060
30E0
FF80
ENDCHAR
STARTCHAR C026044
ENCODING 11300
SWIDTH 1800 0
DWIDTH 18 0
BBX 12 12 4 0
BITMAP
FFE0
3070
3030
3000
3000
3000
3000
3000
3000
3000
3000
F800
ENDCHAR
STARTCHAR C026045
ENCODING 11301
SWIDTH 1800 0
DWIDTH 18 0
BBX 14 15 2 -3
BITMAP
1FFC
0630
0630
0630
0630
0C30
0C30
0C30
1830
1830
3030
7FF0
601C
C00C
C00C
ENDCHAR
STARTCHAR C026046
ENCODING 11302
SWIDTH 1800 0
DWIDTH 18 0
BBX 11 13 5 -1
BITMAP
FFC0
60C0
6000
6000
6180
7F80
6180
6180
6000
6060
60C0
E1C0
3F00
ENDCHAR
STARTCHAR C026047
ENCODING 11303
SWIDTH 1800 0
DWIDTH 18 0
BBX 12 14 4 0
BITMAP
3980
3180
0000
FFE0
3060
3060
3000
30C0
3FC0
30C0
3000
3030
3060
FFE0
ENDCHAR
STARTCHAR C026050
ENCODING 11304
SWIDTH 1800 0
DWIDTH 18 0
BBX 19 13 0 0
BITMAP
F007C0
7BF7C0
0CCC00
0CCC20
0CCC20
06D800
03F800
06DC00
0EDC00
1CCE00
18C600
38C700
F3F380
ENDCHAR
STARTCHAR C026051
ENCODING 11305
SWIDTH 1800 0
DWIDTH 18 0
BBX 9 13 5 0
BITMAP
3E00
6300
C180
0180
0380
0700
3E00
0700
0380
0180
0180
C380
7F00
ENDCHAR
STARTCHAR C026052
ENCODING 11306
SWIDTH 1800 0
DWIDTH 18 0
BBX 15 12 2 0
BITMAP
FC7E
3018
3078
3078
30D8
3198
3318
3618
3C18
3818
3018
FC7E
ENDCHAR
STARTCHAR C026053
ENCODING 11307
SWIDTH 1800 0
DWIDTH 18 0
BBX 13 13 3 0
BITMAP
1DC0
0FC0
F078
6030
6070
60F0
63B0
6630
6C30
7830
7030
6030
F8F8
ENDCHAR
STARTCHAR C026054
ENCODING 11308
SWIDTH 1800 0
DWIDTH 18 0
BBX 13 12 3 0
BITMAP
FC78
30F8
3180
3180
3300
3300
3E00
3380
31C0
30C0
3060
FC78
ENDCHAR
STARTCHAR C026055
ENCODING 11309
SWIDTH 1800 0
DWIDTH 18 0
BBX 13 12 3 0
BITMAP
1FF0
0C60
0C60
0C60
0C60
0C60
0C60
0C60
0C60
1860
D860
F1F8
ENDCHAR
STARTCHAR C026056
ENCODING 11310
SWIDTH 1800 0
DWIDTH 18 0
BBX 17 13 1 0
BITMAP
E00780
700E00
700E00
781E00
781E00
6C3600
6C3600
666600
636600
63C600
61C600
618600
F81F80
ENDCHAR
STARTCHAR C026057
ENCODING 11311
SWIDTH 1800 0
DWIDTH 18 0
BBX 15 12 2 0
BITMAP
FC7E
3018
3018
3018
3018
3FF8
3018
3018
3018
3018
3018
FC3E
ENDCHAR
STARTCHAR C026060
ENCODING 11312
SWIDTH 1800 0
DWIDTH 18 0
BBX 13 13 3 0
BITMAP
1F80
38E0
6030
6030
C018
C018
C018
C018
C018
6030
6030
38E0
1F80
ENDCHAR
STARTCHAR C026061
ENCODING 11313
SWIDTH 1800 0
DWIDTH 18 0
BBX 15 12 2 0
BITMAP
FFFC
3018
3018
3018
3018
3018
3018
3018
3018
3018
3018
7C3E
ENDCHAR
STARTCHAR C026062
ENCODING 11314
SWIDTH 1800 0
DWIDTH 18 0
BBX 11 12 4 0
BITMAP
7F80
30C0
3060
3060
3060
30C0
3F80
3000
3000
3000
3000
FC00
ENDCHAR
STARTCHAR C026063
ENCODING 11315
SWIDTH 1800 0
DWIDTH 18 0
BBX 12 13 4 -1
BITMAP
1FF0
7030
6030
C000
C000
C000
C000
C000
C000
6000
3000
1DE0
0700
ENDCHAR
STARTCHAR C026064
ENCODING 11316
SWIDTH 1800 0
DWIDTH 18 0
BBX 12 12 3 0
BITMAP
FFF0
C630
0630
0600
0600
0600
0600
0600
0600
0600
0600
0F00
ENDCHAR
STARTCHAR C026065
ENCODING 11317
SWIDTH 1800 0
DWIDTH 18 0
BBX 13 12 3 0
BITMAP
F038
3030
3030
1860
18C0
0CC0
0D80
0780
0700
0300
3600
7C00
ENDCHAR
STARTCHAR C026066
ENCODING 11318
SWIDTH 1800 0
DWIDTH 18 0
BBX 13 12 3 0
BITMAP
0FC0
1F00
73C0
E370
C318
C318
C318
6338
7370
1FE0
0300
0F80
ENDCHAR
STARTCHAR C026067
ENCODING 11319
SWIDTH 1800 0
DWIDTH 18 0
BBX 14 12 2 0
BITMAP
3E7C
1818
0C30
0C60
06C0
0380
0380
06C0
0C60
1860
3030
F07C
ENDCHAR
STARTCHAR C026070
ENCODING 11320
SWIDTH 1800 0
DWIDTH 18 0
BBX 14 15 2 -3
BITMAP
7CFC
3030
3030
3030
3030
3030
3030
3030
3030
3030
3030
FFF8
000C
000C
000C
ENDCHAR
STARTCHAR C026071
ENCODING 11321
SWIDTH 1800 0
DWIDTH 18 0
BBX 13 12 3 0
BITMAP
FDF8
3060
3060
3060
3060
3060
3060
19E0
0F60
0060
0060
00F8
ENDCHAR
STARTCHAR C026072
ENCODING 11322
SWIDTH 1800 0
DWIDTH 18 0
BBX 17 13 1 -1
BITMAP
73C780
618300
618300
618300
618300
618300
618300
618300
618300
618300
618300
E18380
3FFE00
ENDCHAR
STARTCHAR C026073
ENCODING 11323
SWIDTH 1800 0
DWIDTH 18 0
BBX 17 15 1 -3
BITMAP
FFFF00
318600
318600
318600
318600
318600
318600
318600
318600
318600
318600
FFFE00
000380
000180
000180
ENDCHAR
STARTCHAR C026074
ENCODING 11324
SWIDTH 1800 0
DWIDTH 18 0
BBX 13 12 3 0
BITMAP
FE00
CC00
0C00
0C00
0C00
0FE0
0C38
0C18
0C18
0C18
0C70
3FE0
ENDCHAR
STARTCHAR C026075
ENCODING 11325
SWIDTH 1800 0
DWIDTH 18 0
BBX 17 12 1 0
BITMAP
F81F80
300600
300600
300600
300600
3F8600
30C600
306600
306600
306600
30E600
FF9F00
ENDCHAR
STARTCHAR C026076
ENCODING 11326
SWIDTH 1800 0
DWIDTH 18 0
BBX 10 13 5 -1
BITMAP
F000
6000
6000
6000
6000
7C00
6780
60C0
60C0
60C0
61C0
E700
3C00
ENDCHAR
STARTCHAR C026077
ENCODING 11327
SWIDTH 1800 0
DWIDTH 18 0
BBX 12 13 3 0
BITMAP
DF80
F0C0
C060
C030
0030
0030
0FF0
0030
0030
0030
0060
60E0
3F80
ENDCHAR
STARTCHAR C026100
ENCODING 11328
SWIDTH 1800 0
DWIDTH 18 0
BBX 17 14 1 -1
BITMAP
007C00
FCC600
318300
318300
330180
330180
3F0180
330180
330180
330180
318300
318300
FCC600
007C00
ENDCHAR
STARTCHAR C026101
ENCODING 11329
SWIDTH 1800 0
DWIDTH 18 0
BBX 13 12 3 0
BITMAP
0FF8
3860
3060
3060
3860
1FE0
0660
0C60
1860
1860
3060
E0F0
ENDCHAR
STARTCHAR C026102
ENCODING 11330
SWIDTH 1800 0
DWIDTH 18 0
BBX 0 0 0 0
BITMAP
ENDCHAR
STARTCHAR C026103
ENCODING 11331
SWIDTH 1800 0
DWIDTH 18 0
BBX 0 0 0 0
BITMAP
ENDCHAR
STARTCHAR C026104
ENCODING 11332
SWIDTH 1800 0
DWIDTH 18 0
BBX 0 0 0 0
BITMAP
ENDCHAR
STARTCHAR C026105
ENCODING 11333
SWIDTH 1800 0
DWIDTH 18 0
BBX 0 0 0 0
BITMAP
ENDCHAR
STARTCHAR C026106
ENCODING 11334
SWIDTH 1800 0
DWIDTH 18 0
BBX 1 2 18 8
BITMAP
80
80
ENDCHAR
STARTCHAR C026107
ENCODING 11335
SWIDTH 1800 0
DWIDTH 18 0
BBX 0 0 0 0
BITMAP
ENDCHAR
STARTCHAR C026110
ENCODING 11336
SWIDTH 1800 0
DWIDTH 18 0
BBX 0 0 0 0
BITMAP
ENDCHAR
STARTCHAR C026111
ENCODING 11337
SWIDTH 1800 0
DWIDTH 18 0
BBX 0 0 0 0
BITMAP
ENDCHAR
STARTCHAR C026112
ENCODING 11338
SWIDTH 1800 0
DWIDTH 18 0
BBX 0 0 0 0
BITMAP
ENDCHAR
STARTCHAR C026113
ENCODING 11339
SWIDTH 1800 0
DWIDTH 18 0
BBX 0 0 0 0
BITMAP
ENDCHAR
STARTCHAR C026114
ENCODING 11340
SWIDTH 1800 0
DWIDTH 18 0
BBX 0 0 0 0
BITMAP
ENDCHAR
STARTCHAR C026115
ENCODING 11341
SWIDTH 1800 0
DWIDTH 18 0
BBX 0 0 0 0
BITMAP
ENDCHAR
STARTCHAR C026116
ENCODING 11342
SWIDTH 1800 0
DWIDTH 18 0
BBX 0 0 0 0
BITMAP
ENDCHAR
STARTCHAR C026117
ENCODING 11343
SWIDTH 1800 0
DWIDTH 18 0
BBX 0 0 0 0
BITMAP
ENDCHAR
STARTCHAR C026120
ENCODING 11344
SWIDTH 1800 0
DWIDTH 18 0
BBX 1 14 18 -4
BITMAP
80
00
00
80
00
80
80
00
00
00
00
00
00
80
ENDCHAR
STARTCHAR C026121
ENCODING 11345
SWIDTH 1800 0
DWIDTH 18 0
BBX 9 8 5 0
BITMAP
7E00
C600
C600
1E00
7600
C600
C600
FF80
ENDCHAR
STARTCHAR C026122
ENCODING 11346
SWIDTH 1800 0
DWIDTH 18 0
BBX 9 12 5 0
BITMAP
1F80
3000
6000
FC00
E700
C300
C180
C180
C180
E380
6300
3E00
ENDCHAR
STARTCHAR C026123
ENCODING 11347
SWIDTH 1800 0
DWIDTH 18 0
BBX 7 8 6 0
BITMAP
FC
66
66
7C
66
66
66
FE
ENDCHAR
STARTCHAR C026124
ENCODING 11348
SWIDTH 1800 0
DWIDTH 18 0
BBX 8 8 6 0
BITMAP
FE
63
63
60
60
60
60
F0
ENDCHAR
STARTCHAR C026125
ENCODING 11349
SWIDTH 1800 0
DWIDTH 18 0
BBX 11 10 4 -2
BITMAP
3FE0
1980
1980
1980
3180
3180
6180
7F80
C0E0
0060
ENDCHAR
STARTCHAR C026126
ENCODING 11350
SWIDTH 1800 0
DWIDTH 18 0
BBX 8 8 5 0
BITMAP
7E
63
FF
C0
C0
E0
63
3E
ENDCHAR
STARTCHAR C026127
ENCODING 11351
SWIDTH 1800 0
DWIDTH 18 0
BBX 8 11 5 0
BITMAP
36
36
00
7E
63
7F
C0
E0
60
63
3E
ENDCHAR
STARTCHAR C026130
ENCODING 11352
SWIDTH 1800 0
DWIDTH 18 0
BBX 13 9 3 -1
BITMAP
EF70
36C0
3780
1F80
36C0
36C0
6660
EF70
0018
ENDCHAR
STARTCHAR C026131
ENCODING 11353
SWIDTH 1800 0
DWIDTH 18 0
BBX 7 9 6 -1
BITMAP
FC
C6
06
3C
0E
06
06
CE
78
ENDCHAR
STARTCHAR C026132
ENCODING 11354
SWIDTH 1800 0
DWIDTH 18 0
BBX 9 8 5 0
BITMAP
FF80
6300
6300
6F00
7B00
7300
6300
F780
ENDCHAR
STARTCHAR C026133
ENCODING 11355
SWIDTH 1800 0
DWIDTH 18 0
BBX 9 11 5 0
BITMAP
7700
7700
1C00
FF80
6300
6300
6F00
7B00
7300
6300
F780
ENDCHAR
STARTCHAR C026134
ENCODING 11356
SWIDTH 1800 0
DWIDTH 18 0
BBX 8 8 5 0
BITMAP
F7
6C
78
78
6C
6C
66
77
ENDCHAR
STARTCHAR C026135
ENCODING 11357
SWIDTH 1800 0
DWIDTH 18 0
BBX 10 9 4 -1
BITMAP
7FC0
1980
1980
1980
1980
1980
1980
F7C0
E000
ENDCHAR
STARTCHAR C026136
ENCODING 11358
SWIDTH 1800 0
DWIDTH 18 0
BBX 13 8 3 0
BITMAP
E038
7070
78F0
78F0
6DB0
6F30
6730
F078
ENDCHAR
STARTCHAR C026137
ENCODING 11359
SWIDTH 1800 0
DWIDTH 18 0
BBX 10 8 4 0
BITMAP
FBC0
3180
3180
3F80
3180
3180
3180
7BC0
ENDCHAR
STARTCHAR C026140
ENCODING 11360
SWIDTH 1800 0
DWIDTH 18 0
BBX 9 8 5 0
BITMAP
3E00
6300
C180
C180
C180
C180
6300
3E00
ENDCHAR
STARTCHAR C026141
ENCODING 11361
SWIDTH 1800 0
DWIDTH 18 0
BBX 9 8 5 0
BITMAP
FF80
6300
6300
6300
6300
6300
6300
F780
ENDCHAR
STARTCHAR C026142
ENCODING 11362
SWIDTH 1800 0
DWIDTH 18 0
BBX 9 12 5 -3
BITMAP
FE00
7F00
6380
6180
6180
6180
6180
6300
7E00
6000
6000
F800
ENDCHAR
STARTCHAR C026143
ENCODING 11363
SWIDTH 1800 0
DWIDTH 18 0
BBX 8 9 5 -1
BITMAP
1E
33
63
C0
C0
C0
60
63
3E
ENDCHAR
STARTCHAR C026144
ENCODING 11364
SWIDTH 1800 0
DWIDTH 18 0
BBX 9 8 5 0
BITMAP
FF80
1980
1800
1800
1800
1800
1800
7E00
ENDCHAR
STARTCHAR C026145
ENCODING 11365
SWIDTH 1800 0
DWIDTH 18 0
BBX 9 12 5 -4
BITMAP
F380
6300
6300
3600
3600
1E00
1C00
0C00
1800
1800
F000
6000
ENDCHAR
STARTCHAR C026146
ENCODING 11366
SWIDTH 1800 0
DWIDTH 18 0
BBX 12 16 3 -3
BITMAP
0600
0E00
0600
0600
0600
7FE0
6660
E630
E630
E630
E660
6660
77C0
1F80
0600
0F00
ENDCHAR
STARTCHAR C026147
ENCODING 11367
SWIDTH 1800 0
DWIDTH 18 0
BBX 9 8 5 0
BITMAP
F780
3600
3C00
1800
3C00
3600
6600
E700
ENDCHAR
STARTCHAR C026150
ENCODING 11368
SWIDTH 1800 0
DWIDTH 18 0
BBX 11 10 4 -2
BITMAP
FFE0
3180
3180
3180
3180
3180
3180
7180
1FE0
0060
ENDCHAR
STARTCHAR C026151
ENCODING 11369
SWIDTH 1800 0
DWIDTH 18 0
BBX 10 8 5 0
BITMAP
FFC0
6300
6300
6300
7F00
1B00
0300
0780
ENDCHAR
STARTCHAR C026152
ENCODING 11370
SWIDTH 1800 0
DWIDTH 18 0
BBX 16 9 2 -1
BITMAP
FFFF
618C
618C
618C
618C
618C
618C
E18E
3FF8
ENDCHAR
STARTCHAR C026153
ENCODING 11371
SWIDTH 1800 0
DWIDTH 18 0
BBX 15 11 2 -3
BITMAP
FFFE
6318
6318
6318
6318
6318
6318
FFF8
000E
0006
0006
ENDCHAR
STARTCHAR C026154
ENCODING 11372
SWIDTH 1800 0
DWIDTH 18 0
BBX 10 8 5 0
BITMAP
FE00
D800
1800
1F80
19C0
18C0
19C0
3F80
ENDCHAR
STARTCHAR C026155
ENCODING 11373
SWIDTH 1800 0
DWIDTH 18 0
BBX 14 9 3 -1
BITMAP
F8FC
6030
6030
7C30
6730
6330
6330
EE78
3800
ENDCHAR
STARTCHAR C026156
ENCODING 11374
SWIDTH 1800 0
DWIDTH 18 0
BBX 8 9 6 -1
BITMAP
F8
60
60
7C
67
63
63
EE
38
ENDCHAR
STARTCHAR C026157
ENCODING 11375
SWIDTH 1800 0
DWIDTH 18 0
BBX 8 8 6 0
BITMAP
FE
C3
03
1F
03
03
C6
7C
ENDCHAR
STARTCHAR C026160
ENCODING 11376
SWIDTH 1800 0
DWIDTH 18 0
BBX 14 9 2 -1
BITMAP
FDF0
3318
360C
360C
3E0C
360C
3318
79B0
00E0
ENDCHAR
STARTCHAR C026161
ENCODING 11377
SWIDTH 1800 0
DWIDTH 18 0
BBX 8 8 6 0
BITMAP
7F
E6
E6
76
3E
36
66
CF
ENDCHAR
STARTCHAR C026162
ENCODING 11378
SWIDTH 1800 0
DWIDTH 18 0
BBX 0 0 0 0
BITMAP
ENDCHAR
STARTCHAR C026163
ENCODING 11379
SWIDTH 1800 0
DWIDTH 18 0
BBX 1 2 18 8
BITMAP
80
80
ENDCHAR
STARTCHAR C026164
ENCODING 11380
SWIDTH 1800 0
DWIDTH 18 0
BBX 0 0 0 0
BITMAP
ENDCHAR
STARTCHAR C026165
ENCODING 11381
SWIDTH 1800 0
DWIDTH 18 0
BBX 0 0 0 0
BITMAP
ENDCHAR
STARTCHAR C026166
ENCODING 11382
SWIDTH 1800 0
DWIDTH 18 0
BBX 0 0 0 0
BITMAP
ENDCHAR
STARTCHAR C026167
ENCODING 11383
SWIDTH 1800 0
DWIDTH 18 0
BBX 0 0 0 0
BITMAP
ENDCHAR
STARTCHAR C026170
ENCODING 11384
SWIDTH 1800 0
DWIDTH 18 0
BBX 0 0 0 0
BITMAP
ENDCHAR
STARTCHAR C026171
ENCODING 11385
SWIDTH 1800 0
DWIDTH 18 0
BBX 0 0 0 0
BITMAP
ENDCHAR
STARTCHAR C026172
ENCODING 11386
SWIDTH 1800 0
DWIDTH 18 0
BBX 0 0 0 0
BITMAP
ENDCHAR
STARTCHAR C026173
ENCODING 11387
SWIDTH 1800 0
DWIDTH 18 0
BBX 0 0 0 0
BITMAP
ENDCHAR
STARTCHAR C026174
ENCODING 11388
SWIDTH 1800 0
DWIDTH 18 0
BBX 0 0 0 0
BITMAP
ENDCHAR
STARTCHAR C026175
ENCODING 11389
SWIDTH 1800 0
DWIDTH 18 0
BBX 1 14 18 -4
BITMAP
80
00
00
80
00
80
80
00
00
00
00
00
00
80
ENDCHAR
STARTCHAR C026176
ENCODING 11390
SWIDTH 1800 0
DWIDTH 18 0
BBX 0 0 0 0
BITMAP
ENDCHAR
STARTCHAR C026177
ENCODING 11391
SWIDTH 1800 0
DWIDTH 18 0
BBX 0 0 0 0
BITMAP
ENDCHAR
STARTCHAR C026440
ENCODING 11552
SWIDTH 1800 0
DWIDTH 18 0
BBX 0 0 0 0
BITMAP
ENDCHAR
STARTCHAR C026441
ENCODING 11553
SWIDTH 1800 0
DWIDTH 18 0
BBX 0 0 0 0
BITMAP
ENDCHAR
STARTCHAR C026442
ENCODING 11554
SWIDTH 1800 0
DWIDTH 18 0
BBX 1 2 18 8
BITMAP
80
80
ENDCHAR
STARTCHAR C026443
ENCODING 11555
SWIDTH 1800 0
DWIDTH 18 0
BBX 0 0 0 0
BITMAP
ENDCHAR
STARTCHAR C026444
ENCODING 11556
SWIDTH 1800 0
DWIDTH 18 0
BBX 0 0 0 0
BITMAP
ENDCHAR
STARTCHAR C026445
ENCODING 11557
SWIDTH 1800 0
DWIDTH 18 0
BBX 0 0 0 0
BITMAP
ENDCHAR
STARTCHAR C026446
ENCODING 11558
SWIDTH 1800 0
DWIDTH 18 0
BBX 0 0 0 0
BITMAP
ENDCHAR
STARTCHAR C026447
ENCODING 11559
SWIDTH 1800 0
DWIDTH 18 0
BBX 0 0 0 0
BITMAP
ENDCHAR
STARTCHAR C026450
ENCODING 11560
SWIDTH 1800 0
DWIDTH 18 0
BBX 0 0 0 0
BITMAP
ENDCHAR
STARTCHAR C026451
ENCODING 11561
SWIDTH 1800 0
DWIDTH 18 0
BBX 0 0 0 0
BITMAP
ENDCHAR
STARTCHAR C026452
ENCODING 11562
SWIDTH 1800 0
DWIDTH 18 0
BBX 0 0 0 0
BITMAP
ENDCHAR
STARTCHAR C026453
ENCODING 11563
SWIDTH 1800 0
DWIDTH 18 0
BBX 0 0 0 0
BITMAP
ENDCHAR
STARTCHAR C026454
ENCODING 11564
SWIDTH 1800 0
DWIDTH 18 0
BBX 1 14 18 -4
BITMAP
80
00
00
80
00
80
80
00
00
00
00
00
00
80
ENDCHAR
STARTCHAR C026455
ENCODING 11565
SWIDTH 1800 0
DWIDTH 18 0
BBX 0 0 0 0
BITMAP
ENDCHAR
STARTCHAR C026456
ENCODING 11566
SWIDTH 1800 0
DWIDTH 18 0
BBX 0 0 0 0
BITMAP
ENDCHAR
STARTCHAR C026457
ENCODING 11567
SWIDTH 1800 0
DWIDTH 18 0
BBX 0 0 0 0
BITMAP
ENDCHAR
STARTCHAR C026460
ENCODING 11568
SWIDTH 1800 0
DWIDTH 18 0
BBX 0 0 0 0
BITMAP
ENDCHAR
STARTCHAR C026461
ENCODING 11569
SWIDTH 1800 0
DWIDTH 18 0
BBX 1 2 18 8
BITMAP
80
80
ENDCHAR
STARTCHAR C026462
ENCODING 11570
SWIDTH 1800 0
DWIDTH 18 0
BBX 0 0 0 0
BITMAP
ENDCHAR
STARTCHAR C026463
ENCODING 11571
SWIDTH 1800 0
DWIDTH 18 0
BBX 0 0 0 0
BITMAP
ENDCHAR
STARTCHAR C026464
ENCODING 11572
SWIDTH 1800 0
DWIDTH 18 0
BBX 0 0 0 0
BITMAP
ENDCHAR
STARTCHAR C026465
ENCODING 11573
SWIDTH 1800 0
DWIDTH 18 0
BBX 0 0 0 0
BITMAP
ENDCHAR
STARTCHAR C026466
ENCODING 11574
SWIDTH 1800 0
DWIDTH 18 0
BBX 0 0 0 0
BITMAP
ENDCHAR
STARTCHAR C026467
ENCODING 11575
SWIDTH 1800 0
DWIDTH 18 0
BBX 0 0 0 0
BITMAP
ENDCHAR
STARTCHAR C026470
ENCODING 11576
SWIDTH 1800 0
DWIDTH 18 0
BBX 0 0 0 0
BITMAP
ENDCHAR
STARTCHAR C026471
ENCODING 11577
SWIDTH 1800 0
DWIDTH 18 0
BBX 0 0 0 0
BITMAP
ENDCHAR
STARTCHAR C026472
ENCODING 11578
SWIDTH 1800 0
DWIDTH 18 0
BBX 0 0 0 0
BITMAP
ENDCHAR
STARTCHAR C026473
ENCODING 11579
SWIDTH 1800 0
DWIDTH 18 0
BBX 1 14 18 -4
BITMAP
80
00
00
80
00
80
80
00
00
00
00
00
00
80
ENDCHAR
STARTCHAR C026474
ENCODING 11580
SWIDTH 1800 0
DWIDTH 18 0
BBX 0 0 0 0
BITMAP
ENDCHAR
STARTCHAR C026475
ENCODING 11581
SWIDTH 1800 0
DWIDTH 18 0
BBX 0 0 0 0
BITMAP
ENDCHAR
STARTCHAR C026476
ENCODING 11582
SWIDTH 1800 0
DWIDTH 18 0
BBX 0 0 0 0
BITMAP
ENDCHAR
STARTCHAR C026477
ENCODING 11583
SWIDTH 1800 0
DWIDTH 18 0
BBX 0 0 0 0
BITMAP
ENDCHAR
STARTCHAR C026500
ENCODING 11584
SWIDTH 1800 0
DWIDTH 18 0
BBX 1 2 18 8
BITMAP
80
80
ENDCHAR
STARTCHAR C026501
ENCODING 11585
SWIDTH 1800 0
DWIDTH 18 0
BBX 0 0 0 0
BITMAP
ENDCHAR
STARTCHAR C026502
ENCODING 11586
SWIDTH 1800 0
DWIDTH 18 0
BBX 0 0 0 0
BITMAP
ENDCHAR
STARTCHAR C026503
ENCODING 11587
SWIDTH 1800 0
DWIDTH 18 0
BBX 0 0 0 0
BITMAP
ENDCHAR
STARTCHAR C026504
ENCODING 11588
SWIDTH 1800 0
DWIDTH 18 0
BBX 0 0 0 0
BITMAP
ENDCHAR
STARTCHAR C026505
ENCODING 11589
SWIDTH 1800 0
DWIDTH 18 0
BBX 0 0 0 0
BITMAP
ENDCHAR
STARTCHAR C026506
ENCODING 11590
SWIDTH 1800 0
DWIDTH 18 0
BBX 0 0 0 0
BITMAP
ENDCHAR
STARTCHAR C026507
ENCODING 11591
SWIDTH 1800 0
DWIDTH 18 0
BBX 0 0 0 0
BITMAP
ENDCHAR
STARTCHAR C026510
ENCODING 11592
SWIDTH 1800 0
DWIDTH 18 0
BBX 0 0 0 0
BITMAP
ENDCHAR
STARTCHAR C026511
ENCODING 11593
SWIDTH 1800 0
DWIDTH 18 0
BBX 0 0 0 0
BITMAP
ENDCHAR
STARTCHAR C026512
ENCODING 11594
SWIDTH 1800 0
DWIDTH 18 0
BBX 1 14 18 -4
BITMAP
80
00
00
80
00
80
80
00
00
00
00
00
00
80
ENDCHAR
STARTCHAR C026513
ENCODING 11595
SWIDTH 1800 0
DWIDTH 18 0
BBX 0 0 0 0
BITMAP
ENDCHAR
STARTCHAR C026514
ENCODING 11596
SWIDTH 1800 0
DWIDTH 18 0
BBX 0 0 0 0
BITMAP
ENDCHAR
STARTCHAR C026515
ENCODING 11597
SWIDTH 1800 0
DWIDTH 18 0
BBX 0 0 0 0
BITMAP
ENDCHAR
STARTCHAR C026516
ENCODING 11598
SWIDTH 1800 0
DWIDTH 18 0
BBX 0 0 0 0
BITMAP
ENDCHAR
STARTCHAR C026517
ENCODING 11599
SWIDTH 1800 0
DWIDTH 18 0
BBX 1 2 18 8
BITMAP
80
80
ENDCHAR
STARTCHAR C026520
ENCODING 11600
SWIDTH 1800 0
DWIDTH 18 0
BBX 0 0 0 0
BITMAP
ENDCHAR
STARTCHAR C026521
ENCODING 11601
SWIDTH 1800 0
DWIDTH 18 0
BBX 0 0 0 0
BITMAP
ENDCHAR
STARTCHAR C026522
ENCODING 11602
SWIDTH 1800 0
DWIDTH 18 0
BBX 0 0 0 0
BITMAP
ENDCHAR
STARTCHAR C026523
ENCODING 11603
SWIDTH 1800 0
DWIDTH 18 0
BBX 0 0 0 0
BITMAP
ENDCHAR
STARTCHAR C026524
ENCODING 11604
SWIDTH 1800 0
DWIDTH 18 0
BBX 0 0 0 0
BITMAP
ENDCHAR
STARTCHAR C026525
ENCODING 11605
SWIDTH 1800 0
DWIDTH 18 0
BBX 0 0 0 0
BITMAP
ENDCHAR
STARTCHAR C026526
ENCODING 11606
SWIDTH 1800 0
DWIDTH 18 0
BBX 0 0 0 0
BITMAP
ENDCHAR
STARTCHAR C026527
ENCODING 11607
SWIDTH 1800 0
DWIDTH 18 0
BBX 0 0 0 0
BITMAP
ENDCHAR
STARTCHAR C026530
ENCODING 11608
SWIDTH 1800 0
DWIDTH 18 0
BBX 0 0 0 0
BITMAP
ENDCHAR
STARTCHAR C026531
ENCODING 11609
SWIDTH 1800 0
DWIDTH 18 0
BBX 1 14 18 -4
BITMAP
80
00
00
80
00
80
80
00
00
00
00
00
00
80
ENDCHAR
STARTCHAR C026532
ENCODING 11610
SWIDTH 1800 0
DWIDTH 18 0
BBX 0 0 0 0
BITMAP
ENDCHAR
STARTCHAR C026533
ENCODING 11611
SWIDTH 1800 0
DWIDTH 18 0
BBX 0 0 0 0
BITMAP
ENDCHAR
STARTCHAR C026534
ENCODING 11612
SWIDTH 1800 0
DWIDTH 18 0
BBX 0 0 0 0
BITMAP
ENDCHAR
STARTCHAR C026535
ENCODING 11613
SWIDTH 1800 0
DWIDTH 18 0
BBX 0 0 0 0
BITMAP
ENDCHAR
STARTCHAR C026536
ENCODING 11614
SWIDTH 1800 0
DWIDTH 18 0
BBX 1 2 18 8
BITMAP
80
80
ENDCHAR
STARTCHAR C026537
ENCODING 11615
SWIDTH 1800 0
DWIDTH 18 0
BBX 0 0 0 0
BITMAP
ENDCHAR
STARTCHAR C026540
ENCODING 11616
SWIDTH 1800 0
DWIDTH 18 0
BBX 0 0 0 0
BITMAP
ENDCHAR
STARTCHAR C026541
ENCODING 11617
SWIDTH 1800 0
DWIDTH 18 0
BBX 0 0 0 0
BITMAP
ENDCHAR
STARTCHAR C026542
ENCODING 11618
SWIDTH 1800 0
DWIDTH 18 0
BBX 0 0 0 0
BITMAP
ENDCHAR
STARTCHAR C026543
ENCODING 11619
SWIDTH 1800 0
DWIDTH 18 0
BBX 0 0 0 0
BITMAP
ENDCHAR
STARTCHAR C026544
ENCODING 11620
SWIDTH 1800 0
DWIDTH 18 0
BBX 0 0 0 0
BITMAP
ENDCHAR
STARTCHAR C026545
ENCODING 11621
SWIDTH 1800 0
DWIDTH 18 0
BBX 0 0 0 0
BITMAP
ENDCHAR
STARTCHAR C026546
ENCODING 11622
SWIDTH 1800 0
DWIDTH 18 0
BBX 0 0 0 0
BITMAP
ENDCHAR
STARTCHAR C026547
ENCODING 11623
SWIDTH 1800 0
DWIDTH 18 0
BBX 0 0 0 0
BITMAP
ENDCHAR
STARTCHAR C026550
ENCODING 11624
SWIDTH 1800 0
DWIDTH 18 0
BBX 1 14 18 -4
BITMAP
80
00
00
80
00
80
80
00
00
00
00
00
00
80
ENDCHAR
STARTCHAR C026551
ENCODING 11625
SWIDTH 1800 0
DWIDTH 18 0
BBX 0 0 0 0
BITMAP
ENDCHAR
STARTCHAR C026552
ENCODING 11626
SWIDTH 1800 0
DWIDTH 18 0
BBX 0 0 0 0
BITMAP
ENDCHAR
STARTCHAR C026553
ENCODING 11627
SWIDTH 1800 0
DWIDTH 18 0
BBX 0 0 0 0
BITMAP
ENDCHAR
STARTCHAR C026554
ENCODING 11628
SWIDTH 1800 0
DWIDTH 18 0
BBX 0 0 0 0
BITMAP
ENDCHAR
STARTCHAR C026555
ENCODING 11629
SWIDTH 1800 0
DWIDTH 18 0
BBX 1 2 18 8
BITMAP
80
80
ENDCHAR
STARTCHAR C026556
ENCODING 11630
SWIDTH 1800 0
DWIDTH 18 0
BBX 0 0 0 0
BITMAP
ENDCHAR
STARTCHAR C026557
ENCODING 11631
SWIDTH 1800 0
DWIDTH 18 0
BBX 0 0 0 0
BITMAP
ENDCHAR
STARTCHAR C026560
ENCODING 11632
SWIDTH 1800 0
DWIDTH 18 0
BBX 0 0 0 0
BITMAP
ENDCHAR
STARTCHAR C026561
ENCODING 11633
SWIDTH 1800 0
DWIDTH 18 0
BBX 0 0 0 0
BITMAP
ENDCHAR
STARTCHAR C026562
ENCODING 11634
SWIDTH 1800 0
DWIDTH 18 0
BBX 0 0 0 0
BITMAP
ENDCHAR
STARTCHAR C026563
ENCODING 11635
SWIDTH 1800 0
DWIDTH 18 0
BBX 0 0 0 0
BITMAP
ENDCHAR
STARTCHAR C026564
ENCODING 11636
SWIDTH 1800 0
DWIDTH 18 0
BBX 0 0 0 0
BITMAP
ENDCHAR
STARTCHAR C026565
ENCODING 11637
SWIDTH 1800 0
DWIDTH 18 0
BBX 0 0 0 0
BITMAP
ENDCHAR
STARTCHAR C026566
ENCODING 11638
SWIDTH 1800 0
DWIDTH 18 0
BBX 0 0 0 0
BITMAP
ENDCHAR
STARTCHAR C026567
ENCODING 11639
SWIDTH 1800 0
DWIDTH 18 0
BBX 1 14 18 -4
BITMAP
80
00
00
80
00
80
80
00
00
00
00
00
00
80
ENDCHAR
STARTCHAR C026570
ENCODING 11640
SWIDTH 1800 0
DWIDTH 18 0
BBX 0 0 0 0
BITMAP
ENDCHAR
STARTCHAR C026571
ENCODING 11641
SWIDTH 1800 0
DWIDTH 18 0
BBX 0 0 0 0
BITMAP
ENDCHAR
STARTCHAR C026572
ENCODING 11642
SWIDTH 1800 0
DWIDTH 18 0
BBX 0 0 0 0
BITMAP
ENDCHAR
STARTCHAR C026573
ENCODING 11643
SWIDTH 1800 0
DWIDTH 18 0
BBX 0 0 0 0
BITMAP
ENDCHAR
STARTCHAR C026574
ENCODING 11644
SWIDTH 1800 0
DWIDTH 18 0
BBX 1 2 18 8
BITMAP
80
80
ENDCHAR
STARTCHAR C026575
ENCODING 11645
SWIDTH 1800 0
DWIDTH 18 0
BBX 0 0 0 0
BITMAP
ENDCHAR
STARTCHAR C026576
ENCODING 11646
SWIDTH 1800 0
DWIDTH 18 0
BBX 0 0 0 0
BITMAP
ENDCHAR
STARTCHAR C026577
ENCODING 11647
SWIDTH 1800 0
DWIDTH 18 0
BBX 0 0 0 0
BITMAP
ENDCHAR
STARTCHAR C027040
ENCODING 11808
SWIDTH 1800 0
DWIDTH 18 0
BBX 0 0 0 0
BITMAP
ENDCHAR
STARTCHAR C027041
ENCODING 11809
SWIDTH 1800 0
DWIDTH 18 0
BBX 0 0 0 0
BITMAP
ENDCHAR
STARTCHAR C027042
ENCODING 11810
SWIDTH 1800 0
DWIDTH 18 0
BBX 0 0 0 0
BITMAP
ENDCHAR
STARTCHAR C027043
ENCODING 11811
SWIDTH 1800 0
DWIDTH 18 0
BBX 0 0 0 0
BITMAP
ENDCHAR
STARTCHAR C027044
ENCODING 11812
SWIDTH 1800 0
DWIDTH 18 0
BBX 0 0 0 0
BITMAP
ENDCHAR
STARTCHAR C027045
ENCODING 11813
SWIDTH 1800 0
DWIDTH 18 0
BBX 0 0 0 0
BITMAP
ENDCHAR
STARTCHAR C027046
ENCODING 11814
SWIDTH 1800 0
DWIDTH 18 0
BBX 1 14 18 -4
BITMAP
80
00
00
80
00
80
80
00
00
00
00
00
00
80
ENDCHAR
STARTCHAR C027047
ENCODING 11815
SWIDTH 1800 0
DWIDTH 18 0
BBX 0 0 0 0
BITMAP
ENDCHAR
STARTCHAR C027050
ENCODING 11816
SWIDTH 1800 0
DWIDTH 18 0
BBX 0 0 0 0
BITMAP
ENDCHAR
STARTCHAR C027051
ENCODING 11817
SWIDTH 1800 0
DWIDTH 18 0
BBX 0 0 0 0
BITMAP
ENDCHAR
STARTCHAR C027052
ENCODING 11818
SWIDTH 1800 0
DWIDTH 18 0
BBX 0 0 0 0
BITMAP
ENDCHAR
STARTCHAR C027053
ENCODING 11819
SWIDTH 1800 0
DWIDTH 18 0
BBX 1 2 18 8
BITMAP
80
80
ENDCHAR
STARTCHAR C027054
ENCODING 11820
SWIDTH 1800 0
DWIDTH 18 0
BBX 0 0 0 0
BITMAP
ENDCHAR
STARTCHAR C027055
ENCODING 11821
SWIDTH 1800 0
DWIDTH 18 0
BBX 0 0 0 0
BITMAP
ENDCHAR
STARTCHAR C027056
ENCODING 11822
SWIDTH 1800 0
DWIDTH 18 0
BBX 0 0 0 0
BITMAP
ENDCHAR
STARTCHAR C027057
ENCODING 11823
SWIDTH 1800 0
DWIDTH 18 0
BBX 0 0 0 0
BITMAP
ENDCHAR
STARTCHAR C027060
ENCODING 11824
SWIDTH 1800 0
DWIDTH 18 0
BBX 0 0 0 0
BITMAP
ENDCHAR
STARTCHAR C027061
ENCODING 11825
SWIDTH 1800 0
DWIDTH 18 0
BBX 0 0 0 0
BITMAP
ENDCHAR
STARTCHAR C027062
ENCODING 11826
SWIDTH 1800 0
DWIDTH 18 0
BBX 0 0 0 0
BITMAP
ENDCHAR
STARTCHAR C027063
ENCODING 11827
SWIDTH 1800 0
DWIDTH 18 0
BBX 0 0 0 0
BITMAP
ENDCHAR
STARTCHAR C027064
ENCODING 11828
SWIDTH 1800 0
DWIDTH 18 0
BBX 0 0 0 0
BITMAP
ENDCHAR
STARTCHAR C027065
ENCODING 11829
SWIDTH 1800 0
DWIDTH 18 0
BBX 1 14 18 -4
BITMAP
80
00
00
80
00
80
80
00
00
00
00
00
00
80
ENDCHAR
STARTCHAR C027066
ENCODING 11830
SWIDTH 1800 0
DWIDTH 18 0
BBX 0 0 0 0
BITMAP
ENDCHAR
STARTCHAR C027067
ENCODING 11831
SWIDTH 1800 0
DWIDTH 18 0
BBX 0 0 0 0
BITMAP
ENDCHAR
STARTCHAR C027070
ENCODING 11832
SWIDTH 1800 0
DWIDTH 18 0
BBX 0 0 0 0
BITMAP
ENDCHAR
STARTCHAR C027071
ENCODING 11833
SWIDTH 1800 0
DWIDTH 18 0
BBX 0 0 0 0
BITMAP
ENDCHAR
STARTCHAR C027072
ENCODING 11834
SWIDTH 1800 0
DWIDTH 18 0
BBX 1 2 18 8
BITMAP
80
80
ENDCHAR
STARTCHAR C027073
ENCODING 11835
SWIDTH 1800 0
DWIDTH 18 0
BBX 0 0 0 0
BITMAP
ENDCHAR
STARTCHAR C027074
ENCODING 11836
SWIDTH 1800 0
DWIDTH 18 0
BBX 0 0 0 0
BITMAP
ENDCHAR
STARTCHAR C027075
ENCODING 11837
SWIDTH 1800 0
DWIDTH 18 0
BBX 0 0 0 0
BITMAP
ENDCHAR
STARTCHAR C027076
ENCODING 11838
SWIDTH 1800 0
DWIDTH 18 0
BBX 0 0 0 0
BITMAP
ENDCHAR
STARTCHAR C027077
ENCODING 11839
SWIDTH 1800 0
DWIDTH 18 0
BBX 0 0 0 0
BITMAP
ENDCHAR
STARTCHAR C027100
ENCODING 11840
SWIDTH 1800 0
DWIDTH 18 0
BBX 0 0 0 0
BITMAP
ENDCHAR
STARTCHAR C027101
ENCODING 11841
SWIDTH 1800 0
DWIDTH 18 0
BBX 0 0 0 0
BITMAP
ENDCHAR
STARTCHAR C027102
ENCODING 11842
SWIDTH 1800 0
DWIDTH 18 0
BBX 0 0 0 0
BITMAP
ENDCHAR
STARTCHAR C027103
ENCODING 11843
SWIDTH 1800 0
DWIDTH 18 0
BBX 0 0 0 0
BITMAP
ENDCHAR
STARTCHAR C027104
ENCODING 11844
SWIDTH 1800 0
DWIDTH 18 0
BBX 1 14 18 -4
BITMAP
80
00
00
80
00
80
80
00
00
00
00
00
00
80
ENDCHAR
STARTCHAR C027105
ENCODING 11845
SWIDTH 1800 0
DWIDTH 18 0
BBX 0 0 0 0
BITMAP
ENDCHAR
STARTCHAR C027106
ENCODING 11846
SWIDTH 1800 0
DWIDTH 18 0
BBX 0 0 0 0
BITMAP
ENDCHAR
STARTCHAR C027107
ENCODING 11847
SWIDTH 1800 0
DWIDTH 18 0
BBX 0 0 0 0
BITMAP
ENDCHAR
STARTCHAR C027110
ENCODING 11848
SWIDTH 1800 0
DWIDTH 18 0
BBX 0 0 0 0
BITMAP
ENDCHAR
STARTCHAR C027111
ENCODING 11849
SWIDTH 1800 0
DWIDTH 18 0
BBX 1 2 18 8
BITMAP
80
80
ENDCHAR
STARTCHAR C027112
ENCODING 11850
SWIDTH 1800 0
DWIDTH 18 0
BBX 0 0 0 0
BITMAP
ENDCHAR
STARTCHAR C027113
ENCODING 11851
SWIDTH 1800 0
DWIDTH 18 0
BBX 0 0 0 0
BITMAP
ENDCHAR
STARTCHAR C027114
ENCODING 11852
SWIDTH 1800 0
DWIDTH 18 0
BBX 0 0 0 0
BITMAP
ENDCHAR
STARTCHAR C027115
ENCODING 11853
SWIDTH 1800 0
DWIDTH 18 0
BBX 0 0 0 0
BITMAP
ENDCHAR
STARTCHAR C027116
ENCODING 11854
SWIDTH 1800 0
DWIDTH 18 0
BBX 0 0 0 0
BITMAP
ENDCHAR
STARTCHAR C027117
ENCODING 11855
SWIDTH 1800 0
DWIDTH 18 0
BBX 0 0 0 0
BITMAP
ENDCHAR
STARTCHAR C027120
ENCODING 11856
SWIDTH 1800 0
DWIDTH 18 0
BBX 0 0 0 0
BITMAP
ENDCHAR
STARTCHAR C027121
ENCODING 11857
SWIDTH 1800 0
DWIDTH 18 0
BBX 0 0 0 0
BITMAP
ENDCHAR
STARTCHAR C027122
ENCODING 11858
SWIDTH 1800 0
DWIDTH 18 0
BBX 0 0 0 0
BITMAP
ENDCHAR
STARTCHAR C027123
ENCODING 11859
SWIDTH 1800 0
DWIDTH 18 0
BBX 1 14 18 -4
BITMAP
80
00
00
80
00
80
80
00
00
00
00
00
00
80
ENDCHAR
STARTCHAR C027124
ENCODING 11860
SWIDTH 1800 0
DWIDTH 18 0
BBX 0 0 0 0
BITMAP
ENDCHAR
STARTCHAR C027125
ENCODING 11861
SWIDTH 1800 0
DWIDTH 18 0
BBX 0 0 0 0
BITMAP
ENDCHAR
STARTCHAR C027126
ENCODING 11862
SWIDTH 1800 0
DWIDTH 18 0
BBX 0 0 0 0
BITMAP
ENDCHAR
STARTCHAR C027127
ENCODING 11863
SWIDTH 1800 0
DWIDTH 18 0
BBX 0 0 0 0
BITMAP
ENDCHAR
STARTCHAR C027130
ENCODING 11864
SWIDTH 1800 0
DWIDTH 18 0
BBX 1 2 18 8
BITMAP
80
80
ENDCHAR
STARTCHAR C027131
ENCODING 11865
SWIDTH 1800 0
DWIDTH 18 0
BBX 0 0 0 0
BITMAP
ENDCHAR
STARTCHAR C027132
ENCODING 11866
SWIDTH 1800 0
DWIDTH 18 0
BBX 0 0 0 0
BITMAP
ENDCHAR
STARTCHAR C027133
ENCODING 11867
SWIDTH 1800 0
DWIDTH 18 0
BBX 0 0 0 0
BITMAP
ENDCHAR
STARTCHAR C027134
ENCODING 11868
SWIDTH 1800 0
DWIDTH 18 0
BBX 0 0 0 0
BITMAP
ENDCHAR
STARTCHAR C027135
ENCODING 11869
SWIDTH 1800 0
DWIDTH 18 0
BBX 0 0 0 0
BITMAP
ENDCHAR
STARTCHAR C027136
ENCODING 11870
SWIDTH 1800 0
DWIDTH 18 0
BBX 0 0 0 0
BITMAP
ENDCHAR
STARTCHAR C027137
ENCODING 11871
SWIDTH 1800 0
DWIDTH 18 0
BBX 0 0 0 0
BITMAP
ENDCHAR
STARTCHAR C027140
ENCODING 11872
SWIDTH 1800 0
DWIDTH 18 0
BBX 0 0 0 0
BITMAP
ENDCHAR
STARTCHAR C027141
ENCODING 11873
SWIDTH 1800 0
DWIDTH 18 0
BBX 0 0 0 0
BITMAP
ENDCHAR
STARTCHAR C027142
ENCODING 11874
SWIDTH 1800 0
DWIDTH 18 0
BBX 1 14 18 -4
BITMAP
80
00
00
80
00
80
80
00
00
00
00
00
00
80
ENDCHAR
STARTCHAR C027143
ENCODING 11875
SWIDTH 1800 0
DWIDTH 18 0
BBX 0 0 0 0
BITMAP
ENDCHAR
STARTCHAR C027144
ENCODING 11876
SWIDTH 1800 0
DWIDTH 18 0
BBX 0 0 0 0
BITMAP
ENDCHAR
STARTCHAR C027145
ENCODING 11877
SWIDTH 1800 0
DWIDTH 18 0
BBX 0 0 0 0
BITMAP
ENDCHAR
STARTCHAR C027146
ENCODING 11878
SWIDTH 1800 0
DWIDTH 18 0
BBX 0 0 0 0
BITMAP
ENDCHAR
STARTCHAR C027147
ENCODING 11879
SWIDTH 1800 0
DWIDTH 18 0
BBX 1 2 18 8
BITMAP
80
80
ENDCHAR
STARTCHAR C027150
ENCODING 11880
SWIDTH 1800 0
DWIDTH 18 0
BBX 0 0 0 0
BITMAP
ENDCHAR
STARTCHAR C027151
ENCODING 11881
SWIDTH 1800 0
DWIDTH 18 0
BBX 0 0 0 0
BITMAP
ENDCHAR
STARTCHAR C027152
ENCODING 11882
SWIDTH 1800 0
DWIDTH 18 0
BBX 0 0 0 0
BITMAP
ENDCHAR
STARTCHAR C027153
ENCODING 11883
SWIDTH 1800 0
DWIDTH 18 0
BBX 0 0 0 0
BITMAP
ENDCHAR
STARTCHAR C027154
ENCODING 11884
SWIDTH 1800 0
DWIDTH 18 0
BBX 0 0 0 0
BITMAP
ENDCHAR
STARTCHAR C027155
ENCODING 11885
SWIDTH 1800 0
DWIDTH 18 0
BBX 0 0 0 0
BITMAP
ENDCHAR
STARTCHAR C027156
ENCODING 11886
SWIDTH 1800 0
DWIDTH 18 0
BBX 0 0 0 0
BITMAP
ENDCHAR
STARTCHAR C027157
ENCODING 11887
SWIDTH 1800 0
DWIDTH 18 0
BBX 0 0 0 0
BITMAP
ENDCHAR
STARTCHAR C027160
ENCODING 11888
SWIDTH 1800 0
DWIDTH 18 0
BBX 0 0 0 0
BITMAP
ENDCHAR
STARTCHAR C027161
ENCODING 11889
SWIDTH 1800 0
DWIDTH 18 0
BBX 1 14 18 -4
BITMAP
80
00
00
80
00
80
80
00
00
00
00
00
00
80
ENDCHAR
STARTCHAR C027162
ENCODING 11890
SWIDTH 1800 0
DWIDTH 18 0
BBX 0 0 0 0
BITMAP
ENDCHAR
STARTCHAR C027163
ENCODING 11891
SWIDTH 1800 0
DWIDTH 18 0
BBX 0 0 0 0
BITMAP
ENDCHAR
STARTCHAR C027164
ENCODING 11892
SWIDTH 1800 0
DWIDTH 18 0
BBX 0 0 0 0
BITMAP
ENDCHAR
STARTCHAR C027165
ENCODING 11893
SWIDTH 1800 0
DWIDTH 18 0
BBX 0 0 0 0
BITMAP
ENDCHAR
STARTCHAR C027166
ENCODING 11894
SWIDTH 1800 0
DWIDTH 18 0
BBX 1 2 18 8
BITMAP
80
80
ENDCHAR
STARTCHAR C027167
ENCODING 11895
SWIDTH 1800 0
DWIDTH 18 0
BBX 0 0 0 0
BITMAP
ENDCHAR
STARTCHAR C027170
ENCODING 11896
SWIDTH 1800 0
DWIDTH 18 0
BBX 0 0 0 0
BITMAP
ENDCHAR
STARTCHAR C027171
ENCODING 11897
SWIDTH 1800 0
DWIDTH 18 0
BBX 0 0 0 0
BITMAP
ENDCHAR
STARTCHAR C027172
ENCODING 11898
SWIDTH 1800 0
DWIDTH 18 0
BBX 0 0 0 0
BITMAP
ENDCHAR
STARTCHAR C027173
ENCODING 11899
SWIDTH 1800 0
DWIDTH 18 0
BBX 0 0 0 0
BITMAP
ENDCHAR
STARTCHAR C027174
ENCODING 11900
SWIDTH 1800 0
DWIDTH 18 0
BBX 0 0 0 0
BITMAP
ENDCHAR
STARTCHAR C027175
ENCODING 11901
SWIDTH 1800 0
DWIDTH 18 0
BBX 0 0 0 0
BITMAP
ENDCHAR
STARTCHAR C027176
ENCODING 11902
SWIDTH 1800 0
DWIDTH 18 0
BBX 0 0 0 0
BITMAP
ENDCHAR
STARTCHAR C027177
ENCODING 11903
SWIDTH 1800 0
DWIDTH 18 0
BBX 0 0 0 0
BITMAP
ENDCHAR
STARTCHAR C027440
ENCODING 12064
SWIDTH 1800 0
DWIDTH 18 0
BBX 1 14 18 -4
BITMAP
80
00
00
80
00
80
80
00
00
00
00
00
00
80
ENDCHAR
STARTCHAR C027441
ENCODING 12065
SWIDTH 1800 0
DWIDTH 18 0
BBX 0 0 0 0
BITMAP
ENDCHAR
STARTCHAR C027442
ENCODING 12066
SWIDTH 1800 0
DWIDTH 18 0
BBX 0 0 0 0
BITMAP
ENDCHAR
STARTCHAR C027443
ENCODING 12067
SWIDTH 1800 0
DWIDTH 18 0
BBX 0 0 0 0
BITMAP
ENDCHAR
STARTCHAR C027444
ENCODING 12068
SWIDTH 1800 0
DWIDTH 18 0
BBX 0 0 0 0
BITMAP
ENDCHAR
STARTCHAR C027445
ENCODING 12069
SWIDTH 1800 0
DWIDTH 18 0
BBX 1 2 18 8
BITMAP
80
80
ENDCHAR
STARTCHAR C027446
ENCODING 12070
SWIDTH 1800 0
DWIDTH 18 0
BBX 0 0 0 0
BITMAP
ENDCHAR
STARTCHAR C027447
ENCODING 12071
SWIDTH 1800 0
DWIDTH 18 0
BBX 0 0 0 0
BITMAP
ENDCHAR
STARTCHAR C027450
ENCODING 12072
SWIDTH 1800 0
DWIDTH 18 0
BBX 0 0 0 0
BITMAP
ENDCHAR
STARTCHAR C027451
ENCODING 12073
SWIDTH 1800 0
DWIDTH 18 0
BBX 0 0 0 0
BITMAP
ENDCHAR
STARTCHAR C027452
ENCODING 12074
SWIDTH 1800 0
DWIDTH 18 0
BBX 0 0 0 0
BITMAP
ENDCHAR
STARTCHAR C027453
ENCODING 12075
SWIDTH 1800 0
DWIDTH 18 0
BBX 0 0 0 0
BITMAP
ENDCHAR
STARTCHAR C027454
ENCODING 12076
SWIDTH 1800 0
DWIDTH 18 0
BBX 0 0 0 0
BITMAP
ENDCHAR
STARTCHAR C027455
ENCODING 12077
SWIDTH 1800 0
DWIDTH 18 0
BBX 0 0 0 0
BITMAP
ENDCHAR
STARTCHAR C027456
ENCODING 12078
SWIDTH 1800 0
DWIDTH 18 0
BBX 0 0 0 0
BITMAP
ENDCHAR
STARTCHAR C027457
ENCODING 12079
SWIDTH 1800 0
DWIDTH 18 0
BBX 1 14 18 -4
BITMAP
80
00
00
80
00
80
80
00
00
00
00
00
00
80
ENDCHAR
STARTCHAR C027460
ENCODING 12080
SWIDTH 1800 0
DWIDTH 18 0
BBX 0 0 0 0
BITMAP
ENDCHAR
STARTCHAR C027461
ENCODING 12081
SWIDTH 1800 0
DWIDTH 18 0
BBX 0 0 0 0
BITMAP
ENDCHAR
STARTCHAR C027462
ENCODING 12082
SWIDTH 1800 0
DWIDTH 18 0
BBX 0 0 0 0
BITMAP
ENDCHAR
STARTCHAR C027463
ENCODING 12083
SWIDTH 1800 0
DWIDTH 18 0
BBX 0 0 0 0
BITMAP
ENDCHAR
STARTCHAR C027464
ENCODING 12084
SWIDTH 1800 0
DWIDTH 18 0
BBX 1 2 18 8
BITMAP
80
80
ENDCHAR
STARTCHAR C027465
ENCODING 12085
SWIDTH 1800 0
DWIDTH 18 0
BBX 0 0 0 0
BITMAP
ENDCHAR
STARTCHAR C027466
ENCODING 12086
SWIDTH 1800 0
DWIDTH 18 0
BBX 0 0 0 0
BITMAP
ENDCHAR
STARTCHAR C027467
ENCODING 12087
SWIDTH 1800 0
DWIDTH 18 0
BBX 0 0 0 0
BITMAP
ENDCHAR
STARTCHAR C027470
ENCODING 12088
SWIDTH 1800 0
DWIDTH 18 0
BBX 0 0 0 0
BITMAP
ENDCHAR
STARTCHAR C027471
ENCODING 12089
SWIDTH 1800 0
DWIDTH 18 0
BBX 0 0 0 0
BITMAP
ENDCHAR
STARTCHAR C027472
ENCODING 12090
SWIDTH 1800 0
DWIDTH 18 0
BBX 0 0 0 0
BITMAP
ENDCHAR
STARTCHAR C027473
ENCODING 12091
SWIDTH 1800 0
DWIDTH 18 0
BBX 0 0 0 0
BITMAP
ENDCHAR
STARTCHAR C027474
ENCODING 12092
SWIDTH 1800 0
DWIDTH 18 0
BBX 0 0 0 0
BITMAP
ENDCHAR
STARTCHAR C027475
ENCODING 12093
SWIDTH 1800 0
DWIDTH 18 0
BBX 0 0 0 0
BITMAP
ENDCHAR
STARTCHAR C027476
ENCODING 12094
SWIDTH 1800 0
DWIDTH 18 0
BBX 1 14 18 -4
BITMAP
80
00
00
80
00
80
80
00
00
00
00
00
00
80
ENDCHAR
STARTCHAR C027477
ENCODING 12095
SWIDTH 1800 0
DWIDTH 18 0
BBX 0 0 0 0
BITMAP
ENDCHAR
STARTCHAR C027500
ENCODING 12096
SWIDTH 1800 0
DWIDTH 18 0
BBX 0 0 0 0
BITMAP
ENDCHAR
STARTCHAR C027501
ENCODING 12097
SWIDTH 1800 0
DWIDTH 18 0
BBX 0 0 0 0
BITMAP
ENDCHAR
STARTCHAR C027502
ENCODING 12098
SWIDTH 1800 0
DWIDTH 18 0
BBX 0 0 0 0
BITMAP
ENDCHAR
STARTCHAR C027503
ENCODING 12099
SWIDTH 1800 0
DWIDTH 18 0
BBX 1 2 18 8
BITMAP
80
80
ENDCHAR
STARTCHAR C027504
ENCODING 12100
SWIDTH 1800 0
DWIDTH 18 0
BBX 0 0 0 0
BITMAP
ENDCHAR
STARTCHAR C027505
ENCODING 12101
SWIDTH 1800 0
DWIDTH 18 0
BBX 0 0 0 0
BITMAP
ENDCHAR
STARTCHAR C027506
ENCODING 12102
SWIDTH 1800 0
DWIDTH 18 0
BBX 0 0 0 0
BITMAP
ENDCHAR
STARTCHAR C027507
ENCODING 12103
SWIDTH 1800 0
DWIDTH 18 0
BBX 0 0 0 0
BITMAP
ENDCHAR
STARTCHAR C027510
ENCODING 12104
SWIDTH 1800 0
DWIDTH 18 0
BBX 0 0 0 0
BITMAP
ENDCHAR
STARTCHAR C027511
ENCODING 12105
SWIDTH 1800 0
DWIDTH 18 0
BBX 0 0 0 0
BITMAP
ENDCHAR
STARTCHAR C027512
ENCODING 12106
SWIDTH 1800 0
DWIDTH 18 0
BBX 0 0 0 0
BITMAP
ENDCHAR
STARTCHAR C027513
ENCODING 12107
SWIDTH 1800 0
DWIDTH 18 0
BBX 0 0 0 0
BITMAP
ENDCHAR
STARTCHAR C027514
ENCODING 12108
SWIDTH 1800 0
DWIDTH 18 0
BBX 0 0 0 0
BITMAP
ENDCHAR
STARTCHAR C027515
ENCODING 12109
SWIDTH 1800 0
DWIDTH 18 0
BBX 1 14 18 -4
BITMAP
80
00
00
80
00
80
80
00
00
00
00
00
00
80
ENDCHAR
STARTCHAR C027516
ENCODING 12110
SWIDTH 1800 0
DWIDTH 18 0
BBX 0 0 0 0
BITMAP
ENDCHAR
STARTCHAR C027517
ENCODING 12111
SWIDTH 1800 0
DWIDTH 18 0
BBX 0 0 0 0
BITMAP
ENDCHAR
STARTCHAR C027520
ENCODING 12112
SWIDTH 1800 0
DWIDTH 18 0
BBX 0 0 0 0
BITMAP
ENDCHAR
STARTCHAR C027521
ENCODING 12113
SWIDTH 1800 0
DWIDTH 18 0
BBX 0 0 0 0
BITMAP
ENDCHAR
STARTCHAR C027522
ENCODING 12114
SWIDTH 1800 0
DWIDTH 18 0
BBX 1 2 18 8
BITMAP
80
80
ENDCHAR
STARTCHAR C027523
ENCODING 12115
SWIDTH 1800 0
DWIDTH 18 0
BBX 0 0 0 0
BITMAP
ENDCHAR
STARTCHAR C027524
ENCODING 12116
SWIDTH 1800 0
DWIDTH 18 0
BBX 0 0 0 0
BITMAP
ENDCHAR
STARTCHAR C027525
ENCODING 12117
SWIDTH 1800 0
DWIDTH 18 0
BBX 0 0 0 0
BITMAP
ENDCHAR
STARTCHAR C027526
ENCODING 12118
SWIDTH 1800 0
DWIDTH 18 0
BBX 0 0 0 0
BITMAP
ENDCHAR
STARTCHAR C027527
ENCODING 12119
SWIDTH 1800 0
DWIDTH 18 0
BBX 0 0 0 0
BITMAP
ENDCHAR
STARTCHAR C027530
ENCODING 12120
SWIDTH 1800 0
DWIDTH 18 0
BBX 0 0 0 0
BITMAP
ENDCHAR
STARTCHAR C027531
ENCODING 12121
SWIDTH 1800 0
DWIDTH 18 0
BBX 0 0 0 0
BITMAP
ENDCHAR
STARTCHAR C027532
ENCODING 12122
SWIDTH 1800 0
DWIDTH 18 0
BBX 0 0 0 0
BITMAP
ENDCHAR
STARTCHAR C027533
ENCODING 12123
SWIDTH 1800 0
DWIDTH 18 0
BBX 0 0 0 0
BITMAP
ENDCHAR
STARTCHAR C027534
ENCODING 12124
SWIDTH 1800 0
DWIDTH 18 0
BBX 1 14 18 -4
BITMAP
80
00
00
80
00
80
80
00
00
00
00
00
00
80
ENDCHAR
STARTCHAR C027535
ENCODING 12125
SWIDTH 1800 0
DWIDTH 18 0
BBX 0 0 0 0
BITMAP
ENDCHAR
STARTCHAR C027536
ENCODING 12126
SWIDTH 1800 0
DWIDTH 18 0
BBX 0 0 0 0
BITMAP
ENDCHAR
STARTCHAR C027537
ENCODING 12127
SWIDTH 1800 0
DWIDTH 18 0
BBX 0 0 0 0
BITMAP
ENDCHAR
STARTCHAR C027540
ENCODING 12128
SWIDTH 1800 0
DWIDTH 18 0
BBX 0 0 0 0
BITMAP
ENDCHAR
STARTCHAR C027541
ENCODING 12129
SWIDTH 1800 0
DWIDTH 18 0
BBX 1 2 18 8
BITMAP
80
80
ENDCHAR
STARTCHAR C027542
ENCODING 12130
SWIDTH 1800 0
DWIDTH 18 0
BBX 0 0 0 0
BITMAP
ENDCHAR
STARTCHAR C027543
ENCODING 12131
SWIDTH 1800 0
DWIDTH 18 0
BBX 0 0 0 0
BITMAP
ENDCHAR
STARTCHAR C027544
ENCODING 12132
SWIDTH 1800 0
DWIDTH 18 0
BBX 0 0 0 0
BITMAP
ENDCHAR
STARTCHAR C027545
ENCODING 12133
SWIDTH 1800 0
DWIDTH 18 0
BBX 0 0 0 0
BITMAP
ENDCHAR
STARTCHAR C027546
ENCODING 12134
SWIDTH 1800 0
DWIDTH 18 0
BBX 0 0 0 0
BITMAP
ENDCHAR
STARTCHAR C027547
ENCODING 12135
SWIDTH 1800 0
DWIDTH 18 0
BBX 0 0 0 0
BITMAP
ENDCHAR
STARTCHAR C027550
ENCODING 12136
SWIDTH 1800 0
DWIDTH 18 0
BBX 0 0 0 0
BITMAP
ENDCHAR
STARTCHAR C027551
ENCODING 12137
SWIDTH 1800 0
DWIDTH 18 0
BBX 0 0 0 0
BITMAP
ENDCHAR
STARTCHAR C027552
ENCODING 12138
SWIDTH 1800 0
DWIDTH 18 0
BBX 0 0 0 0
BITMAP
ENDCHAR
STARTCHAR C027553
ENCODING 12139
SWIDTH 1800 0
DWIDTH 18 0
BBX 1 14 18 -4
BITMAP
80
00
00
80
00
80
80
00
00
00
00
00
00
80
ENDCHAR
STARTCHAR C027554
ENCODING 12140
SWIDTH 1800 0
DWIDTH 18 0
BBX 0 0 0 0
BITMAP
ENDCHAR
STARTCHAR C027555
ENCODING 12141
SWIDTH 1800 0
DWIDTH 18 0
BBX 0 0 0 0
BITMAP
ENDCHAR
STARTCHAR C027556
ENCODING 12142
SWIDTH 1800 0
DWIDTH 18 0
BBX 0 0 0 0
BITMAP
ENDCHAR
STARTCHAR C027557
ENCODING 12143
SWIDTH 1800 0
DWIDTH 18 0
BBX 0 0 0 0
BITMAP
ENDCHAR
STARTCHAR C027560
ENCODING 12144
SWIDTH 1800 0
DWIDTH 18 0
BBX 1 2 18 8
BITMAP
80
80
ENDCHAR
STARTCHAR C027561
ENCODING 12145
SWIDTH 1800 0
DWIDTH 18 0
BBX 0 0 0 0
BITMAP
ENDCHAR
STARTCHAR C027562
ENCODING 12146
SWIDTH 1800 0
DWIDTH 18 0
BBX 0 0 0 0
BITMAP
ENDCHAR
STARTCHAR C027563
ENCODING 12147
SWIDTH 1800 0
DWIDTH 18 0
BBX 0 0 0 0
BITMAP
ENDCHAR
STARTCHAR C027564
ENCODING 12148
SWIDTH 1800 0
DWIDTH 18 0
BBX 0 0 0 0
BITMAP
ENDCHAR
STARTCHAR C027565
ENCODING 12149
SWIDTH 1800 0
DWIDTH 18 0
BBX 0 0 0 0
BITMAP
ENDCHAR
STARTCHAR C027566
ENCODING 12150
SWIDTH 1800 0
DWIDTH 18 0
BBX 0 0 0 0
BITMAP
ENDCHAR
STARTCHAR C027567
ENCODING 12151
SWIDTH 1800 0
DWIDTH 18 0
BBX 0 0 0 0
BITMAP
ENDCHAR
STARTCHAR C027570
ENCODING 12152
SWIDTH 1800 0
DWIDTH 18 0
BBX 0 0 0 0
BITMAP
ENDCHAR
STARTCHAR C027571
ENCODING 12153
SWIDTH 1800 0
DWIDTH 18 0
BBX 0 0 0 0
BITMAP
ENDCHAR
STARTCHAR C027572
ENCODING 12154
SWIDTH 1800 0
DWIDTH 18 0
BBX 1 14 18 -4
BITMAP
80
00
00
80
00
80
80
00
00
00
00
00
00
80
ENDCHAR
STARTCHAR C027573
ENCODING 12155
SWIDTH 1800 0
DWIDTH 18 0
BBX 0 0 0 0
BITMAP
ENDCHAR
STARTCHAR C027574
ENCODING 12156
SWIDTH 1800 0
DWIDTH 18 0
BBX 0 0 0 0
BITMAP
ENDCHAR
STARTCHAR C027575
ENCODING 12157
SWIDTH 1800 0
DWIDTH 18 0
BBX 0 0 0 0
BITMAP
ENDCHAR
STARTCHAR C027576
ENCODING 12158
SWIDTH 1800 0
DWIDTH 18 0
BBX 0 0 0 0
BITMAP
ENDCHAR
STARTCHAR C027577
ENCODING 12159
SWIDTH 1800 0
DWIDTH 18 0
BBX 1 2 18 8
BITMAP
80
80
ENDCHAR
STARTCHAR C030040
ENCODING 12320
SWIDTH 1800 0
DWIDTH 18 0
BBX 1 10 18 0
BITMAP
80
00
00
00
00
00
00
00
00
80
ENDCHAR
STARTCHAR C030041
ENCODING 12321
SWIDTH 1800 0
DWIDTH 18 0
BBX 16 15 2 -2
BITMAP
0038
0018
0018
FF98
0318
0318
0618
061F
0C18
1818
3018
6018
C018
0018
0018
ENDCHAR
STARTCHAR C030042
ENCODING 12322
SWIDTH 1800 0
DWIDTH 18 0
BBX 16 15 2 -2
BITMAP
0038
0018
FF98
0318
0618
0E1F
0C1C
1818
7018
DFF8
0018
0018
0018
0018
0018
ENDCHAR
STARTCHAR C030043
ENCODING 12323
SWIDTH 1800 0
DWIDTH 18 0
BBX 16 15 2 -2
BITMAP
0038
0018
FF98
0318
0618
0618
0C1F
181C
3018
6018
1E18
0600
0600
060C
07FE
ENDCHAR
STARTCHAR C030044
ENCODING 12324
SWIDTH 1800 0
DWIDTH 18 0
BBX 16 15 2 -2
BITMAP
0038
0018
FF18
0318
0618
0C1B
1C1E
3818
6018
C038
1FF8
0C00
0C00
0C00
0FFC
ENDCHAR
STARTCHAR C030045
ENCODING 12325
SWIDTH 1800 0
DWIDTH 18 0
BBX 16 15 2 -2
BITMAP
0038
0018
FF98
0318
0618
0E1B
0C1E
1818
7018
DFF8
0030
0030
0FF8
0C00
0FFC
ENDCHAR
STARTCHAR C030046
ENCODING 12326
SWIDTH 1800 0
DWIDTH 18 0
BBX 16 16 2 -3
BITMAP
0038
0018
FF98
0318
0618
061F
0C18
1818
3FF8
E318
0318
3F18
1818
1998
1F18
0018
ENDCHAR
STARTCHAR C030047
ENCODING 12327
SWIDTH 1800 0
DWIDTH 18 0
BBX 16 15 2 -2
BITMAP
0038
0018
7F98
0318
0718
061F
0C18
1818
7318
DFFC
03D8
7FD8
30D8
30F8
3EC0
ENDCHAR
STARTCHAR C030050
ENCODING 12328
SWIDTH 1800 0
DWIDTH 18 0
BBX 16 17 2 -3
BITMAP
0060
0038
0018
FF98
0318
0618
0E1F
0C18
1818
7018
C000
0FF8
0618
0618
0630
07F8
0600
ENDCHAR
STARTCHAR C030051
ENCODING 12329
SWIDTH 1800 0
DWIDTH 18 0
BBX 16 17 2 -3
BITMAP
0070
0038
0018
FF98
0318
0618
061F
0C18
1818
3000
EC18
0618
07F8
0618
0618
07F8
0618
ENDCHAR
STARTCHAR C030052
ENCODING 12330
SWIDTH 1800 0
DWIDTH 18 0
BBX 16 17 2 -3
BITMAP
0060
0038
0018
FF98
0318
0618
0E1F
0C18
1818
7000
FB38
1B30
1F30
1B78
1B6C
1FC6
1B00
ENDCHAR
STARTCHAR C030053
ENCODING 12331
SWIDTH 1800 0
DWIDTH 18 0
BBX 16 15 2 -2
BITMAP
0030
0018
FF98
0318
0618
061B
0C1E
1818
3018
E1D8
01C0
01E0
0330
061C
1C0C
ENDCHAR
STARTCHAR C030054
ENCODING 12332
SWIDTH 1800 0
DWIDTH 18 0
BBX 16 16 2 -2
BITMAP
0070
0038
0018
FF98
0318
0618
0E1B
0C1E
1818
7018
CE30
0630
0E30
1B78
30CC
618C
ENDCHAR
STARTCHAR C030055
ENCODING 12333
SWIDTH 1800 0
DWIDTH 18 0
BBX 16 16 2 -3
BITMAP
0030
0018
FF98
0318
0618
0E1F
0C1C
1818
7018
C0D8
01E0
0738
0618
0618
0330
01E0
ENDCHAR
STARTCHAR C030056
ENCODING 12334
SWIDTH 1800 0
DWIDTH 18 0
BBX 16 16 2 -2
BITMAP
0070
0038
0018
FF98
0318
0618
0E1F
0C1C
1818
7018
C038
1FE0
0180
03E0
0638
1C1C
ENDCHAR
STARTCHAR C030057
ENCODING 12335
SWIDTH 1800 0
DWIDTH 18 0
BBX 16 16 2 -3
BITMAP
0038
0018
FF98
0318
0718
0E1F
0C18
3818
63E0
0000
3FFC
01C0
01E0
0738
0C0C
3800
ENDCHAR
STARTCHAR C030060
ENCODING 12336
SWIDTH 1800 0
DWIDTH 18 0
BBX 16 17 2 -3
BITMAP
0070
0038
0018
FF98
0318
0718
0E1F
0C1C
1818
3018
E030
0FF0
0C00
0FF0
0C00
0C00
07F8
ENDCHAR
STARTCHAR C030061
ENCODING 12337
SWIDTH 1800 0
DWIDTH 18 0
BBX 16 17 2 -3
BITMAP
0070
0038
0018
FF98
0318
0718
0E1B
0C1E
1818
3018
E000
1FF8
0070
0660
0660
3FFC
1C00
ENDCHAR
STARTCHAR C030062
ENCODING 12338
SWIDTH 1800 0
DWIDTH 18 0
BBX 16 15 2 -2
BITMAP
0038
0018
7F98
0198
0318
061F
0C1C
1818
3018
E3EC
1FB8
01E0
0330
0330
03E0
ENDCHAR
STARTCHAR C030063
ENCODING 12339
SWIDTH 1800 0
DWIDTH 18 0
BBX 14 16 2 -2
BITMAP
0038
018C
00CC
00CC
EECC
3ECC
0CCC
0CCC
1CFC
18CC
30CC
60CC
C0CC
00CC
00CC
00CC
ENDCHAR
STARTCHAR C030064
ENCODING 12340
SWIDTH 1800 0
DWIDTH 18 0
BBX 12 16 3 -3
BITMAP
03F0
01B0
0FB0
FDB0
0DB0
19F0
39B0
31B0
61B0
C000
7FF0
0030
0030
0030
0030
0030
ENDCHAR
STARTCHAR C030065
ENCODING 12341
SWIDTH 1800 0
DWIDTH 18 0
BBX 14 15 2 -2
BITMAP
0038
01D8
00F8
FFD8
06D8
0ED8
0CD8
18F8
30D8
60D8
FCD8
0CD8
0C18
0C00
0FFC
ENDCHAR
STARTCHAR C030066
ENCODING 12342
SWIDTH 1800 0
DWIDTH 18 0
BBX 14 15 3 -2
BITMAP
0070
03B0
0FB0
FDB0
0DB0
19B0
39F0
31B0
61B0
DFF0
0030
0060
0FF0
0C00
0FFC
ENDCHAR
STARTCHAR C030067
ENCODING 12343
SWIDTH 1800 0
DWIDTH 18 0
BBX 12 16 3 -3
BITMAP
0070
03B0
0FB0
FDB0
0DB0
19B0
39F0
31B0
61B0
C1B0
1FF0
0C30
0C30
0C60
0FF0
0C00
ENDCHAR
STARTCHAR C030070
ENCODING 12344
SWIDTH 1800 0
DWIDTH 18 0
BBX 12 16 3 -3
BITMAP
0070
03B0
0FB0
FDB0
0DB0
19B0
39F0
31B0
61B0
D9F0
0C30
0FF0
0C30
0C30
0FF0
0C30
ENDCHAR
STARTCHAR C030071
ENCODING 12345
SWIDTH 1800 0
DWIDTH 18 0
BBX 15 15 2 -2
BITMAP
00DC
006C
006C
7E6C
066C
0C6C
1C7C
186C
706C
C0EC
00EC
00E0
01B8
030C
0E06
ENDCHAR
STARTCHAR C030072
ENCODING 12346
SWIDTH 1800 0
DWIDTH 18 0
BBX 16 16 2 -2
BITMAP
0038
00EC
006C
FF6C
066C
066C
0C7C
186C
306C
607C
0718
0618
0738
0DBC
1866
30C3
ENDCHAR
STARTCHAR C030073
ENCODING 12347
SWIDTH 1800 0
DWIDTH 18 0
BBX 13 16 3 -3
BITMAP
0070
03B8
01B0
FDB0
0DB0
19B0
39F0
31B0
61B0
C0F0
03F0
0738
0618
0618
0738
01F0
ENDCHAR
STARTCHAR C030074
ENCODING 12348
SWIDTH 1800 0
DWIDTH 18 0
BBX 16 16 2 -3
BITMAP
0070
0018
0018
FF98
0318
031F
061C
0618
0C18
1818
301F
6018
C018
0018
0018
0018
ENDCHAR
STARTCHAR C030075
ENCODING 12349
SWIDTH 1800 0
DWIDTH 18 0
BBX 16 15 2 -2
BITMAP
0078
0018
FF98
0318
061F
0618
0C18
181B
301E
FFF8
0C18
0018
0018
0018
0018
ENDCHAR
STARTCHAR C030076
ENCODING 12350
SWIDTH 1800 0
DWIDTH 18 0
BBX 16 15 2 -2
BITMAP
0038
0018
7F98
0398
031F
0618
0E18
0C18
181F
701C
DE18
0618
0600
060C
07FE
ENDCHAR
STARTCHAR C030077
ENCODING 12351
SWIDTH 1800 0
DWIDTH 18 0
BBX 16 16 2 -2
BITMAP
0060
0038
0018
FF98
031B
071E
0618
0C18
181F
3018
FFF8
0018
0018
0FF8
0C00
0FFC
ENDCHAR
STARTCHAR C030100
ENCODING 12352
SWIDTH 1800 0
DWIDTH 18 0
BBX 16 15 2 -2
BITMAP
0038
0018
7F98
031B
061E
0E18
0C18
181F
3198
E0D8
01D8
03E0
0738
0C1C
180C
ENDCHAR
STARTCHAR C030101
ENCODING 12353
SWIDTH 1800 0
DWIDTH 18 0
BBX 17 15 1 -2
BITMAP
003C00
000C00
7FCC00
018C00
030F80
070C00
060C00
0C0C00
186F80
71FC00
C31800
031800
031800
03B800
01F000
ENDCHAR
STARTCHAR C030102
ENCODING 12354
SWIDTH 1800 0
DWIDTH 18 0
BBX 14 16 2 -2
BITMAP
0030
019C
00CC
00CC
FFCC
06CC
0EFC
0CCC
18CC
18CC
30FC
60CC
C0CC
00CC
00CC
000C
ENDCHAR
STARTCHAR C030103
ENCODING 12355
SWIDTH 1800 0
DWIDTH 18 0
BBX 15 16 1 -2
BITMAP
001C
01C6
0066
0066
7F66
077E
0666
0C66
1C7E
1866
7066
DE66
0606
0600
0600
07FE
ENDCHAR
STARTCHAR C030104
ENCODING 12356
SWIDTH 1800 0
DWIDTH 18 0
BBX 15 15 2 -2
BITMAP
001C
01CC
00CC
7ECC
06FC
0CCC
18FC
30CC
6FFC
C00C
0018
0FFC
0600
0600
07FE
ENDCHAR
STARTCHAR C030105
ENCODING 12357
SWIDTH 1800 0
DWIDTH 18 0
BBX 14 16 2 -2
BITMAP
0078
003C
001C
0018
7F98
0398
0318
07F8
0618
0C1C
1818
3018
6018
C018
0018
0018
ENDCHAR
STARTCHAR C030106
ENCODING 12358
SWIDTH 1800 0
DWIDTH 18 0
BBX 12 15 3 -2
BITMAP
0070
0030
FF30
0630
0C30
0FF0
1830
3030
6030
FFF0
1830
0030
0030
0030
0030
ENDCHAR
STARTCHAR C030107
ENCODING 12359
SWIDTH 1800 0
DWIDTH 18 0
BBX 15 15 2 -2
BITMAP
0038
0018
7F98
0398
0318
0618
0FF8
0C18
1818
7018
DE18
0618
0600
060C
07FE
ENDCHAR
STARTCHAR C030110
ENCODING 12360
SWIDTH 1800 0
DWIDTH 18 0
BBX 14 15 2 -2
BITMAP
0038
0018
7F98
0198
0318
07F8
0618
0C18
1818
701C
CFFC
0600
0600
060C
07FC
ENDCHAR
STARTCHAR C030111
ENCODING 12361
SWIDTH 1800 0
DWIDTH 18 0
BBX 15 15 2 -2
BITMAP
0038
0018
7F98
0398
03F8
0618
0C18
1818
3018
6FF8
C018
0018
0FF8
0600
07FE
ENDCHAR
STARTCHAR C030112
ENCODING 12362
SWIDTH 1800 0
DWIDTH 18 0
BBX 13 16 3 -3
BITMAP
00F0
0030
FF30
0730
0630
0FF0
1C30
3030
6030
C030
7FF8
07B0
7FB0
31B0
3FF0
1980
ENDCHAR
STARTCHAR C030113
ENCODING 12363
SWIDTH 1800 0
DWIDTH 18 0
BBX 14 16 2 -3
BITMAP
0078
0018
FF98
0398
0318
07F8
0C18
1818
3018
6018
CFFC
0618
0618
0618
07F8
0600
ENDCHAR
STARTCHAR C030114
ENCODING 12364
SWIDTH 1800 0
DWIDTH 18 0
BBX 13 16 2 -3
BITMAP
0038
0018
FF98
0398
0318
07F8
0C18
1818
3018
6E18
C618
07F8
0618
0618
07F8
0618
ENDCHAR
STARTCHAR C030115
ENCODING 12365
SWIDTH 1800 0
DWIDTH 18 0
BBX 14 15 2 -2
BITMAP
0038
0018
FF98
0398
0318
07F8
0C18
1818
3018
61D8
C1C0
01E0
0330
061C
1C0C
ENDCHAR
STARTCHAR C030116
ENCODING 12366
SWIDTH 1800 0
DWIDTH 18 0
BBX 15 15 2 -2
BITMAP
0038
FF98
0318
0618
07F8
0C18
1818
3018
6030
0718
0630
0F38
1DEC
30CE
6180
ENDCHAR
STARTCHAR C030117
ENCODING 12367
SWIDTH 1800 0
DWIDTH 18 0
BBX 13 16 2 -3
BITMAP
0038
0018
FF98
0398
0318
07F8
0C18
1818
3018
6018
C0E0
03B8
0318
0318
03B8
01F0
ENDCHAR
ENDFONT
